<?xml version="1.0" encoding="utf-8"?>
<!-- Generator: Adobe Illustrator 19.1.0, SVG Export Plug-In . SVG Version: 6.00 Build 0)  -->
<svg version="1.1" id="Layer_1" xmlns="http://www.w3.org/2000/svg" xmlns:xlink="http://www.w3.org/1999/xlink" x="0px" y="0px"
	 viewBox="0 0 11.8 7.6" style="enable-background:new 0 0 11.8 7.6;" xml:space="preserve">
<style type="text/css">
	.st0{fill:#A09F9F;}
	.st1{fill:#6D6E71;}
	.st2{display:none;}
	.st3{display:inline;fill:#A09F9F;}
</style>
<g>
	<rect x="5" y="0.1" transform="matrix(-0.9263 -0.3768 0.3768 -0.9263 9.2413 9.0723)" class="st0" width="0.9" height="7"/>
	<rect x="8.9" y="0.1" class="st0" width="0.9" height="7"/>
	<rect x="-0.7" y="3.8" transform="matrix(-0.7139 0.7002 -0.7002 -0.7139 7.8025 5.3598)" class="st1" width="7" height="0.9"/>
	<rect x="3.8" y="3.1" transform="matrix(-0.129 0.9916 -0.9916 -0.129 11.7534 -3.2846)" class="st1" width="7" height="0.9"/>
	<rect x="10.9" y="0.1" class="st0" width="0.9" height="7"/>
	<g class="st2">
		<rect x="3" y="4.6" class="st3" width="0.6" height="3"/>
		<rect x="4" y="4.6" class="st3" width="0.6" height="3"/>
		<rect x="5.5" y="4.6" class="st3" width="0.6" height="3"/>
		<rect x="6.5" y="4.6" class="st3" width="0.6" height="3"/>
		<rect x="8" y="4.6" class="st3" width="0.6" height="3"/>
		<rect x="8.9" y="4.6" class="st3" width="0.6" height="3"/>
	</g>
</g>
</svg>
