<?xml version="1.0" encoding="utf-8"?>
<!-- Generator: Adobe Illustrator 19.1.0, SVG Export Plug-In . SVG Version: 6.00 Build 0)  -->
<svg version="1.1" id="Layer_1" xmlns="http://www.w3.org/2000/svg" xmlns:xlink="http://www.w3.org/1999/xlink" x="0px" y="0px"
	 viewBox="0 0 520.4 520.3" style="enable-background:new 0 0 520.4 520.3;" xml:space="preserve">
<style type="text/css">
	.st0{fill:#6D6E71;}
	.st1{fill:#A09F9F;}
</style>
<g>
	<path class="st0" d="M240.4,20c12.5,0,25,0,37.5,0c2.3,1.9,5,0.8,7.5,1.1c38.7,4.5,74.7,16.8,107,38.7
		c58.5,39.7,93.7,94.5,105.2,164.4c1,6,0.8,12.3,2.7,18.2c0,12.5,0,25,0,37.5c-1,0.3-0.9,1.1-1,1.9c-1.9,22.2-6.8,43.7-14.9,64.5
		c-43.6,111.6-158.6,173.6-275.7,148.6C81.5,467.7-1,341.8,24.4,213.5C44.2,114.1,124.5,37.4,224.1,22.6
		C229.5,21.8,235.2,22.1,240.4,20z M221.9,352.4c-9.6-1.2-18.6-2.7-27.3-5c-25.2-6.7-45.9-19.3-57.9-43.6
		c-6.3-12.8-9.2-26.5-10.5-40.5c-2.3-25.1,1.8-48.6,18.9-68.4c1.4-1.6,1.5-3,0.9-5c-4.3-14-3.8-28,0.1-42c3.3-12,4.5-12.6,16.9-9.9
		c14.9,3.2,27.9,10.4,40.6,18.5c2.2,1.4,4.2,2.1,6.9,1.4c33.1-9.1,66.3-9,99.5-0.1c2.4,0.6,4.4,0.4,6.5-1
		c9.1-6.1,18.6-11.4,28.9-15.3c6.9-2.6,13.9-4.6,21.4-4.5c2,0,3.9,0.1,4.8,2.7c5.4,15.5,7.8,31.2,3.3,47.3
		c-1.3,4.5-0.5,7.4,2.4,10.8c7,8.4,11.6,18.1,14.3,28.6c4.3,16.2,3.4,32.5,0.8,48.8c-5.2,32.4-22,55.8-53.3,67.8
		c-13,5-26.5,7.5-40.7,9.5c10.8,11.2,13.5,24.6,13.4,39c0,18.5,0,36.9,0,55.4c0,2.5,1.4,7,4.5,11.5c0,0,3.7,5.3,9.8,8.4
		c13.8,7.1,117.6-53.9,139.7-164c9.7-48.5-0.3-87.2-2.5-95.7C434.3,94.7,320.8,28.1,208.6,56.3C101.9,83.1,33.9,188,53.6,296.8
		c6.8,37.4,24.7,68.7,32.3,81.4c20.5,34.1,40.4,50,69.9,73.5c4.5,3.6,24.4,19.2,37.6,14.3c8.8-3.3,12.6-10,12.6-10
		c1.4-2.4,2.2-4.6,2.3-6.4c0.4-12,0.1-24.1,0.1-36.1c-5.2,0.7-10.1,1.5-15.1,1.9c-23.3,2.1-48.1-6.4-57.9-33
		c-4.4-11.8-11.8-21.5-22.8-28.3c-3.3-2-8.5-4.6-6.7-8.9c1.8-4.3,7.5-3.7,11.8-3c13.1,2.1,22.3,9.9,29.2,20.7
		c2.7,4.2,5.5,8.3,9.1,11.9c14.7,14.5,35.1,13.1,51.1,6.5c0.5-0.2,0.9-0.5,1.2-0.8c0.9-1,0.9-2.3,0.9-2.5
		C209.3,376.6,212.6,369.7,221.9,352.4z"/>
	<g>
		<path class="st1" d="M260.2,520.3C116.7,520.3,0,403.6,0,260.1S116.7,0,260.2,0s260.2,116.7,260.2,260.1S403.6,520.3,260.2,520.3z
			 M260.2,53.1C146,53.1,53.1,145.9,53.1,260.1S146,467.2,260.2,467.2s207.1-92.9,207.1-207.1S374.4,53.1,260.2,53.1z"/>
	</g>
</g>
</svg>
