<?xml version="1.0" encoding="utf-8"?>
<!-- Generator: Adobe Illustrator 19.1.0, SVG Export Plug-In . SVG Version: 6.00 Build 0)  -->
<svg version="1.1" id="Layer_1" xmlns="http://www.w3.org/2000/svg" xmlns:xlink="http://www.w3.org/1999/xlink" x="0px" y="0px"
	 viewBox="0 0 686.7 49.9" style="enable-background:new 0 0 686.7 49.9;" xml:space="preserve">
<style type="text/css">
	.st0{fill:#414042;}
</style>
<g>
	<path class="st0" d="M0,0h16.9c6.5,0,11.5,2.9,14.7,8.4c1.2,1.9,1.9,3.8,2.2,5.9c0.2,2.1,0.4,5.6,0.4,10.7c0,5.4-0.2,9.1-0.6,11.2
		c-0.2,1.1-0.4,2-0.8,2.9c-0.4,0.8-0.8,1.7-1.4,2.6c-1.4,2.4-3.4,4.3-5.9,5.8c-2.5,1.6-5.6,2.5-9.2,2.5H0V0z M7.3,42.8h8.8
		c4.1,0,7.1-1.4,9-4.4c0.8-1.1,1.3-2.4,1.6-4.1c0.2-1.6,0.3-4.7,0.3-9.1c0-4.3-0.1-7.5-0.3-9.3c-0.3-1.9-0.9-3.4-1.9-4.6
		c-2-2.9-4.9-4.3-8.6-4.2H7.3V42.8z"/>
	<path class="st0" d="M60.8,29.4L46.2,0H54l10.3,22.2L74.5,0h7.8L67.7,29.4v20.6h-6.9V29.4z"/>
	<path class="st0" d="M97.2,0h7.3v42.8h23.6v7.1H97.2V0z"/>
	<path class="st0" d="M170.8,38.8h-18.3l-3.7,11.2H141L158.6,0h6.1l17.6,49.9h-7.7L170.8,38.8z M168.8,32.1l-7-21.9h-0.1l-7,21.9
		H168.8z"/>
	<path class="st0" d="M198.7,0h6.9l21.9,35.5h0.1V0h7.3v49.9H228l-21.9-35.5H206v35.5h-7.3V0z"/>
	<path class="st0" d="M283.1,0H314v7.1h-23.6v14.8h20.1v6.7h-20.1v21.3h-7.3V0z"/>
	<path class="st0" d="M330.6,0h18.9c4,0,7.3,1.1,9.9,3.3c3.1,2.5,4.7,6,4.8,10.7c-0.1,6.8-3.2,11.4-9.3,13.8L366,49.9h-8.7l-10-21.3
		h-9.4v21.3h-7.3V0z M337.9,21.9H349c2.7,0,4.8-0.9,6.2-2.5c1.4-1.5,2-3.3,2-5.5c0-2.6-0.9-4.5-2.4-5.7c-1.2-1-3-1.5-5.4-1.5h-11.5
		V21.9z"/>
	<path class="st0" d="M383.2,0h30.9v7.1h-23.6v14.3h20.1v6.7h-20.1v14.7h23.6v7.1h-30.9V0z"/>
	<path class="st0" d="M432,0h30.9v7.1h-23.6v14.3h20.1v6.7h-20.1v14.7h23.6v7.1H432V0z"/>
	<path class="st0" d="M480.9,0h16.9c6.6,0,11.5,2.9,14.7,8.4c1.2,1.9,1.9,3.8,2.2,5.9c0.2,2.1,0.4,5.6,0.4,10.7
		c0,5.4-0.2,9.1-0.6,11.2c-0.2,1.1-0.4,2-0.8,2.9c-0.4,0.8-0.8,1.7-1.4,2.6c-1.4,2.4-3.4,4.3-5.9,5.8c-2.5,1.6-5.6,2.5-9.2,2.5
		h-16.4V0z M488.2,42.8h8.8c4.1,0,7.1-1.4,9-4.4c0.8-1.1,1.3-2.4,1.6-4.1c0.2-1.6,0.3-4.7,0.3-9.1c0-4.3-0.1-7.5-0.3-9.3
		c-0.3-1.9-0.9-3.4-1.9-4.6c-2-2.9-4.9-4.3-8.6-4.2h-8.8V42.8z"/>
	<path class="st0" d="M534.9,0h6.9l13.9,32.6L569.3,0h6.9v49.9h-7.3V18.8h-0.2l-10.1,24h-6.1l-10.1-24h-0.1v31.1h-7.3V0z"/>
	<path class="st0" d="M622.6,38.8h-18.3l-3.7,11.2h-7.8L610.4,0h6.1l17.6,49.9h-7.7L622.6,38.8z M620.6,32.1l-7-21.9h-0.1l-7,21.9
		H620.6z"/>
	<path class="st0" d="M650.5,0h6.9l21.9,35.5h0.1V0h7.3v49.9h-6.9l-21.9-35.5h-0.1v35.5h-7.3V0z"/>
</g>
</svg>
