<?xml version="1.0" encoding="utf-8"?>
<!-- Generator: Adobe Illustrator 19.1.0, SVG Export Plug-In . SVG Version: 6.00 Build 0)  -->
<svg version="1.1" id="Layer_1" xmlns="http://www.w3.org/2000/svg" xmlns:xlink="http://www.w3.org/1999/xlink" x="0px" y="0px"
	 viewBox="0 0 199.2 231" style="enable-background:new 0 0 199.2 231;" xml:space="preserve">
<style type="text/css">
	.st0{display:none;}
	.st1{display:inline;fill:#A09F9F;}
	.st2{fill:#7B3B25;}
	.st3{fill:#9F5037;}
	.st4{fill:#A43232;}
	.st5{display:inline;}
</style>
<g class="st0">
	<rect x="32.9" y="125.1" class="st1" width="0.7" height="3.2"/>
	<rect x="34" y="125.1" class="st1" width="0.7" height="3.2"/>
	<rect x="35.6" y="125.1" class="st1" width="0.7" height="3.2"/>
	<rect x="36.6" y="125.1" class="st1" width="0.7" height="3.2"/>
	<rect x="38.3" y="125.1" class="st1" width="0.7" height="3.2"/>
	<rect x="39.3" y="125.1" class="st1" width="0.7" height="3.2"/>
</g>
<g>
	<path class="st2" d="M32.3,16.6h3.3c1.3,0,2.2,0.6,2.8,1.6c0.2,0.4,0.4,0.7,0.4,1.1c0,0.4,0.1,1.1,0.1,2.1c0,1,0,1.8-0.1,2.2
		c0,0.2-0.1,0.4-0.2,0.6c-0.1,0.2-0.2,0.3-0.3,0.5c-0.3,0.5-0.7,0.8-1.1,1.1c-0.5,0.3-1.1,0.5-1.8,0.5h-3.2V16.6z M33.7,24.9h1.7
		c0.8,0,1.4-0.3,1.7-0.8c0.2-0.2,0.3-0.5,0.3-0.8c0-0.3,0.1-0.9,0.1-1.8c0-0.8,0-1.4-0.1-1.8c-0.1-0.4-0.2-0.7-0.4-0.9
		c-0.4-0.6-0.9-0.8-1.7-0.8h-1.7V24.9z"/>
	<path class="st2" d="M44,22.3l-2.8-5.7h1.5l2,4.3l2-4.3h1.5l-2.8,5.7v4H44V22.3z"/>
	<path class="st2" d="M51,16.6h1.4v8.3H57v1.4h-6V16.6z"/>
	<path class="st2" d="M65.2,24.1h-3.5L61,26.2h-1.5l3.4-9.6h1.2l3.4,9.6H66L65.2,24.1z M64.8,22.8l-1.3-4.2h0l-1.3,4.2H64.8z"/>
	<path class="st2" d="M70.6,16.6h1.3l4.2,6.8h0v-6.8h1.4v9.6h-1.3L72,19.4h0v6.8h-1.4V16.6z"/>
	<path class="st2" d="M86.9,16.6h6V18h-4.5v2.8h3.9v1.3h-3.9v4.1h-1.4V16.6z"/>
	<path class="st2" d="M96,16.6h3.6c0.8,0,1.4,0.2,1.9,0.6c0.6,0.5,0.9,1.2,0.9,2.1c0,1.3-0.6,2.2-1.8,2.7l2.2,4.3h-1.7l-1.9-4.1
		h-1.8v4.1H96V16.6z M97.4,20.8h2.1c0.5,0,0.9-0.2,1.2-0.5c0.3-0.3,0.4-0.6,0.4-1.1c0-0.5-0.2-0.9-0.5-1.1c-0.2-0.2-0.6-0.3-1-0.3
		h-2.2V20.8z"/>
	<path class="st2" d="M106.2,16.6h6V18h-4.5v2.8h3.9V22h-3.9v2.8h4.5v1.4h-6V16.6z"/>
	<path class="st2" d="M115.6,16.6h6V18H117v2.8h3.9V22H117v2.8h4.5v1.4h-6V16.6z"/>
	<path class="st2" d="M125,16.6h3.3c1.3,0,2.2,0.6,2.8,1.6c0.2,0.4,0.4,0.7,0.4,1.1c0,0.4,0.1,1.1,0.1,2.1c0,1,0,1.8-0.1,2.2
		c0,0.2-0.1,0.4-0.2,0.6c-0.1,0.2-0.2,0.3-0.3,0.5c-0.3,0.5-0.7,0.8-1.1,1.1c-0.5,0.3-1.1,0.5-1.8,0.5H125V16.6z M126.4,24.9h1.7
		c0.8,0,1.4-0.3,1.7-0.8c0.2-0.2,0.3-0.5,0.3-0.8c0-0.3,0.1-0.9,0.1-1.8c0-0.8,0-1.4-0.1-1.8c-0.1-0.4-0.2-0.7-0.4-0.9
		c-0.4-0.6-0.9-0.8-1.7-0.8h-1.7V24.9z"/>
	<path class="st2" d="M135.4,16.6h1.3l2.7,6.3l2.6-6.3h1.3v9.6h-1.4v-6h0l-2,4.6h-1.2l-2-4.6h0v6h-1.4V16.6z"/>
	<path class="st2" d="M152.3,24.1h-3.5l-0.7,2.2h-1.5l3.4-9.6h1.2l3.4,9.6H153L152.3,24.1z M151.9,22.8l-1.3-4.2h0l-1.3,4.2H151.9z"
		/>
	<path class="st2" d="M157.7,16.6h1.3l4.2,6.8h0v-6.8h1.4v9.6h-1.3l-4.2-6.8h0v6.8h-1.4V16.6z"/>
</g>
<g>
	<path class="st3" d="M32,32.9c0-0.3,0-0.4-0.2-0.5l-0.1,0c0,0,0-0.1,0-0.1c0.2-0.1,0.6-0.3,0.8-0.4c0,0,0.1,0,0.1,0.1
		c0,0.1,0,0.3,0,0.4c0,0.1,0,0.1,0.1,0.1c0.1,0,0.6-0.4,1.1-0.4c0.8,0,1.3,0.7,1.3,1.5c0,1.1-0.8,1.9-2,1.9c-0.1,0-0.4,0-0.4,0
		c-0.1,0-0.1,0.1-0.1,0.2v0.8c0,0.6,0,0.6,0.3,0.7l0.3,0c0.1,0,0,0.2,0,0.2c-0.4,0-0.6,0-0.9,0c-0.3,0-0.5,0-0.8,0
		c-0.1,0-0.1-0.2,0-0.2l0.2,0c0.3,0,0.3-0.1,0.3-0.7V32.9z M32.6,34.4c0,0.3,0.1,0.4,0.2,0.5C33,35,33.3,35,33.4,35
		c0.7,0,1-0.6,1-1.4c0-0.6-0.4-1.3-1.1-1.3c-0.3,0-0.6,0.1-0.7,0.2c-0.1,0.1-0.1,0.2-0.1,0.5V34.4z"/>
	<path class="st3" d="M37.3,32.9c0-0.3,0-0.4-0.2-0.5l-0.1,0c0,0,0-0.1,0-0.1c0.2-0.1,0.6-0.3,0.8-0.4c0,0,0.1,0,0.1,0.1v0.5
		c0,0,0,0.1,0,0.1c0.3-0.2,0.6-0.5,0.9-0.5c0.2,0,0.4,0.1,0.4,0.3c0,0.3-0.2,0.4-0.3,0.4c-0.1,0-0.1,0-0.2-0.1
		c-0.1-0.1-0.2-0.1-0.4-0.1c-0.1,0-0.2,0.1-0.3,0.2c-0.1,0.1-0.1,0.3-0.1,0.6v1.1c0,0.6,0,0.7,0.3,0.7l0.3,0c0.1,0,0,0.2,0,0.2
		c-0.4,0-0.6,0-0.9,0c-0.3,0-0.5,0-0.7,0c-0.1,0-0.1-0.2,0-0.2l0.2,0c0.3,0,0.3-0.1,0.3-0.7V32.9z"/>
	<path class="st3" d="M43.9,33.6c0,1-0.7,1.7-1.7,1.7c-0.9,0-1.6-0.6-1.6-1.6c0-1,0.8-1.7,1.7-1.7C43.1,31.9,43.9,32.6,43.9,33.6z
		 M42.2,32.2c-0.5,0-0.9,0.5-0.9,1.4c0,0.7,0.3,1.5,1,1.5s0.9-0.7,0.9-1.4C43.2,33,42.9,32.2,42.2,32.2z"/>
	<path class="st3" d="M46.1,32.9c0-0.3,0-0.4-0.2-0.5l-0.1,0c0,0,0-0.1,0-0.1c0.2-0.1,0.6-0.3,0.8-0.4c0,0,0.1,0,0.1,0
		c0,0.3,0,0.7,0,1v1.9c0,0.6-0.1,1-0.2,1.2c-0.2,0.6-0.7,1-1.2,1.3c-0.1,0-0.1-0.1-0.1-0.2c0.2-0.1,0.4-0.2,0.5-0.4
		c0.3-0.3,0.4-0.9,0.4-1.9V32.9z M46.7,30.6c0,0.3-0.2,0.4-0.4,0.4c-0.2,0-0.4-0.2-0.4-0.4c0-0.3,0.2-0.4,0.4-0.4
		S46.7,30.4,46.7,30.6z"/>
	<path class="st3" d="M49.5,33.1c-0.2,0-0.2,0-0.2,0.2c0,0.8,0.5,1.5,1.3,1.5c0.3,0,0.5-0.1,0.7-0.4c0.1,0,0.1,0,0.1,0.1
		c-0.3,0.5-0.8,0.7-1.3,0.7c-0.5,0-0.9-0.2-1.2-0.5c-0.2-0.3-0.3-0.7-0.3-1c0-1,0.6-1.8,1.6-1.8c0.7,0,1.1,0.5,1.1,1
		c0,0.1,0,0.2,0,0.2c0,0-0.1,0.1-0.5,0.1H49.5z M50,32.9c0.6,0,0.8,0,0.8-0.1c0,0,0,0,0-0.2c0-0.2-0.2-0.5-0.6-0.5
		c-0.5,0-0.9,0.4-0.9,0.7c0,0,0,0,0.1,0H50z"/>
	<path class="st3" d="M55.6,32.1c0.1,0.1,0.1,0.2,0.1,0.3c0,0.1-0.1,0.3-0.2,0.3c0,0-0.1,0-0.1-0.1c-0.2-0.2-0.5-0.4-0.8-0.4
		c-0.6,0-1.1,0.4-1.1,1.3c0,0.6,0.4,1.4,1.3,1.4c0.5,0,0.7-0.2,0.9-0.5c0.1,0,0.1,0,0.1,0.1c-0.3,0.6-0.9,0.8-1.3,0.8
		c-0.4,0-0.8-0.1-1.1-0.4S53,34.2,53,33.7c0-0.9,0.6-1.8,1.9-1.8C55.1,31.9,55.4,32,55.6,32.1z"/>
	<path class="st3" d="M58.5,32.4c-0.1,0-0.1,0-0.1,0.2v1.5c0,0.5,0.1,0.9,0.6,0.9c0.1,0,0.2,0,0.2,0c0.1,0,0.2-0.1,0.2-0.1
		c0.1,0,0.1,0.1,0.1,0.1c-0.1,0.2-0.4,0.4-0.8,0.4c-0.7,0-0.8-0.4-0.8-0.9v-1.8c0-0.2,0-0.2-0.2-0.2h-0.2c0,0-0.1-0.1,0-0.2
		c0.2-0.1,0.4-0.2,0.5-0.2c0.1-0.1,0.3-0.3,0.3-0.5c0,0,0.1,0,0.2,0v0.4c0,0.1,0,0.2,0.1,0.2h0.9c0.1,0.1,0.1,0.3,0,0.3H58.5z"/>
	<path class="st3" d="M62.8,32.1c0.1,0.2,0.1,0.4,0.1,0.6c0,0.1-0.2,0.1-0.2,0c-0.1-0.4-0.4-0.6-0.7-0.6c-0.3,0-0.5,0.2-0.5,0.5
		c0,0.3,0.3,0.5,0.6,0.7c0.4,0.2,0.8,0.5,0.8,1.1c0,0.6-0.6,0.9-1.2,0.9c-0.4,0-0.7-0.1-0.9-0.2c-0.1-0.2-0.1-0.5-0.1-0.8
		c0,0,0.1-0.1,0.2,0c0.1,0.4,0.4,0.8,0.8,0.8c0.3,0,0.5-0.2,0.5-0.5c0-0.4-0.3-0.6-0.6-0.7c-0.5-0.3-0.8-0.5-0.8-1
		c0-0.6,0.5-0.9,1.1-0.9C62.4,31.9,62.7,32,62.8,32.1z"/>
</g>
<g>
	<path class="st4" d="M145.2,217.7c0-0.2,0-0.3,0.1-0.5c0-0.2,0.1-0.3,0.2-0.4c0.1-0.1,0.2-0.3,0.3-0.4c0.1-0.1,0.2-0.2,0.4-0.3
		c0.1-0.1,0.3-0.1,0.4-0.2c0.2,0,0.3-0.1,0.5-0.1c0.3,0,0.5,0,0.7,0.1s0.4,0.2,0.6,0.4c0.2,0.2,0.3,0.4,0.4,0.6
		c0.1,0.2,0.1,0.5,0.1,0.7s0,0.5-0.1,0.7c-0.1,0.2-0.2,0.4-0.4,0.6c-0.2,0.2-0.4,0.3-0.6,0.4s-0.5,0.1-0.7,0.1c-0.2,0-0.3,0-0.5-0.1
		c-0.2,0-0.3-0.1-0.4-0.2c-0.1-0.1-0.3-0.2-0.4-0.3c-0.1-0.1-0.2-0.2-0.3-0.4s-0.1-0.3-0.2-0.4C145.2,218.1,145.2,217.9,145.2,217.7
		z M145.5,217.7c0,0.1,0,0.3,0.1,0.4c0,0.1,0.1,0.3,0.2,0.4c0.1,0.1,0.1,0.2,0.2,0.3c0.1,0.1,0.2,0.2,0.3,0.2
		c0.1,0.1,0.2,0.1,0.4,0.2c0.1,0,0.3,0.1,0.4,0.1c0.1,0,0.3,0,0.4-0.1c0.1,0,0.3-0.1,0.4-0.2c0.1-0.1,0.2-0.2,0.3-0.2
		c0.1-0.1,0.2-0.2,0.2-0.3s0.1-0.2,0.2-0.4s0.1-0.3,0.1-0.4s0-0.3-0.1-0.4s-0.1-0.3-0.2-0.4c-0.1-0.1-0.1-0.2-0.2-0.3
		c-0.1-0.1-0.2-0.2-0.3-0.2c-0.1-0.1-0.2-0.1-0.4-0.2c-0.1,0-0.3-0.1-0.4-0.1c-0.1,0-0.3,0-0.4,0.1c-0.1,0-0.3,0.1-0.4,0.2
		c-0.1,0.1-0.2,0.2-0.3,0.2c-0.1,0.1-0.2,0.2-0.2,0.3c-0.1,0.1-0.1,0.2-0.2,0.4C145.5,217.4,145.5,217.6,145.5,217.7z M147.7,218.3
		C147.7,218.3,147.7,218.3,147.7,218.3C147.7,218.3,147.7,218.3,147.7,218.3l0.2,0.2c-0.1,0.1-0.2,0.2-0.3,0.3
		c-0.1,0.1-0.3,0.1-0.5,0.1c-0.2,0-0.3,0-0.4-0.1c-0.1-0.1-0.2-0.1-0.3-0.2s-0.2-0.2-0.2-0.4c-0.1-0.1-0.1-0.3-0.1-0.5
		c0-0.2,0-0.3,0.1-0.5c0.1-0.1,0.1-0.3,0.2-0.4c0.1-0.1,0.2-0.2,0.4-0.2c0.1-0.1,0.3-0.1,0.5-0.1c0.2,0,0.3,0,0.5,0.1
		c0.1,0.1,0.2,0.1,0.3,0.2l-0.1,0.2c0,0,0,0,0,0c0,0,0,0-0.1,0c0,0-0.1,0-0.1,0c0,0-0.1,0-0.1-0.1s-0.1,0-0.1-0.1
		c-0.1,0-0.1,0-0.2,0c-0.1,0-0.2,0-0.3,0.1c-0.1,0-0.2,0.1-0.2,0.2s-0.1,0.1-0.1,0.2c0,0.1,0,0.2,0,0.3c0,0.1,0,0.2,0.1,0.3
		s0.1,0.2,0.1,0.2c0.1,0.1,0.1,0.1,0.2,0.2c0.1,0,0.2,0.1,0.3,0.1c0.1,0,0.2,0,0.2,0c0.1,0,0.1,0,0.1,0c0,0,0.1,0,0.1-0.1
		S147.6,218.3,147.7,218.3z"/>
	<path class="st3" d="M154.2,219.1c0.1,0,0.1,0,0.1,0c0,0,0,0.1,0,0.1v0.3H152v-0.2c0,0,0-0.1,0-0.1c0,0,0-0.1,0.1-0.1l1.1-1.1
		c0.1-0.1,0.2-0.2,0.3-0.3c0.1-0.1,0.1-0.2,0.2-0.3c0.1-0.1,0.1-0.2,0.1-0.3s0-0.2,0-0.3c0-0.1,0-0.2,0-0.3c0-0.1-0.1-0.1-0.1-0.2
		c-0.1,0-0.1-0.1-0.2-0.1c-0.1,0-0.2,0-0.2,0c-0.1,0-0.2,0-0.2,0c-0.1,0-0.1,0.1-0.2,0.1s-0.1,0.1-0.1,0.2c0,0.1-0.1,0.1-0.1,0.2
		c0,0.1-0.1,0.1-0.1,0.1c0,0-0.1,0-0.2,0l-0.3,0c0-0.2,0.1-0.3,0.1-0.4c0.1-0.1,0.2-0.2,0.3-0.3c0.1-0.1,0.2-0.2,0.4-0.2
		c0.1,0,0.3-0.1,0.4-0.1c0.2,0,0.3,0,0.4,0.1c0.1,0,0.2,0.1,0.3,0.2s0.2,0.2,0.2,0.3c0.1,0.1,0.1,0.3,0.1,0.4c0,0.1,0,0.3-0.1,0.4
		s-0.1,0.2-0.2,0.3s-0.1,0.2-0.2,0.3c-0.1,0.1-0.2,0.2-0.3,0.3l-0.9,0.9c0.1,0,0.1,0,0.2,0c0.1,0,0.1,0,0.2,0H154.2z"/>
	<path class="st3" d="M158.1,217.7c0,0.3,0,0.6-0.1,0.8c-0.1,0.2-0.2,0.4-0.3,0.6c-0.1,0.2-0.3,0.3-0.4,0.3s-0.3,0.1-0.5,0.1
		s-0.4,0-0.5-0.1s-0.3-0.2-0.4-0.3c-0.1-0.2-0.2-0.3-0.3-0.6c-0.1-0.2-0.1-0.5-0.1-0.8s0-0.6,0.1-0.8s0.2-0.4,0.3-0.6
		c0.1-0.2,0.3-0.3,0.4-0.3c0.2-0.1,0.3-0.1,0.5-0.1s0.4,0,0.5,0.1c0.2,0.1,0.3,0.2,0.4,0.3c0.1,0.2,0.2,0.3,0.3,0.6
		C158.1,217.1,158.1,217.4,158.1,217.7z M157.6,217.7c0-0.3,0-0.5-0.1-0.7s-0.1-0.3-0.2-0.4c-0.1-0.1-0.2-0.2-0.3-0.2
		s-0.2-0.1-0.3-0.1c-0.1,0-0.2,0-0.3,0.1s-0.2,0.1-0.3,0.2c-0.1,0.1-0.1,0.3-0.2,0.4c0,0.2-0.1,0.4-0.1,0.7c0,0.3,0,0.5,0.1,0.7
		c0,0.2,0.1,0.3,0.2,0.4c0.1,0.1,0.2,0.2,0.3,0.2c0.1,0,0.2,0.1,0.3,0.1c0.1,0,0.2,0,0.3-0.1c0.1,0,0.2-0.1,0.3-0.2
		c0.1-0.1,0.1-0.3,0.2-0.4S157.6,218,157.6,217.7z"/>
	<path class="st3" d="M161.5,219.2v0.4h-1.9v-0.4h0.8v-2.4c0-0.1,0-0.2,0-0.2l-0.6,0.5c0,0,0,0-0.1,0s0,0-0.1,0c0,0,0,0-0.1,0
		s0,0,0,0l-0.2-0.2l1.1-0.9h0.4v3.2H161.5z"/>
	<path class="st3" d="M163.8,217.3c0,0-0.1,0.1-0.1,0.1c0,0-0.1,0.1-0.1,0.1c0.1-0.1,0.2-0.1,0.3-0.1c0.1,0,0.2,0,0.3,0
		c0.1,0,0.3,0,0.4,0.1c0.1,0,0.2,0.1,0.3,0.2c0.1,0.1,0.2,0.2,0.2,0.3c0.1,0.1,0.1,0.3,0.1,0.5c0,0.2,0,0.3-0.1,0.5
		c-0.1,0.1-0.1,0.3-0.3,0.4c-0.1,0.1-0.2,0.2-0.4,0.2c-0.2,0.1-0.3,0.1-0.5,0.1c-0.2,0-0.3,0-0.5-0.1c-0.1-0.1-0.3-0.1-0.4-0.2
		c-0.1-0.1-0.2-0.2-0.2-0.4s-0.1-0.3-0.1-0.5c0-0.2,0-0.3,0.1-0.5c0.1-0.2,0.2-0.4,0.3-0.6l0.9-1.2c0,0,0.1-0.1,0.1-0.1
		c0,0,0.1,0,0.2,0h0.4L163.8,217.3z M164,219.2c0.1,0,0.2,0,0.3-0.1c0.1,0,0.2-0.1,0.2-0.2c0.1-0.1,0.1-0.1,0.2-0.2
		c0-0.1,0.1-0.2,0.1-0.3c0-0.1,0-0.2-0.1-0.3c0-0.1-0.1-0.2-0.1-0.2s-0.1-0.1-0.2-0.1c-0.1,0-0.2-0.1-0.3-0.1c-0.1,0-0.2,0-0.3,0.1
		c-0.1,0-0.2,0.1-0.2,0.2c-0.1,0.1-0.1,0.1-0.2,0.2c0,0.1-0.1,0.2-0.1,0.3c0,0.1,0,0.2,0,0.3c0,0.1,0.1,0.2,0.1,0.2
		c0.1,0.1,0.1,0.1,0.2,0.2C163.8,219.1,163.9,219.2,164,219.2z"/>
</g>
<g>
	<path class="st3" d="M68.3,70.9c0.2-0.1,0.2-0.2,0.2-0.3l0-0.5c0-0.4-0.1-1-0.8-1c-0.3,0-0.7,0.2-0.7,0.5c0,0.2,0,0.3-0.1,0.4
		c-0.2,0.1-0.5,0.2-0.6,0.2c-0.1,0-0.2-0.1-0.2-0.2c0-0.6,1.3-1.4,2.1-1.4c0.8,0,1.2,0.5,1.2,1.3l-0.1,1.9c0,0.5,0.1,1,0.5,1
		c0.1,0,0.2,0,0.3-0.1c0.1,0,0.1-0.1,0.1-0.1c0,0,0.1,0.1,0.1,0.1c0,0.1-0.4,0.5-0.9,0.5c-0.3,0-0.5-0.1-0.7-0.3
		c0-0.1-0.1-0.2-0.2-0.2c-0.1,0-0.2,0.1-0.4,0.2c-0.2,0.1-0.5,0.3-0.8,0.3c-0.3,0-0.6-0.1-0.8-0.3C66.2,73,66,72.7,66,72.4
		c0-0.4,0.2-0.7,0.9-0.9L68.3,70.9z M67.6,72.9c0.2,0,0.6-0.2,0.7-0.3c0.1-0.1,0.1-0.3,0.1-0.5l0-0.7c0-0.1,0-0.1-0.1-0.1
		s-0.3,0-0.5,0.1c-0.7,0.2-1,0.4-1,0.8C66.9,72.4,67,72.9,67.6,72.9z"/>
	<path class="st3" d="M76,68.9c0.1,0.2,0.2,0.6,0.2,0.9c0,0.1-0.2,0.1-0.3,0c-0.2-0.5-0.5-0.8-1-0.8c-0.4,0-0.7,0.3-0.7,0.7
		c0,0.5,0.5,0.7,0.9,0.9c0.6,0.3,1.1,0.7,1.1,1.5c0,0.8-0.8,1.3-1.6,1.3c-0.5,0-0.9-0.1-1.2-0.3c-0.1-0.2-0.2-0.8-0.1-1.1
		c0.1-0.1,0.2-0.1,0.3,0c0.2,0.6,0.5,1.1,1.2,1.1c0.4,0,0.7-0.2,0.7-0.7c0-0.5-0.4-0.8-0.9-1c-0.6-0.4-1.1-0.8-1.1-1.4
		c0-0.8,0.7-1.3,1.5-1.3C75.5,68.7,75.9,68.8,76,68.9z"/>
	<path class="st3" d="M81.6,71c0,1.4-1,2.4-2.4,2.4c-1.3,0-2.3-0.9-2.3-2.3c0-1.4,1.1-2.4,2.4-2.4C80.5,68.7,81.6,69.6,81.6,71z
		 M79.2,69c-0.7,0-1.3,0.7-1.3,1.9c0,1,0.5,2.1,1.4,2.1c1,0,1.3-1,1.3-1.9C80.6,70.2,80.2,69,79.2,69z"/>
	<path class="st3" d="M84,69.3c-0.2,0-0.2,0-0.2,0.3V72c0,0.8,0,0.9,0.4,1l0.4,0c0.1,0.1,0.1,0.2,0,0.3c-0.5,0-0.8,0-1.2,0
		c-0.4,0-0.7,0-1.1,0c-0.1,0-0.1-0.2,0-0.3l0.3,0c0.4-0.1,0.4-0.2,0.4-1v-2.4c0-0.3,0-0.3-0.2-0.3h-0.4c-0.1,0-0.1-0.1,0-0.2
		l0.5-0.2c0.1,0,0.2-0.1,0.2-0.2c0-0.6,0.1-1.3,0.3-2c0.3-0.6,0.9-1.4,2-1.4c0.6,0,1.1,0.3,1.1,0.7c0,0.2-0.2,0.4-0.4,0.4
		c-0.1,0-0.2,0-0.3-0.1c-0.2-0.2-0.5-0.5-0.9-0.5c-0.3,0-0.6,0.2-0.8,0.6c-0.2,0.5-0.2,1.3-0.2,1.9v0.3c0,0.3,0,0.3,0.2,0.3h1.3
		c0.1,0.1,0,0.4-0.1,0.5H84z"/>
	<path class="st3" d="M87.2,69.3c-0.2,0-0.2,0-0.2,0.3v2.1c0,0.6,0.1,1.2,0.8,1.2c0.1,0,0.2,0,0.3-0.1c0.1,0,0.2-0.2,0.3-0.2
		c0.1,0,0.1,0.1,0.1,0.2c-0.2,0.2-0.6,0.5-1.2,0.5c-1,0-1.2-0.5-1.2-1.2v-2.6c0-0.3,0-0.3-0.2-0.3h-0.3c-0.1,0-0.1-0.2,0-0.2
		c0.3-0.1,0.6-0.2,0.7-0.3c0.1-0.1,0.4-0.4,0.5-0.7c0.1,0,0.2,0,0.2,0.1v0.5c0,0.2,0,0.2,0.2,0.2h1.2c0.1,0.1,0.1,0.4,0,0.5H87.2z"
		/>
	<path class="st3" d="M89.4,69.9c-0.3-0.6-0.4-0.7-0.7-0.8l-0.2,0c-0.1-0.1-0.1-0.2,0-0.3c0.3,0,0.7,0,1,0c0.3,0,0.7,0,1,0
		c0.1,0,0.1,0.2,0,0.3l-0.3,0c-0.2,0-0.2,0.1-0.2,0.2c0,0.1,0.1,0.3,0.2,0.6l0.7,1.7c0.1,0.3,0.2,0.5,0.2,0.5c0,0,0.1-0.2,0.3-0.5
		l0.5-1.3c0.1-0.4,0.2-0.5,0.1-0.6c-0.1-0.2-0.3-0.3-0.5-0.4l-0.2,0c-0.1-0.1-0.1-0.2,0-0.3c0.3,0,0.6,0,0.9,0c0.3,0,0.7,0,1.1,0
		c0.1,0,0.1,0.2,0,0.3l-0.2,0c-0.4,0.1-0.4,0.1-0.3,0.5c0.1,0.4,0.7,1.8,0.8,2.1c0.1,0.2,0.1,0.3,0.1,0.3c0,0,0.1-0.1,0.2-0.3
		c0.1-0.3,0.6-1.5,0.8-2c0.1-0.3,0.1-0.4,0.1-0.5c0-0.1-0.1-0.1-0.2-0.1l-0.3,0c-0.1-0.1-0.1-0.2,0-0.3c0.3,0,0.6,0,0.9,0
		c0.2,0,0.5,0,0.7,0c0.1,0,0.1,0.2,0,0.3l-0.2,0c-0.3,0.1-0.4,0.2-0.6,0.7c-0.3,0.6-0.8,2-1,2.5c-0.2,0.4-0.3,0.7-0.4,1
		c0,0-0.1,0-0.1,0c0,0-0.1,0-0.1,0c-0.1-0.2-0.3-0.8-0.5-1.2l-0.5-1.3c-0.1-0.2-0.2-0.6-0.3-0.6c0,0-0.2,0.3-0.2,0.5l-0.6,1.4
		c-0.2,0.5-0.4,0.9-0.4,1.1c0,0-0.1,0-0.1,0c0,0-0.1,0-0.1,0c-0.1-0.2-0.2-0.7-0.3-0.9L89.4,69.9z"/>
	<path class="st3" d="M98.6,70.9c0.2-0.1,0.2-0.2,0.2-0.3l0-0.5c0-0.4-0.1-1-0.8-1c-0.3,0-0.7,0.2-0.7,0.5c0,0.2,0,0.3-0.1,0.4
		c-0.2,0.1-0.5,0.2-0.6,0.2c-0.1,0-0.2-0.1-0.2-0.2c0-0.6,1.3-1.4,2.1-1.4c0.8,0,1.2,0.5,1.2,1.3l-0.1,1.9c0,0.5,0.1,1,0.5,1
		c0.1,0,0.2,0,0.3-0.1c0.1,0,0.1-0.1,0.1-0.1c0,0,0.1,0.1,0.1,0.1c0,0.1-0.4,0.5-0.9,0.5c-0.3,0-0.5-0.1-0.7-0.3
		c0-0.1-0.1-0.2-0.2-0.2c-0.1,0-0.2,0.1-0.4,0.2c-0.2,0.1-0.5,0.3-0.8,0.3c-0.3,0-0.6-0.1-0.8-0.3c-0.2-0.2-0.3-0.5-0.3-0.8
		c0-0.4,0.2-0.7,0.9-0.9L98.6,70.9z M97.9,72.9c0.2,0,0.6-0.2,0.7-0.3c0.1-0.1,0.1-0.3,0.1-0.5l0-0.7c0-0.1,0-0.1-0.1-0.1
		c-0.1,0-0.3,0-0.5,0.1c-0.7,0.2-1,0.4-1,0.8C97.2,72.4,97.3,72.9,97.9,72.9z"/>
	<path class="st3" d="M101.5,70.1c0-0.4,0-0.5-0.3-0.7l-0.1-0.1c0,0,0-0.2,0-0.2c0.3-0.1,0.8-0.4,1.1-0.5c0.1,0,0.1,0,0.1,0.1v0.6
		c0,0.1,0,0.1,0,0.1c0.4-0.3,0.8-0.7,1.2-0.7c0.3,0,0.5,0.2,0.5,0.4c0,0.4-0.3,0.5-0.5,0.5c-0.1,0-0.2,0-0.2-0.1
		c-0.2-0.1-0.3-0.2-0.5-0.2c-0.2,0-0.3,0.1-0.4,0.2c-0.1,0.2-0.1,0.5-0.1,0.9V72c0,0.8,0,0.9,0.4,1l0.4,0c0.1,0.1,0.1,0.2,0,0.3
		c-0.5,0-0.8,0-1.2,0c-0.4,0-0.7,0-1,0c-0.1,0-0.1-0.2,0-0.3l0.2,0c0.4-0.1,0.4-0.2,0.4-1V70.1z"/>
	<path class="st3" d="M105.5,70.4c-0.3,0-0.3,0-0.3,0.3c0,1.1,0.7,2.1,1.8,2.1c0.4,0,0.7-0.1,1-0.5c0.1,0,0.2,0,0.2,0.1
		c-0.4,0.8-1.2,1-1.7,1c-0.7,0-1.3-0.3-1.6-0.7c-0.3-0.4-0.5-1-0.5-1.4c0-1.4,0.9-2.5,2.2-2.5c1,0,1.6,0.7,1.6,1.3
		c0,0.2,0,0.2,0,0.3c0,0.1-0.2,0.1-0.7,0.1H105.5z M106.2,70.1c0.8,0,1.1,0,1.2-0.1c0,0,0.1-0.1,0.1-0.2c0-0.3-0.2-0.7-0.9-0.7
		c-0.7,0-1.2,0.6-1.2,1c0,0,0,0.1,0.1,0.1H106.2z"/>
	<path class="st3" d="M112.7,70.4c-0.3,0-0.3,0-0.3,0.3c0,1.1,0.7,2.1,1.8,2.1c0.4,0,0.7-0.1,1-0.5c0.1,0,0.2,0,0.2,0.1
		c-0.4,0.8-1.2,1-1.7,1c-0.7,0-1.3-0.3-1.6-0.7c-0.3-0.4-0.5-1-0.5-1.4c0-1.4,0.9-2.5,2.2-2.5c1,0,1.6,0.7,1.6,1.3
		c0,0.2,0,0.2,0,0.3c0,0.1-0.2,0.1-0.7,0.1H112.7z M113.4,70.1c0.8,0,1.1,0,1.2-0.1c0,0,0.1-0.1,0.1-0.2c0-0.3-0.2-0.7-0.9-0.7
		c-0.7,0-1.2,0.6-1.2,1c0,0,0,0.1,0.1,0.1H113.4z"/>
	<path class="st3" d="M116.7,70.1c0-0.4,0-0.5-0.3-0.7l-0.1-0.1c0,0,0-0.2,0-0.2c0.3-0.1,0.9-0.4,1.1-0.5c0,0,0.1,0,0.1,0.1
		c0,0.3,0,0.4,0,0.5c0,0.1,0,0.1,0.1,0.1c0.5-0.3,1-0.6,1.6-0.6c0.9,0,1.3,0.6,1.3,1.4V72c0,0.8,0,0.9,0.4,1l0.2,0
		c0.1,0.1,0.1,0.2,0,0.3c-0.3,0-0.7,0-1,0c-0.4,0-0.7,0-1,0c-0.1,0-0.1-0.2,0-0.3l0.2,0c0.4-0.1,0.4-0.2,0.4-1v-1.7
		c0-0.6-0.3-1.1-1-1.1c-0.4,0-0.8,0.2-0.9,0.4c-0.1,0.2-0.2,0.3-0.2,0.7V72c0,0.8,0,0.9,0.4,1l0.2,0c0.1,0.1,0.1,0.2,0,0.3
		c-0.3,0-0.6,0-1,0c-0.4,0-0.7,0-1,0c-0.1,0-0.1-0.2,0-0.3l0.2,0c0.4-0.1,0.4-0.2,0.4-1V70.1z"/>
	<path class="st3" d="M126.5,69.1c0.1,0.1,0.1,0.4-0.1,0.5h-0.8c0,0.2,0,0.4,0,0.6c0,0.8-0.5,1.8-1.9,1.8c-0.2,0-0.4,0-0.5,0
		c-0.1,0.1-0.5,0.3-0.5,0.6c0,0.3,0.3,0.5,0.8,0.5c0.4,0,0.8,0,1.3,0c0.6,0,1.6,0.1,1.6,1.2c0,1.2-1.3,2.1-2.8,2.1
		c-1.4,0-1.8-0.7-1.8-1.3c0-0.2,0-0.3,0.1-0.4c0.2-0.2,0.5-0.5,0.8-0.7c0.1-0.1,0.2-0.2,0.1-0.3c-0.4-0.1-0.8-0.5-0.8-0.9
		c0-0.1,0-0.1,0.2-0.2c0.2-0.1,0.4-0.3,0.6-0.5c0.1-0.1,0.1-0.2,0.1-0.2c-0.4-0.2-0.8-0.6-0.8-1.3c0-1,0.8-1.7,1.8-1.7
		c0.4,0,0.8,0.1,1.1,0.2c0.4,0.2,0.4,0.2,0.7,0.2H126.5z M124.1,73.6c-0.4,0-0.8,0-1,0.1c-0.3,0.2-0.5,0.5-0.5,0.9
		c0,0.6,0.5,1.1,1.5,1.1c1,0,1.6-0.6,1.6-1.2c0-0.7-0.5-1-1.3-1H124.1z M124.8,70.4c0-0.8-0.3-1.4-1-1.4c-0.5,0-0.9,0.5-0.9,1.2
		c0,0.8,0.5,1.3,1,1.3C124.5,71.6,124.8,71.1,124.8,70.4z"/>
	<path class="st3" d="M127.5,70.1c0-0.4,0-0.5-0.3-0.7l-0.1-0.1c0,0,0-0.2,0-0.2c0.3-0.1,0.9-0.4,1.1-0.5c0.1,0,0.1,0,0.1,0.1
		c0,0.4,0,0.9,0,1.4v2c0,0.8,0,0.9,0.4,1l0.2,0c0.1,0.1,0.1,0.2,0,0.3c-0.3,0-0.7,0-1,0c-0.4,0-0.7,0-1,0c-0.1,0-0.1-0.2,0-0.3
		l0.2,0c0.4-0.1,0.4-0.2,0.4-1V70.1z M128.5,66.9c0,0.4-0.3,0.6-0.6,0.6c-0.3,0-0.6-0.3-0.6-0.6c0-0.4,0.3-0.6,0.6-0.6
		S128.5,66.6,128.5,66.9z"/>
	<path class="st3" d="M130.4,70.1c0-0.4,0-0.5-0.3-0.7l-0.1-0.1c0,0,0-0.2,0-0.2c0.3-0.1,0.9-0.4,1.1-0.5c0,0,0.1,0,0.1,0.1
		c0,0.3,0,0.4,0,0.5c0,0.1,0,0.1,0.1,0.1c0.5-0.3,1-0.6,1.6-0.6c0.9,0,1.3,0.6,1.3,1.4V72c0,0.8,0,0.9,0.4,1l0.2,0
		c0.1,0.1,0.1,0.2,0,0.3c-0.3,0-0.7,0-1,0c-0.4,0-0.7,0-1,0c-0.1,0-0.1-0.2,0-0.3l0.2,0c0.4-0.1,0.4-0.2,0.4-1v-1.7
		c0-0.6-0.3-1.1-1-1.1c-0.4,0-0.8,0.2-0.9,0.4c-0.1,0.2-0.2,0.3-0.2,0.7V72c0,0.8,0,0.9,0.4,1l0.2,0c0.1,0.1,0.1,0.2,0,0.3
		c-0.3,0-0.6,0-1,0c-0.4,0-0.7,0-1,0c-0.1,0-0.1-0.2,0-0.3l0.2,0c0.4-0.1,0.4-0.2,0.4-1V70.1z"/>
	<path class="st3" d="M136.6,70.4c-0.3,0-0.3,0-0.3,0.3c0,1.1,0.7,2.1,1.8,2.1c0.4,0,0.7-0.1,1-0.5c0.1,0,0.2,0,0.2,0.1
		c-0.4,0.8-1.2,1-1.7,1c-0.7,0-1.3-0.3-1.6-0.7c-0.3-0.4-0.5-1-0.5-1.4c0-1.4,0.9-2.5,2.2-2.5c1,0,1.6,0.7,1.6,1.3
		c0,0.2,0,0.2,0,0.3c0,0.1-0.2,0.1-0.7,0.1H136.6z M137.3,70.1c0.8,0,1.1,0,1.2-0.1c0,0,0.1-0.1,0.1-0.2c0-0.3-0.2-0.7-0.9-0.7
		c-0.7,0-1.2,0.6-1.2,1c0,0,0,0.1,0.1,0.1H137.3z"/>
	<path class="st3" d="M141,70.4c-0.3,0-0.3,0-0.3,0.3c0,1.1,0.7,2.1,1.8,2.1c0.4,0,0.7-0.1,1-0.5c0.1,0,0.2,0,0.2,0.1
		c-0.4,0.8-1.2,1-1.7,1c-0.7,0-1.3-0.3-1.6-0.7c-0.3-0.4-0.5-1-0.5-1.4c0-1.4,0.9-2.5,2.2-2.5c1,0,1.6,0.7,1.6,1.3
		c0,0.2,0,0.2,0,0.3c0,0.1-0.2,0.1-0.7,0.1H141z M141.7,70.1c0.8,0,1.1,0,1.2-0.1c0,0,0.1-0.1,0.1-0.2c0-0.3-0.2-0.7-0.9-0.7
		c-0.7,0-1.2,0.6-1.2,1c0,0,0,0.1,0.1,0.1H141.7z"/>
	<path class="st3" d="M145.1,70.1c0-0.4,0-0.5-0.3-0.7l-0.1-0.1c0,0,0-0.2,0-0.2c0.3-0.1,0.8-0.4,1.1-0.5c0.1,0,0.1,0,0.1,0.1v0.6
		c0,0.1,0,0.1,0,0.1c0.4-0.3,0.8-0.7,1.2-0.7c0.3,0,0.5,0.2,0.5,0.4c0,0.4-0.3,0.5-0.5,0.5c-0.1,0-0.2,0-0.2-0.1
		c-0.2-0.1-0.3-0.2-0.5-0.2c-0.2,0-0.3,0.1-0.4,0.2c-0.1,0.2-0.1,0.5-0.1,0.9V72c0,0.8,0,0.9,0.4,1l0.4,0c0.1,0.1,0.1,0.2,0,0.3
		c-0.5,0-0.8,0-1.2,0c-0.4,0-0.7,0-1,0c-0.1,0-0.1-0.2,0-0.3l0.2,0c0.4-0.1,0.4-0.2,0.4-1V70.1z"/>
	<path class="st3" d="M68.3,86.7c0.2-0.1,0.2-0.2,0.2-0.3l0-0.5c0-0.4-0.1-1-0.8-1c-0.3,0-0.7,0.2-0.7,0.5c0,0.2,0,0.3-0.1,0.4
		c-0.2,0.1-0.5,0.2-0.6,0.2c-0.1,0-0.2-0.1-0.2-0.2c0-0.6,1.3-1.4,2.1-1.4c0.8,0,1.2,0.5,1.2,1.3l-0.1,1.9c0,0.5,0.1,1,0.5,1
		c0.1,0,0.2,0,0.3-0.1c0.1,0,0.1-0.1,0.1-0.1c0,0,0.1,0.1,0.1,0.1c0,0.1-0.4,0.5-0.9,0.5c-0.3,0-0.5-0.1-0.7-0.3
		c0-0.1-0.1-0.2-0.2-0.2c-0.1,0-0.2,0.1-0.4,0.2c-0.2,0.1-0.5,0.3-0.8,0.3c-0.3,0-0.6-0.1-0.8-0.3c-0.2-0.2-0.3-0.5-0.3-0.8
		c0-0.4,0.2-0.7,0.9-0.9L68.3,86.7z M67.6,88.7c0.2,0,0.6-0.2,0.7-0.3c0.1-0.1,0.1-0.3,0.1-0.5l0-0.7c0-0.1,0-0.1-0.1-0.1
		s-0.3,0-0.5,0.1c-0.7,0.2-1,0.4-1,0.8C66.9,88.2,67,88.7,67.6,88.7z"/>
	<path class="st3" d="M79.9,86.2c0-0.8-0.3-1.1-1-1.1c-0.4,0-0.8,0.2-0.9,0.4c-0.1,0.2-0.2,0.3-0.2,0.7v1.7c0,0.8,0,0.9,0.4,1l0.2,0
		c0.1,0.1,0.1,0.2,0,0.3c-0.3,0-0.7,0-1,0c-0.4,0-0.7,0-1,0c-0.1,0-0.1-0.2,0-0.3l0.2,0c0.4-0.1,0.4-0.2,0.4-1v-1.6
		c0-0.7-0.3-1.1-1-1.1c-0.5,0-0.8,0.2-0.9,0.4c-0.1,0.1-0.2,0.3-0.2,0.6v1.7c0,0.8,0,0.9,0.4,1l0.2,0c0.1,0.1,0.1,0.2,0,0.3
		c-0.3,0-0.6,0-1,0c-0.4,0-0.7,0-1.1,0c-0.1,0-0.1-0.2,0-0.3l0.3,0c0.4-0.1,0.4-0.2,0.4-1v-1.9c0-0.4,0-0.5-0.3-0.7l-0.1-0.1
		c0,0,0-0.2,0-0.2c0.3-0.1,0.9-0.4,1.1-0.5c0,0,0.1,0,0.1,0.1c0,0.3,0,0.4,0,0.5c0,0.1,0,0.1,0.1,0.1c0.4-0.3,0.9-0.6,1.5-0.6
		c0.6,0,0.9,0.2,1.2,0.7c0.1,0,0.2,0,0.3-0.1c0.4-0.3,1-0.6,1.5-0.6c0.9,0,1.3,0.6,1.3,1.4v1.9c0,0.8,0,0.9,0.4,1l0.3,0
		c0.1,0.1,0.1,0.2,0,0.3c-0.4,0-0.7,0-1.1,0c-0.4,0-0.7,0-1,0c-0.1,0-0.1-0.2,0-0.3l0.2,0c0.4-0.1,0.4-0.2,0.4-1V86.2z"/>
	<path class="st3" d="M83.5,87.4c0,0.8,0.2,1.3,1,1.3c0.3,0,0.7-0.1,0.9-0.3c0.1-0.1,0.2-0.3,0.2-0.6v-1.8c0-0.7-0.1-0.7-0.4-0.9
		l-0.1-0.1c-0.1,0-0.1-0.2,0-0.2c0.4,0,1.1-0.1,1.3-0.2c0.1,0,0.1,0,0.1,0.1c0,0.2,0,0.6,0,1v1.9c0,0.9,0,1.2,0.3,1.2
		c0.1,0,0.3,0,0.4-0.1c0.1,0.1,0.1,0.3,0,0.3c-0.4,0.1-1.1,0.2-1.5,0.4c-0.1,0-0.1,0-0.1-0.1v-0.5c0-0.1,0-0.2-0.1-0.2
		c-0.3,0.2-0.9,0.6-1.5,0.6c-1,0-1.3-0.5-1.3-1.4v-1.9c0-0.7,0-0.8-0.3-0.9l-0.1-0.1c-0.1-0.1-0.1-0.2,0-0.2c0.5,0,0.9-0.1,1.2-0.2
		c0.1,0,0.1,0,0.1,0.1c0,0.2,0,0.4,0,1V87.4z"/>
	<path class="st3" d="M90.5,84.7c0.1,0.2,0.2,0.6,0.2,0.9c0,0.1-0.2,0.1-0.3,0c-0.2-0.5-0.5-0.8-1-0.8c-0.4,0-0.7,0.3-0.7,0.7
		c0,0.5,0.5,0.7,0.9,0.9c0.6,0.3,1.1,0.7,1.1,1.5c0,0.8-0.8,1.3-1.6,1.3c-0.5,0-0.9-0.1-1.2-0.3c-0.1-0.2-0.2-0.8-0.1-1.1
		c0.1-0.1,0.2-0.1,0.3,0c0.2,0.6,0.5,1.1,1.2,1.1c0.4,0,0.7-0.2,0.7-0.7c0-0.5-0.4-0.8-0.9-1c-0.6-0.4-1.1-0.8-1.1-1.4
		c0-0.8,0.7-1.3,1.5-1.3C89.9,84.5,90.4,84.6,90.5,84.7z"/>
	<path class="st3" d="M92.1,85.8c0-0.4,0-0.5-0.3-0.7l-0.1-0.1c0,0,0-0.2,0-0.2c0.3-0.1,0.9-0.4,1.1-0.5c0.1,0,0.1,0,0.1,0.1
		c0,0.4,0,0.9,0,1.4v2c0,0.8,0,0.9,0.4,1l0.2,0c0.1,0.1,0.1,0.2,0,0.3c-0.3,0-0.7,0-1,0c-0.4,0-0.7,0-1,0c-0.1,0-0.1-0.2,0-0.3
		l0.2,0c0.4-0.1,0.4-0.2,0.4-1V85.8z M93,82.7c0,0.4-0.3,0.6-0.6,0.6c-0.3,0-0.6-0.3-0.6-0.6c0-0.4,0.3-0.6,0.6-0.6S93,82.3,93,82.7
		z"/>
	<path class="st3" d="M98,84.7c0.1,0.1,0.2,0.3,0.2,0.4c0,0.2-0.1,0.4-0.2,0.4c-0.1,0-0.1,0-0.2-0.1c-0.2-0.3-0.7-0.6-1.1-0.6
		c-0.8,0-1.5,0.6-1.5,1.8c0,0.9,0.6,1.9,1.8,1.9c0.6,0,1-0.3,1.2-0.7c0.1,0,0.2,0.1,0.2,0.2c-0.4,0.8-1.2,1.1-1.9,1.1
		c-0.6,0-1.1-0.2-1.5-0.6s-0.6-0.9-0.6-1.6c0-1.2,0.8-2.5,2.7-2.5C97.2,84.5,97.7,84.5,98,84.7z"/>
	<path class="st3" d="M105.2,84.7c0.1,0.1,0.2,0.3,0.2,0.4c0,0.2-0.1,0.4-0.2,0.4c-0.1,0-0.1,0-0.2-0.1c-0.2-0.3-0.7-0.6-1.1-0.6
		c-0.8,0-1.5,0.6-1.5,1.8c0,0.9,0.6,1.9,1.8,1.9c0.6,0,1-0.3,1.2-0.7c0.1,0,0.2,0.1,0.2,0.2c-0.4,0.8-1.2,1.1-1.9,1.1
		c-0.6,0-1.1-0.2-1.5-0.6s-0.6-0.9-0.6-1.6c0-1.2,0.8-2.5,2.7-2.5C104.5,84.5,104.9,84.5,105.2,84.7z"/>
	<path class="st3" d="M110.6,86.8c0,1.4-1,2.4-2.4,2.4c-1.3,0-2.3-0.9-2.3-2.3c0-1.4,1.1-2.4,2.4-2.4
		C109.6,84.5,110.6,85.4,110.6,86.8z M108.2,84.8c-0.7,0-1.3,0.7-1.3,1.9c0,1,0.5,2.1,1.4,2.1c1,0,1.3-1,1.3-1.9
		C109.6,86,109.2,84.8,108.2,84.8z"/>
	<path class="st3" d="M118,86.2c0-0.8-0.3-1.1-1-1.1c-0.4,0-0.8,0.2-0.9,0.4c-0.1,0.2-0.2,0.3-0.2,0.7v1.7c0,0.8,0,0.9,0.4,1l0.2,0
		c0.1,0.1,0.1,0.2,0,0.3c-0.3,0-0.7,0-1,0c-0.4,0-0.7,0-1,0c-0.1,0-0.1-0.2,0-0.3l0.2,0c0.4-0.1,0.4-0.2,0.4-1v-1.6
		c0-0.7-0.3-1.1-1-1.1c-0.5,0-0.8,0.2-0.9,0.4c-0.1,0.1-0.2,0.3-0.2,0.6v1.7c0,0.8,0,0.9,0.4,1l0.2,0c0.1,0.1,0.1,0.2,0,0.3
		c-0.3,0-0.6,0-1,0c-0.4,0-0.7,0-1.1,0c-0.1,0-0.1-0.2,0-0.3l0.3,0c0.4-0.1,0.4-0.2,0.4-1v-1.9c0-0.4,0-0.5-0.3-0.7l-0.1-0.1
		c0,0,0-0.2,0-0.2c0.3-0.1,0.9-0.4,1.1-0.5c0,0,0.1,0,0.1,0.1c0,0.3,0,0.4,0,0.5c0,0.1,0,0.1,0.1,0.1c0.4-0.3,0.9-0.6,1.5-0.6
		c0.6,0,0.9,0.2,1.2,0.7c0.1,0,0.2,0,0.3-0.1c0.4-0.3,1-0.6,1.5-0.6c0.9,0,1.3,0.6,1.3,1.4v1.9c0,0.8,0,0.9,0.4,1l0.3,0
		c0.1,0.1,0.1,0.2,0,0.3c-0.4,0-0.7,0-1.1,0c-0.4,0-0.7,0-1,0c-0.1,0-0.1-0.2,0-0.3l0.2,0c0.4-0.1,0.4-0.2,0.4-1V86.2z"/>
	<path class="st3" d="M120.7,85.8c0-0.4,0-0.5-0.3-0.7l-0.1-0.1c0,0,0-0.2,0-0.2c0.3-0.1,0.8-0.4,1.1-0.6c0.1,0,0.1,0,0.1,0.1
		c0,0.2,0,0.4,0,0.5c0,0.1,0,0.1,0.1,0.1c0.1-0.1,0.8-0.5,1.6-0.5c1.1,0,1.8,0.9,1.8,2c0,1.5-1.1,2.7-2.7,2.7c-0.2,0-0.5,0-0.6,0
		c-0.1,0-0.2,0.1-0.2,0.3v1.2c0,0.8,0,0.9,0.4,0.9l0.4,0.1c0.1,0.1,0.1,0.2,0,0.3c-0.5,0-0.9,0-1.2,0c-0.4,0-0.7,0-1,0
		c-0.1,0-0.1-0.2,0-0.3l0.2,0c0.4-0.1,0.4-0.2,0.4-1V85.8z M121.5,87.9c0,0.4,0.1,0.5,0.3,0.7c0.2,0.2,0.6,0.2,0.8,0.2
		c0.9,0,1.4-0.8,1.4-2c0-0.9-0.5-1.8-1.5-1.8c-0.5,0-0.8,0.2-0.9,0.3c-0.1,0.1-0.1,0.3-0.1,0.7V87.9z"/>
	<path class="st3" d="M130.4,86.8c0,1.4-1,2.4-2.3,2.4c-1.3,0-2.3-0.9-2.3-2.3c0-1.4,1.1-2.4,2.4-2.4
		C129.4,84.5,130.4,85.4,130.4,86.8z M128,84.8c-0.7,0-1.3,0.7-1.3,1.9c0,1,0.5,2.1,1.4,2.1c1,0,1.3-1,1.3-1.9
		C129.4,86,129.1,84.8,128,84.8z"/>
	<path class="st3" d="M133.8,84.7c0.1,0.2,0.2,0.6,0.2,0.9c0,0.1-0.2,0.1-0.3,0c-0.2-0.5-0.5-0.8-1-0.8c-0.4,0-0.7,0.3-0.7,0.7
		c0,0.5,0.5,0.7,0.9,0.9c0.6,0.3,1.1,0.7,1.1,1.5c0,0.8-0.8,1.3-1.6,1.3c-0.5,0-0.9-0.1-1.2-0.3c-0.1-0.2-0.2-0.8-0.1-1.1
		c0.1-0.1,0.2-0.1,0.3,0c0.2,0.6,0.5,1.1,1.2,1.1c0.4,0,0.7-0.2,0.7-0.7c0-0.5-0.4-0.8-0.9-1c-0.6-0.4-1.1-0.8-1.1-1.4
		c0-0.8,0.7-1.3,1.5-1.3C133.3,84.5,133.7,84.6,133.8,84.7z"/>
	<path class="st3" d="M135.8,86.2c-0.3,0-0.3,0-0.3,0.3c0,1.1,0.7,2.1,1.8,2.1c0.4,0,0.7-0.1,1-0.5c0.1,0,0.2,0,0.2,0.1
		c-0.4,0.8-1.2,1-1.7,1c-0.7,0-1.3-0.3-1.6-0.7c-0.3-0.4-0.5-1-0.5-1.4c0-1.4,0.9-2.5,2.2-2.5c1,0,1.6,0.7,1.6,1.3
		c0,0.2,0,0.2,0,0.3c0,0.1-0.2,0.1-0.7,0.1H135.8z M136.5,85.8c0.8,0,1.1,0,1.2-0.1c0,0,0.1-0.1,0.1-0.2c0-0.3-0.2-0.7-0.9-0.7
		c-0.7,0-1.2,0.6-1.2,1c0,0,0,0.1,0.1,0.1H136.5z"/>
	<path class="st3" d="M139.9,85.8c0-0.4,0-0.5-0.3-0.7l-0.1-0.1c0,0,0-0.2,0-0.2c0.3-0.1,0.8-0.4,1.1-0.5c0.1,0,0.1,0,0.1,0.1v0.6
		c0,0.1,0,0.1,0,0.1c0.4-0.3,0.8-0.7,1.2-0.7c0.3,0,0.5,0.2,0.5,0.4c0,0.4-0.3,0.5-0.5,0.5c-0.1,0-0.2,0-0.2-0.1
		c-0.2-0.1-0.3-0.2-0.5-0.2c-0.2,0-0.3,0.1-0.4,0.2c-0.1,0.2-0.1,0.5-0.1,0.9v1.5c0,0.8,0,0.9,0.4,1l0.4,0c0.1,0.1,0.1,0.2,0,0.3
		c-0.5,0-0.8,0-1.2,0c-0.4,0-0.7,0-1,0c-0.1,0-0.1-0.2,0-0.3l0.2,0c0.4-0.1,0.4-0.2,0.4-1V85.8z"/>
	<path class="st3" d="M68.3,102.5c0.2-0.1,0.2-0.2,0.2-0.3l0-0.5c0-0.4-0.1-1-0.8-1c-0.3,0-0.7,0.2-0.7,0.5c0,0.2,0,0.3-0.1,0.4
		c-0.2,0.1-0.5,0.2-0.6,0.2c-0.1,0-0.2-0.1-0.2-0.2c0-0.6,1.3-1.4,2.1-1.4c0.8,0,1.2,0.5,1.2,1.3l-0.1,1.9c0,0.5,0.1,1,0.5,1
		c0.1,0,0.2,0,0.3-0.1c0.1,0,0.1-0.1,0.1-0.1c0,0,0.1,0.1,0.1,0.1c0,0.1-0.4,0.5-0.9,0.5c-0.3,0-0.5-0.1-0.7-0.3
		c0-0.1-0.1-0.2-0.2-0.2c-0.1,0-0.2,0.1-0.4,0.2c-0.2,0.1-0.5,0.3-0.8,0.3c-0.3,0-0.6-0.1-0.8-0.3c-0.2-0.2-0.3-0.5-0.3-0.8
		c0-0.4,0.2-0.7,0.9-0.9L68.3,102.5z M67.6,104.5c0.2,0,0.6-0.2,0.7-0.3c0.1-0.1,0.1-0.3,0.1-0.5l0-0.7c0-0.1,0-0.1-0.1-0.1
		s-0.3,0-0.5,0.1c-0.7,0.2-1,0.4-1,0.8C66.9,104,67,104.5,67.6,104.5z"/>
	<path class="st3" d="M77,100.5c0.1,0.1,0.2,0.3,0.2,0.4c0,0.2-0.1,0.4-0.2,0.4c-0.1,0-0.1,0-0.2-0.1c-0.2-0.3-0.7-0.6-1.1-0.6
		c-0.8,0-1.5,0.6-1.5,1.8c0,0.9,0.6,1.9,1.8,1.9c0.6,0,1-0.3,1.2-0.7c0.1,0,0.2,0.1,0.2,0.2c-0.4,0.8-1.2,1.1-1.9,1.1
		c-0.6,0-1.1-0.2-1.5-0.6c-0.4-0.4-0.6-0.9-0.6-1.6c0-1.2,0.8-2.5,2.7-2.5C76.3,100.3,76.7,100.3,77,100.5z"/>
	<path class="st3" d="M78.5,101.6c0-0.4,0-0.5-0.3-0.7l-0.1-0.1c0,0,0-0.2,0-0.2c0.3-0.1,0.8-0.4,1.1-0.5c0.1,0,0.1,0,0.1,0.1v0.6
		c0,0.1,0,0.1,0,0.1c0.4-0.3,0.8-0.7,1.2-0.7c0.3,0,0.5,0.2,0.5,0.4c0,0.4-0.3,0.5-0.5,0.5c-0.1,0-0.2,0-0.2-0.1
		c-0.2-0.1-0.3-0.2-0.5-0.2c-0.2,0-0.3,0.1-0.4,0.2c-0.1,0.2-0.1,0.5-0.1,0.9v1.5c0,0.8,0,0.9,0.4,1l0.4,0c0.1,0.1,0.1,0.2,0,0.3
		c-0.5,0-0.8,0-1.2,0c-0.4,0-0.7,0-1,0c-0.1,0-0.1-0.2,0-0.3l0.2,0c0.4-0.1,0.4-0.2,0.4-1V101.6z"/>
	<path class="st3" d="M82.4,102c-0.3,0-0.3,0-0.3,0.3c0,1.1,0.7,2.1,1.8,2.1c0.4,0,0.7-0.1,1-0.5c0.1,0,0.2,0,0.2,0.1
		c-0.4,0.8-1.2,1-1.7,1c-0.7,0-1.3-0.3-1.6-0.7c-0.3-0.4-0.5-1-0.5-1.4c0-1.4,0.9-2.5,2.2-2.5c1,0,1.6,0.7,1.6,1.3
		c0,0.2,0,0.2,0,0.3c0,0.1-0.2,0.1-0.7,0.1H82.4z M83.1,101.6c0.8,0,1.1,0,1.2-0.1c0,0,0.1-0.1,0.1-0.2c0-0.3-0.2-0.7-0.9-0.7
		c-0.7,0-1.2,0.6-1.2,1c0,0,0,0.1,0.1,0.1H83.1z"/>
	<path class="st3" d="M88,102.5c0.2-0.1,0.2-0.2,0.2-0.3l0-0.5c0-0.4-0.1-1-0.8-1c-0.3,0-0.7,0.2-0.7,0.5c0,0.2,0,0.3-0.1,0.4
		c-0.2,0.1-0.5,0.2-0.6,0.2c-0.1,0-0.2-0.1-0.2-0.2c0-0.6,1.3-1.4,2.1-1.4c0.8,0,1.2,0.5,1.2,1.3l-0.1,1.9c0,0.5,0.1,1,0.5,1
		c0.1,0,0.2,0,0.3-0.1c0.1,0,0.1-0.1,0.1-0.1c0,0,0.1,0.1,0.1,0.1c0,0.1-0.4,0.5-0.9,0.5c-0.3,0-0.5-0.1-0.7-0.3
		c0-0.1-0.1-0.2-0.2-0.2c-0.1,0-0.2,0.1-0.4,0.2c-0.2,0.1-0.5,0.3-0.8,0.3c-0.3,0-0.6-0.1-0.8-0.3c-0.2-0.2-0.3-0.5-0.3-0.8
		c0-0.4,0.2-0.7,0.9-0.9L88,102.5z M87.3,104.5c0.2,0,0.6-0.2,0.7-0.3c0.1-0.1,0.1-0.3,0.1-0.5l0-0.7c0-0.1,0-0.1-0.1-0.1
		s-0.3,0-0.5,0.1c-0.7,0.2-1,0.4-1,0.8C86.6,104,86.8,104.5,87.3,104.5z"/>
	<path class="st3" d="M91.9,100.9c-0.2,0-0.2,0-0.2,0.3v2.1c0,0.6,0.1,1.2,0.8,1.2c0.1,0,0.2,0,0.3-0.1c0.1,0,0.2-0.2,0.3-0.2
		c0.1,0,0.1,0.1,0.1,0.2c-0.2,0.2-0.6,0.5-1.2,0.5c-1,0-1.2-0.5-1.2-1.2v-2.6c0-0.3,0-0.3-0.2-0.3h-0.3c-0.1,0-0.1-0.2,0-0.2
		c0.3-0.1,0.6-0.2,0.7-0.3c0.1-0.1,0.4-0.4,0.5-0.7c0.1,0,0.2,0,0.2,0.1v0.5c0,0.2,0,0.2,0.2,0.2h1.2c0.1,0.1,0.1,0.4,0,0.5H91.9z"
		/>
	<path class="st3" d="M94.4,101.6c0-0.4,0-0.5-0.3-0.7l-0.1-0.1c0,0,0-0.2,0-0.2c0.3-0.1,0.9-0.4,1.1-0.5c0.1,0,0.1,0,0.1,0.1
		c0,0.4,0,0.9,0,1.4v2c0,0.8,0,0.9,0.4,1l0.2,0c0.1,0.1,0.1,0.2,0,0.3c-0.3,0-0.7,0-1,0c-0.4,0-0.7,0-1,0c-0.1,0-0.1-0.2,0-0.3
		l0.2,0c0.4-0.1,0.4-0.2,0.4-1V101.6z M95.3,98.4c0,0.4-0.3,0.6-0.6,0.6c-0.3,0-0.6-0.3-0.6-0.6c0-0.4,0.3-0.6,0.6-0.6
		S95.3,98.1,95.3,98.4z"/>
	<path class="st3" d="M97.1,101.5c-0.2-0.4-0.3-0.8-0.7-0.8l-0.2,0c-0.1-0.1-0.1-0.2,0-0.3c0.3,0,0.7,0,1,0c0.3,0,0.5,0,0.9,0
		c0.1,0,0.1,0.2,0,0.3l-0.1,0c-0.3,0.1-0.4,0.1-0.2,0.4c0.3,0.8,0.6,1.5,0.8,2.1c0.1,0.2,0.1,0.3,0.2,0.4c0,0,0.1-0.2,0.2-0.4
		c0.1-0.4,0.5-1.3,0.6-1.6c0.2-0.4,0.2-0.6,0.2-0.7c0-0.1-0.1-0.1-0.2-0.2l-0.3,0c-0.1-0.1-0.1-0.2,0-0.3c0.3,0,0.6,0,0.8,0
		c0.3,0,0.5,0,0.8,0c0.1,0,0.1,0.2,0,0.3l-0.2,0c-0.4,0.1-0.5,0.3-0.8,1c-0.2,0.3-0.8,1.9-1,2.4c-0.1,0.3-0.2,0.5-0.4,0.9
		c0,0-0.1,0-0.1,0c-0.1,0-0.1,0-0.1,0c-0.1-0.3-0.3-0.7-0.4-1.2L97.1,101.5z"/>
	<path class="st3" d="M102.4,102c-0.3,0-0.3,0-0.3,0.3c0,1.1,0.7,2.1,1.8,2.1c0.4,0,0.7-0.1,1-0.5c0.1,0,0.2,0,0.2,0.1
		c-0.4,0.8-1.2,1-1.7,1c-0.7,0-1.3-0.3-1.6-0.7c-0.3-0.4-0.5-1-0.5-1.4c0-1.4,0.9-2.5,2.2-2.5c1,0,1.6,0.7,1.6,1.3
		c0,0.2,0,0.2,0,0.3c0,0.1-0.2,0.1-0.7,0.1H102.4z M103.1,101.6c0.8,0,1.1,0,1.2-0.1c0,0,0.1-0.1,0.1-0.2c0-0.3-0.2-0.7-0.9-0.7
		c-0.7,0-1.2,0.6-1.2,1c0,0,0,0.1,0.1,0.1H103.1z"/>
	<path class="st3" d="M108.9,101.5c-0.3-0.6-0.4-0.7-0.7-0.8l-0.2,0c-0.1-0.1-0.1-0.2,0-0.3c0.3,0,0.7,0,1,0c0.3,0,0.7,0,1,0
		c0.1,0,0.1,0.2,0,0.3l-0.3,0c-0.2,0-0.2,0.1-0.2,0.2c0,0.1,0.1,0.3,0.2,0.6l0.7,1.7c0.1,0.3,0.2,0.5,0.2,0.5c0,0,0.1-0.2,0.3-0.5
		l0.5-1.3c0.1-0.4,0.2-0.5,0.1-0.6c-0.1-0.2-0.3-0.3-0.5-0.4l-0.2,0c-0.1-0.1-0.1-0.2,0-0.3c0.3,0,0.6,0,0.9,0c0.3,0,0.7,0,1.1,0
		c0.1,0,0.1,0.2,0,0.3l-0.2,0c-0.4,0.1-0.4,0.1-0.3,0.5c0.1,0.4,0.7,1.8,0.8,2.1c0.1,0.2,0.1,0.3,0.1,0.3c0,0,0.1-0.1,0.2-0.3
		c0.1-0.3,0.6-1.5,0.8-2c0.1-0.3,0.1-0.4,0.1-0.5c0-0.1-0.1-0.1-0.2-0.1l-0.3,0c-0.1-0.1-0.1-0.2,0-0.3c0.3,0,0.6,0,0.9,0
		c0.2,0,0.5,0,0.7,0c0.1,0,0.1,0.2,0,0.3l-0.2,0c-0.3,0.1-0.4,0.2-0.6,0.7c-0.3,0.6-0.8,2-1,2.5c-0.2,0.4-0.3,0.7-0.4,1
		c0,0-0.1,0-0.1,0c0,0-0.1,0-0.1,0c-0.1-0.2-0.3-0.8-0.5-1.2l-0.5-1.3c-0.1-0.2-0.2-0.6-0.3-0.6s-0.2,0.3-0.2,0.5l-0.6,1.4
		c-0.2,0.5-0.4,0.9-0.4,1.1c0,0-0.1,0-0.1,0c0,0-0.1,0-0.1,0c-0.1-0.2-0.2-0.7-0.3-0.9L108.9,101.5z"/>
	<path class="st3" d="M116.6,101.6c0-0.4,0-0.5-0.3-0.7l-0.1-0.1c0,0,0-0.2,0-0.2c0.3-0.1,0.8-0.4,1.1-0.5c0.1,0,0.1,0,0.1,0.1v0.6
		c0,0.1,0,0.1,0,0.1c0.4-0.3,0.8-0.7,1.2-0.7c0.3,0,0.5,0.2,0.5,0.4c0,0.4-0.3,0.5-0.5,0.5c-0.1,0-0.2,0-0.2-0.1
		c-0.2-0.1-0.3-0.2-0.5-0.2c-0.2,0-0.3,0.1-0.4,0.2c-0.1,0.2-0.1,0.5-0.1,0.9v1.5c0,0.8,0,0.9,0.4,1l0.4,0c0.1,0.1,0.1,0.2,0,0.3
		c-0.5,0-0.8,0-1.2,0c-0.4,0-0.7,0-1,0c-0.1,0-0.1-0.2,0-0.3l0.2,0c0.4-0.1,0.4-0.2,0.4-1V101.6z"/>
	<path class="st3" d="M120.2,101.6c0-0.4,0-0.5-0.3-0.7l-0.1-0.1c0,0,0-0.2,0-0.2c0.3-0.1,0.9-0.4,1.1-0.5c0.1,0,0.1,0,0.1,0.1
		c0,0.4,0,0.9,0,1.4v2c0,0.8,0,0.9,0.4,1l0.2,0c0.1,0.1,0.1,0.2,0,0.3c-0.3,0-0.7,0-1,0c-0.4,0-0.7,0-1,0c-0.1,0-0.1-0.2,0-0.3
		l0.2,0c0.4-0.1,0.4-0.2,0.4-1V101.6z M121.2,98.4c0,0.4-0.3,0.6-0.6,0.6c-0.3,0-0.6-0.3-0.6-0.6c0-0.4,0.3-0.6,0.6-0.6
		S121.2,98.1,121.2,98.4z"/>
	<path class="st3" d="M124,100.9c-0.2,0-0.2,0-0.2,0.3v2.1c0,0.6,0.1,1.2,0.8,1.2c0.1,0,0.2,0,0.3-0.1c0.1,0,0.2-0.2,0.3-0.2
		c0.1,0,0.1,0.1,0.1,0.2c-0.2,0.2-0.6,0.5-1.2,0.5c-1,0-1.2-0.5-1.2-1.2v-2.6c0-0.3,0-0.3-0.2-0.3h-0.3c-0.1,0-0.1-0.2,0-0.2
		c0.3-0.1,0.6-0.2,0.7-0.3c0.1-0.1,0.4-0.4,0.5-0.7c0.1,0,0.2,0,0.2,0.1v0.5c0,0.2,0,0.2,0.2,0.2h1.2c0.1,0.1,0.1,0.4,0,0.5H124z"/>
	<path class="st3" d="M126.9,102c-0.3,0-0.3,0-0.3,0.3c0,1.1,0.7,2.1,1.8,2.1c0.4,0,0.7-0.1,1-0.5c0.1,0,0.2,0,0.2,0.1
		c-0.4,0.8-1.2,1-1.7,1c-0.7,0-1.3-0.3-1.6-0.7c-0.3-0.4-0.5-1-0.5-1.4c0-1.4,0.9-2.5,2.2-2.5c1,0,1.6,0.7,1.6,1.3
		c0,0.2,0,0.2,0,0.3c0,0.1-0.2,0.1-0.7,0.1H126.9z M127.6,101.6c0.8,0,1.1,0,1.2-0.1c0,0,0.1-0.1,0.1-0.2c0-0.3-0.2-0.7-0.9-0.7
		c-0.7,0-1.2,0.6-1.2,1c0,0,0,0.1,0.1,0.1H127.6z"/>
	<path class="st3" d="M130.9,101.6c0-0.4,0-0.5-0.3-0.7l-0.1-0.1c0,0,0-0.2,0-0.2c0.3-0.1,0.8-0.4,1.1-0.5c0.1,0,0.1,0,0.1,0.1v0.6
		c0,0.1,0,0.1,0,0.1c0.4-0.3,0.8-0.7,1.2-0.7c0.3,0,0.5,0.2,0.5,0.4c0,0.4-0.3,0.5-0.5,0.5c-0.1,0-0.2,0-0.2-0.1
		c-0.2-0.1-0.3-0.2-0.5-0.2c-0.2,0-0.3,0.1-0.4,0.2c-0.1,0.2-0.1,0.5-0.1,0.9v1.5c0,0.8,0,0.9,0.4,1l0.4,0c0.1,0.1,0.1,0.2,0,0.3
		c-0.5,0-0.8,0-1.2,0c-0.4,0-0.7,0-1,0c-0.1,0-0.1-0.2,0-0.3l0.2,0c0.4-0.1,0.4-0.2,0.4-1V101.6z"/>
	<path class="st3" d="M68.3,118.3c0.2-0.1,0.2-0.2,0.2-0.3l0-0.5c0-0.4-0.1-1-0.8-1c-0.3,0-0.7,0.2-0.7,0.5c0,0.2,0,0.3-0.1,0.4
		c-0.2,0.1-0.5,0.2-0.6,0.2c-0.1,0-0.2-0.1-0.2-0.2c0-0.6,1.3-1.4,2.1-1.4c0.8,0,1.2,0.5,1.2,1.3l-0.1,1.9c0,0.5,0.1,1,0.5,1
		c0.1,0,0.2,0,0.3-0.1c0.1,0,0.1-0.1,0.1-0.1c0,0,0.1,0.1,0.1,0.1c0,0.1-0.4,0.5-0.9,0.5c-0.3,0-0.5-0.1-0.7-0.3
		c0-0.1-0.1-0.2-0.2-0.2c-0.1,0-0.2,0.1-0.4,0.2c-0.2,0.1-0.5,0.3-0.8,0.3c-0.3,0-0.6-0.1-0.8-0.3c-0.2-0.2-0.3-0.5-0.3-0.8
		c0-0.4,0.2-0.7,0.9-0.9L68.3,118.3z M67.6,120.2c0.2,0,0.6-0.2,0.7-0.3c0.1-0.1,0.1-0.3,0.1-0.5l0-0.7c0-0.1,0-0.1-0.1-0.1
		s-0.3,0-0.5,0.1c-0.7,0.2-1,0.4-1,0.8C66.9,119.8,67,120.2,67.6,120.2z"/>
	<path class="st3" d="M77.9,116.4c0.1,0.1,0.1,0.4-0.1,0.5H77c0,0.2,0,0.4,0,0.6c0,0.8-0.5,1.8-1.9,1.8c-0.2,0-0.4,0-0.5,0
		c-0.1,0.1-0.5,0.3-0.5,0.6c0,0.3,0.3,0.5,0.8,0.5c0.4,0,0.8,0,1.3,0c0.6,0,1.6,0.1,1.6,1.2c0,1.2-1.3,2.1-2.8,2.1
		c-1.4,0-1.8-0.7-1.8-1.3c0-0.2,0-0.3,0.1-0.4c0.2-0.2,0.5-0.5,0.8-0.7c0.1-0.1,0.2-0.2,0.1-0.3c-0.4-0.1-0.8-0.5-0.8-0.9
		c0-0.1,0-0.1,0.2-0.2c0.2-0.1,0.4-0.3,0.6-0.5c0.1-0.1,0.1-0.2,0.1-0.2c-0.4-0.2-0.8-0.6-0.8-1.3c0-1,0.8-1.7,1.8-1.7
		c0.4,0,0.8,0.1,1.1,0.2c0.4,0.2,0.4,0.2,0.7,0.2H77.9z M75.6,120.9c-0.4,0-0.8,0-1,0.1c-0.3,0.2-0.5,0.5-0.5,0.9
		c0,0.6,0.5,1.1,1.5,1.1c1,0,1.6-0.6,1.6-1.2c0-0.7-0.5-1-1.3-1H75.6z M76.3,117.8c0-0.8-0.3-1.4-1-1.4c-0.5,0-0.9,0.5-0.9,1.2
		c0,0.8,0.5,1.3,1,1.3C76,118.9,76.3,118.4,76.3,117.8z"/>
	<path class="st3" d="M79,117.4c0-0.4,0-0.5-0.3-0.7l-0.1-0.1c0,0,0-0.2,0-0.2c0.3-0.1,0.8-0.4,1.1-0.5c0.1,0,0.1,0,0.1,0.1v0.6
		c0,0.1,0,0.1,0,0.1c0.4-0.3,0.8-0.7,1.2-0.7c0.3,0,0.5,0.2,0.5,0.4c0,0.4-0.3,0.5-0.5,0.5c-0.1,0-0.2,0-0.2-0.1
		c-0.2-0.1-0.3-0.2-0.5-0.2c-0.2,0-0.3,0.1-0.4,0.2c-0.1,0.2-0.1,0.5-0.1,0.9v1.5c0,0.8,0,0.9,0.4,1l0.4,0c0.1,0.1,0.1,0.2,0,0.3
		c-0.5,0-0.8,0-1.2,0c-0.4,0-0.7,0-1,0c-0.1,0-0.1-0.2,0-0.3l0.2,0c0.4-0.1,0.4-0.2,0.4-1V117.4z"/>
	<path class="st3" d="M84.2,118.3c0.2-0.1,0.2-0.2,0.2-0.3l0-0.5c0-0.4-0.1-1-0.8-1c-0.3,0-0.7,0.2-0.7,0.5c0,0.2,0,0.3-0.1,0.4
		c-0.2,0.1-0.5,0.2-0.6,0.2c-0.1,0-0.2-0.1-0.2-0.2c0-0.6,1.3-1.4,2.1-1.4c0.8,0,1.2,0.5,1.2,1.3l-0.1,1.9c0,0.5,0.1,1,0.5,1
		c0.1,0,0.2,0,0.3-0.1c0.1,0,0.1-0.1,0.1-0.1c0,0,0.1,0.1,0.1,0.1c0,0.1-0.4,0.5-0.9,0.5c-0.3,0-0.5-0.1-0.7-0.3
		c0-0.1-0.1-0.2-0.2-0.2c-0.1,0-0.2,0.1-0.4,0.2c-0.2,0.1-0.5,0.3-0.8,0.3c-0.3,0-0.6-0.1-0.8-0.3c-0.2-0.2-0.3-0.5-0.3-0.8
		c0-0.4,0.2-0.7,0.9-0.9L84.2,118.3z M83.6,120.2c0.2,0,0.6-0.2,0.7-0.3c0.1-0.1,0.1-0.3,0.1-0.5l0-0.7c0-0.1,0-0.1-0.1-0.1
		s-0.3,0-0.5,0.1c-0.7,0.2-1,0.4-1,0.8C82.8,119.8,83,120.2,83.6,120.2z"/>
	<path class="st3" d="M87,117.4c0-0.4,0-0.5-0.3-0.7l-0.1-0.1c0,0,0-0.2,0-0.2c0.3-0.1,0.8-0.4,1.1-0.6c0.1,0,0.1,0,0.1,0.1
		c0,0.2,0,0.4,0,0.5c0,0.1,0,0.1,0.1,0.1c0.1-0.1,0.8-0.5,1.6-0.5c1.1,0,1.8,0.9,1.8,2c0,1.5-1.1,2.7-2.7,2.7c-0.2,0-0.5,0-0.6,0
		c-0.1,0-0.2,0.1-0.2,0.3v1.2c0,0.8,0,0.9,0.4,0.9l0.4,0.1c0.1,0.1,0.1,0.2,0,0.3c-0.5,0-0.9,0-1.2,0c-0.4,0-0.7,0-1,0
		c-0.1,0-0.1-0.2,0-0.3l0.2,0c0.4-0.1,0.4-0.2,0.4-1V117.4z M87.9,119.5c0,0.4,0.1,0.5,0.3,0.7c0.2,0.2,0.6,0.2,0.8,0.2
		c0.9,0,1.4-0.8,1.4-2c0-0.9-0.5-1.8-1.5-1.8c-0.5,0-0.8,0.2-0.9,0.3c-0.1,0.1-0.1,0.3-0.1,0.7V119.5z"/>
	<path class="st3" d="M92.7,114.3c0-0.7,0-0.7-0.3-0.9l-0.1-0.1c-0.1,0-0.1-0.2,0-0.2c0.3-0.1,0.8-0.3,1.2-0.5c0,0,0.1,0,0.1,0.1
		c0,0.3,0,0.9,0,1.4v2.3c0,0.1,0,0.2,0,0.2c0.4-0.3,0.9-0.6,1.5-0.6c1.1,0,1.4,0.7,1.4,1.4v1.9c0,0.8,0,0.9,0.4,1l0.3,0
		c0.1,0.1,0.1,0.2,0,0.3c-0.4,0-0.7,0-1.1,0c-0.4,0-0.7,0-1,0c-0.1,0-0.1-0.2,0-0.3l0.2,0c0.4-0.1,0.4-0.2,0.4-1v-1.6
		c0-0.7-0.3-1.2-1.1-1.2c-0.4,0-0.7,0.1-0.9,0.3c-0.2,0.2-0.2,0.2-0.2,0.6v1.9c0,0.8,0,0.9,0.4,1l0.2,0c0.1,0,0.1,0.2,0,0.3
		c-0.3,0-0.7,0-1,0c-0.4,0-0.7,0-1.1,0c-0.1,0-0.1-0.2,0-0.3l0.3,0c0.4,0,0.4-0.2,0.4-1V114.3z"/>
	<path class="st3" d="M98.6,117.4c0-0.4,0-0.5-0.3-0.7l-0.1-0.1c0,0,0-0.2,0-0.2c0.3-0.1,0.9-0.4,1.1-0.5c0.1,0,0.1,0,0.1,0.1
		c0,0.4,0,0.9,0,1.4v2c0,0.8,0,0.9,0.4,1l0.2,0c0.1,0.1,0.1,0.2,0,0.3c-0.3,0-0.7,0-1,0c-0.4,0-0.7,0-1,0c-0.1,0-0.1-0.2,0-0.3
		l0.2,0c0.4-0.1,0.4-0.2,0.4-1V117.4z M99.5,114.2c0,0.4-0.3,0.6-0.6,0.6c-0.3,0-0.6-0.3-0.6-0.6c0-0.4,0.3-0.6,0.6-0.6
		S99.5,113.9,99.5,114.2z"/>
	<path class="st3" d="M104.4,116.2c0.1,0.1,0.2,0.3,0.2,0.4c0,0.2-0.1,0.4-0.2,0.4c-0.1,0-0.1,0-0.2-0.1c-0.2-0.3-0.7-0.6-1.1-0.6
		c-0.8,0-1.5,0.6-1.5,1.8c0,0.9,0.6,1.9,1.8,1.9c0.6,0,1-0.3,1.2-0.7c0.1,0,0.2,0.1,0.2,0.2c-0.4,0.8-1.2,1.1-1.9,1.1
		c-0.6,0-1.1-0.2-1.5-0.6s-0.6-0.9-0.6-1.6c0-1.2,0.8-2.5,2.7-2.5C103.7,116,104.1,116.1,104.4,116.2z"/>
	<path class="st3" d="M112.3,119c0,0.9,0,1.3,0.3,1.3c0.1,0,0.3-0.1,0.5-0.1c0.1,0,0.1,0.3,0,0.4c-0.5,0.1-1.2,0.2-1.5,0.4
		c-0.1,0-0.1,0-0.1-0.1v-0.2c0-0.2,0-0.3,0-0.3h0c-0.5,0.3-0.9,0.5-1.4,0.5c-1.2,0-2.1-1-2.1-2.1c0-1.6,1.2-2.6,2.7-2.6
		c0.4,0,0.6,0.1,0.7,0.1c0.1,0,0.1-0.1,0.1-0.2v-1.7c0-0.7,0-0.7-0.3-0.9l-0.1-0.1c-0.1,0-0.1-0.2,0-0.2c0.3-0.1,0.8-0.3,1.2-0.5
		c0,0,0.1,0,0.1,0.1c0,0.3,0,0.9,0,1.4V119z M111.5,117.3c0-0.2,0-0.3-0.1-0.4c-0.2-0.2-0.5-0.5-0.9-0.5c-1,0-1.5,0.9-1.5,1.8
		c0,1,0.6,2,1.7,2c0.3,0,0.7-0.1,0.9-0.3c0.1-0.1,0.1-0.2,0.1-0.4V117.3z"/>
	<path class="st3" d="M114.7,117.7c-0.3,0-0.3,0-0.3,0.3c0,1.1,0.7,2.1,1.8,2.1c0.4,0,0.7-0.1,1-0.5c0.1,0,0.2,0,0.2,0.1
		c-0.4,0.8-1.2,1-1.7,1c-0.7,0-1.3-0.3-1.6-0.7c-0.3-0.4-0.5-1-0.5-1.4c0-1.4,0.9-2.5,2.2-2.5c1,0,1.6,0.7,1.6,1.3
		c0,0.2,0,0.2,0,0.3c0,0.1-0.2,0.1-0.7,0.1H114.7z M115.4,117.4c0.8,0,1.1,0,1.2-0.1c0,0,0.1-0.1,0.1-0.2c0-0.3-0.2-0.7-0.9-0.7
		c-0.7,0-1.2,0.6-1.2,1c0,0,0,0.1,0.1,0.1H115.4z"/>
	<path class="st3" d="M120.7,116.2c0.1,0.2,0.2,0.6,0.2,0.9c0,0.1-0.2,0.1-0.3,0c-0.2-0.5-0.5-0.8-1-0.8c-0.4,0-0.7,0.3-0.7,0.7
		c0,0.5,0.5,0.7,0.9,0.9c0.6,0.3,1.1,0.7,1.1,1.5c0,0.8-0.8,1.3-1.6,1.3c-0.5,0-0.9-0.1-1.2-0.3c-0.1-0.2-0.2-0.8-0.1-1.1
		c0.1-0.1,0.2-0.1,0.3,0c0.2,0.6,0.5,1.1,1.2,1.1c0.4,0,0.7-0.2,0.7-0.7c0-0.5-0.4-0.8-0.9-1c-0.6-0.4-1.1-0.8-1.1-1.4
		c0-0.8,0.7-1.3,1.5-1.3C120.2,116,120.6,116.2,120.7,116.2z"/>
	<path class="st3" d="M122.4,117.4c0-0.4,0-0.5-0.3-0.7l-0.1-0.1c0,0,0-0.2,0-0.2c0.3-0.1,0.9-0.4,1.1-0.5c0.1,0,0.1,0,0.1,0.1
		c0,0.4,0,0.9,0,1.4v2c0,0.8,0,0.9,0.4,1l0.2,0c0.1,0.1,0.1,0.2,0,0.3c-0.3,0-0.7,0-1,0c-0.4,0-0.7,0-1,0c-0.1,0-0.1-0.2,0-0.3
		l0.2,0c0.4-0.1,0.4-0.2,0.4-1V117.4z M123.3,114.2c0,0.4-0.3,0.6-0.6,0.6c-0.3,0-0.6-0.3-0.6-0.6c0-0.4,0.3-0.6,0.6-0.6
		S123.3,113.9,123.3,114.2z"/>
	<path class="st3" d="M129.1,116.4c0.1,0.1,0.1,0.4-0.1,0.5h-0.8c0,0.2,0,0.4,0,0.6c0,0.8-0.5,1.8-1.9,1.8c-0.2,0-0.4,0-0.5,0
		c-0.1,0.1-0.5,0.3-0.5,0.6c0,0.3,0.3,0.5,0.8,0.5c0.4,0,0.8,0,1.3,0c0.6,0,1.6,0.1,1.6,1.2c0,1.2-1.3,2.1-2.8,2.1
		c-1.4,0-1.8-0.7-1.8-1.3c0-0.2,0-0.3,0.1-0.4c0.2-0.2,0.5-0.5,0.8-0.7c0.1-0.1,0.2-0.2,0.1-0.3c-0.4-0.1-0.8-0.5-0.8-0.9
		c0-0.1,0-0.1,0.2-0.2c0.2-0.1,0.4-0.3,0.6-0.5c0.1-0.1,0.1-0.2,0.1-0.2c-0.4-0.2-0.8-0.6-0.8-1.3c0-1,0.8-1.7,1.8-1.7
		c0.4,0,0.8,0.1,1.1,0.2c0.4,0.2,0.4,0.2,0.7,0.2H129.1z M126.8,120.9c-0.4,0-0.8,0-1,0.1c-0.3,0.2-0.5,0.5-0.5,0.9
		c0,0.6,0.5,1.1,1.5,1.1c1,0,1.6-0.6,1.6-1.2c0-0.7-0.5-1-1.3-1H126.8z M127.5,117.8c0-0.8-0.3-1.4-1-1.4c-0.5,0-0.9,0.5-0.9,1.2
		c0,0.8,0.5,1.3,1,1.3C127.1,118.9,127.5,118.4,127.5,117.8z"/>
	<path class="st3" d="M130.2,117.4c0-0.4,0-0.5-0.3-0.7l-0.1-0.1c0,0,0-0.2,0-0.2c0.3-0.1,0.9-0.4,1.1-0.5c0,0,0.1,0,0.1,0.1
		c0,0.3,0,0.4,0,0.5c0,0.1,0,0.1,0.1,0.1c0.5-0.3,1-0.6,1.6-0.6c0.9,0,1.3,0.6,1.3,1.4v1.9c0,0.8,0,0.9,0.4,1l0.2,0
		c0.1,0.1,0.1,0.2,0,0.3c-0.3,0-0.7,0-1,0c-0.4,0-0.7,0-1,0c-0.1,0-0.1-0.2,0-0.3l0.2,0c0.4-0.1,0.4-0.2,0.4-1v-1.7
		c0-0.6-0.3-1.1-1-1.1c-0.4,0-0.8,0.2-0.9,0.4c-0.1,0.2-0.2,0.3-0.2,0.7v1.7c0,0.8,0,0.9,0.4,1l0.2,0c0.1,0.1,0.1,0.2,0,0.3
		c-0.3,0-0.6,0-1,0c-0.4,0-0.7,0-1,0c-0.1,0-0.1-0.2,0-0.3l0.2,0c0.4-0.1,0.4-0.2,0.4-1V117.4z"/>
	<path class="st3" d="M136.4,117.7c-0.3,0-0.3,0-0.3,0.3c0,1.1,0.7,2.1,1.8,2.1c0.4,0,0.7-0.1,1-0.5c0.1,0,0.2,0,0.2,0.1
		c-0.4,0.8-1.2,1-1.7,1c-0.7,0-1.3-0.3-1.6-0.7c-0.3-0.4-0.5-1-0.5-1.4c0-1.4,0.9-2.5,2.2-2.5c1,0,1.6,0.7,1.6,1.3
		c0,0.2,0,0.2,0,0.3c0,0.1-0.2,0.1-0.7,0.1H136.4z M137.1,117.4c0.8,0,1.1,0,1.2-0.1c0,0,0.1-0.1,0.1-0.2c0-0.3-0.2-0.7-0.9-0.7
		c-0.7,0-1.2,0.6-1.2,1c0,0,0,0.1,0.1,0.1H137.1z"/>
	<path class="st3" d="M140.4,117.4c0-0.4,0-0.5-0.3-0.7l-0.1-0.1c0,0,0-0.2,0-0.2c0.3-0.1,0.8-0.4,1.1-0.5c0.1,0,0.1,0,0.1,0.1v0.6
		c0,0.1,0,0.1,0,0.1c0.4-0.3,0.8-0.7,1.2-0.7c0.3,0,0.5,0.2,0.5,0.4c0,0.4-0.3,0.5-0.5,0.5c-0.1,0-0.2,0-0.2-0.1
		c-0.2-0.1-0.3-0.2-0.5-0.2c-0.2,0-0.3,0.1-0.4,0.2c-0.1,0.2-0.1,0.5-0.1,0.9v1.5c0,0.8,0,0.9,0.4,1l0.4,0c0.1,0.1,0.1,0.2,0,0.3
		c-0.5,0-0.8,0-1.2,0c-0.4,0-0.7,0-1,0c-0.1,0-0.1-0.2,0-0.3l0.2,0c0.4-0.1,0.4-0.2,0.4-1V117.4z"/>
</g>
<g>
	<path class="st4" d="M38.5,51.7v7.8h-0.6v-3.7h-4.9v3.7h-0.6v-7.8h0.6v3.6h4.9v-3.6H38.5z"/>
	<path class="st4" d="M47,59l0,0.5h-4.7v-7.8H47v0.5h-4.1v3.1h3.4v0.5h-3.4V59H47z"/>
	<path class="st4" d="M54.5,59v0.5h-4.3v-7.8h0.6V59H54.5z"/>
	<path class="st4" d="M61.6,59v0.5h-4.3v-7.8h0.6V59H61.6z"/>
	<path class="st4" d="M70.9,55.5c0,0.6-0.1,1.1-0.3,1.6c-0.2,0.5-0.4,0.9-0.8,1.3c-0.3,0.3-0.7,0.6-1.2,0.8s-1,0.3-1.5,0.3
		c-0.6,0-1.1-0.1-1.5-0.3c-0.5-0.2-0.8-0.5-1.2-0.8c-0.3-0.3-0.6-0.8-0.8-1.3c-0.2-0.5-0.3-1-0.3-1.6c0-0.6,0.1-1.1,0.3-1.6
		c0.2-0.5,0.4-0.9,0.8-1.3c0.3-0.3,0.7-0.6,1.2-0.8c0.5-0.2,1-0.3,1.5-0.3c0.5,0,1.1,0.1,1.5,0.3c0.5,0.2,0.8,0.5,1.2,0.8
		c0.3,0.3,0.6,0.8,0.8,1.3C70.8,54.4,70.9,54.9,70.9,55.5z M70.3,55.5c0-0.5-0.1-1-0.2-1.5s-0.4-0.8-0.6-1.1c-0.3-0.3-0.6-0.5-1-0.7
		c-0.4-0.2-0.8-0.2-1.3-0.2c-0.5,0-0.9,0.1-1.3,0.2c-0.4,0.2-0.7,0.4-1,0.7s-0.5,0.7-0.6,1.1c-0.2,0.4-0.2,0.9-0.2,1.5
		c0,0.5,0.1,1,0.2,1.5c0.2,0.4,0.4,0.8,0.6,1.1s0.6,0.5,1,0.7c0.4,0.2,0.8,0.2,1.3,0.2c0.5,0,0.9-0.1,1.3-0.2c0.4-0.2,0.7-0.4,1-0.7
		c0.3-0.3,0.5-0.7,0.6-1.1S70.3,56.1,70.3,55.5z"/>
	<path class="st4" d="M73.5,60.7C73.5,60.7,73.5,60.7,73.5,60.7C73.5,60.7,73.5,60.7,73.5,60.7c0-0.1,0-0.1,0-0.2
		c0,0,0.1-0.1,0.1-0.2c0.1-0.1,0.1-0.2,0.2-0.3c0.1-0.1,0.1-0.2,0.2-0.3c0-0.1,0.1-0.3,0.1-0.4c-0.1,0-0.1,0-0.2,0
		c-0.1,0-0.2,0-0.3-0.1c-0.1-0.1-0.1-0.2-0.1-0.4c0-0.1,0-0.2,0.1-0.3c0.1-0.1,0.2-0.1,0.3-0.1c0.2,0,0.3,0.1,0.4,0.2
		c0.1,0.1,0.1,0.3,0.1,0.4c0,0.2,0,0.3-0.1,0.5c0,0.2-0.1,0.3-0.2,0.5s-0.2,0.3-0.3,0.4C73.9,60.6,73.7,60.7,73.5,60.7L73.5,60.7z"
		/>
	<path class="st4" d="M82.9,59.4h-0.6v-7.8h0.6V59.4z"/>
	<path class="st4" d="M96.9,59.4h-0.4c-0.1,0-0.1,0-0.1,0c0,0-0.1-0.1-0.1-0.1L95.3,57h-3.8l-0.9,2.3c0,0,0,0.1-0.1,0.1
		c0,0-0.1,0-0.1,0h-0.4l3.2-7.8h0.6L96.9,59.4z M95.1,56.6l-1.6-3.9c-0.1-0.1-0.1-0.3-0.2-0.5c0,0.1,0,0.2-0.1,0.3
		c0,0.1-0.1,0.2-0.1,0.2l-1.6,3.9H95.1z"/>
	<path class="st4" d="M107.4,51.7v7.8h-0.5v-6.6c0-0.1,0-0.2,0-0.3l-3.1,5.4c-0.1,0.1-0.1,0.1-0.2,0.1h-0.1c-0.1,0-0.2,0-0.2-0.1
		l-3.1-5.5c0,0.1,0,0.2,0,0.3v6.6h-0.5v-7.8h0.4c0.1,0,0.1,0,0.1,0c0,0,0.1,0,0.1,0.1l3.1,5.4c0.1,0.1,0.1,0.2,0.1,0.3
		c0-0.1,0-0.1,0.1-0.2c0-0.1,0.1-0.1,0.1-0.2l3.1-5.4c0,0,0.1-0.1,0.1-0.1c0,0,0.1,0,0.1,0H107.4z"/>
</g>
<g>
	<path class="st3" d="M73.3,159.2c0,0.1,0,0.1,0,0.2c0,0,0.1,0.1,0.1,0.1c0.1,0,0.1,0.1,0.1,0.1c0,0,0.1,0,0.2,0.1
		c0.2,0.1,0.3,0.1,0.3,0.2c0,0.1-0.1,0.1-0.2,0.1c-0.2,0-0.3,0-0.5,0c-0.2,0-0.3,0-0.4,0c-0.1,0-0.3,0-0.4,0s-0.3,0-0.5,0
		c-0.1,0-0.2,0-0.2-0.1c0-0.1,0.1-0.1,0.3-0.2c0,0,0,0,0,0c0.2-0.1,0.4-0.2,0.4-0.3c0,0,0-0.1,0-0.1v-2.3c0-0.3-0.1-0.5-0.3-0.7
		c-0.2-0.2-0.4-0.3-0.6-0.3c-0.4,0-0.7,0.1-1,0.3c-0.2,0.2-0.3,0.4-0.3,0.8v2.3c0,0,0,0.1,0,0.1c0,0,0,0.1,0,0.1c0,0,0,0,0,0.1
		c0,0,0,0,0.1,0c0,0,0,0,0.1,0s0,0,0.1,0c0,0,0.1,0,0.1,0s0,0,0.1,0c0,0,0.1,0,0.1,0c0.2,0.1,0.3,0.1,0.3,0.2c0,0.1-0.1,0.1-0.2,0.1
		c-0.2,0-0.3,0-0.5,0c-0.2,0-0.3,0-0.4,0c-0.1,0-0.3,0-0.4,0s-0.3,0-0.5,0c-0.1,0-0.2,0-0.2-0.1c0-0.1,0.1-0.1,0.3-0.2
		c0.2-0.1,0.4-0.2,0.4-0.2c0,0,0-0.1,0-0.2v-2.3c0-0.3-0.1-0.5-0.3-0.7c-0.2-0.2-0.4-0.3-0.6-0.3c-0.4,0-0.7,0.1-1,0.3
		c-0.2,0.1-0.3,0.4-0.3,0.8v2.3c0,0.1,0,0.1,0,0.2c0,0,0.1,0.1,0.1,0.1c0.1,0,0.1,0.1,0.1,0.1c0,0,0.1,0,0.2,0.1
		c0.2,0.1,0.3,0.1,0.3,0.2c0,0.1-0.1,0.1-0.2,0.1c-0.2,0-0.3,0-0.5,0c-0.2,0-0.3,0-0.4,0c-0.1,0-0.3,0-0.4,0s-0.3,0-0.5,0
		c-0.1,0-0.2,0-0.2-0.1c0-0.1,0.1-0.1,0.3-0.2c0.2-0.1,0.4-0.2,0.4-0.2c0-0.1,0-0.1,0-0.2v-2.4c0-0.2,0-0.4-0.1-0.5
		c-0.1-0.1-0.2-0.2-0.3-0.3c-0.1,0-0.1-0.1-0.1-0.1c0-0.1,0-0.1,0.1-0.1c0.1,0,0.2,0,0.3-0.1c0.1,0,0.2-0.1,0.2-0.1s0.1-0.1,0.2-0.1
		c0.1,0,0.1-0.1,0.2-0.1c0,0,0.1-0.1,0.2-0.1c0.1-0.1,0.1-0.1,0.2-0.1c0.1,0,0.1,0,0.1,0.1c0,0,0,0.1,0,0.3s0,0.3,0,0.4
		c0,0.1,0,0.1,0,0.1c0.5-0.5,1.1-0.7,1.8-0.7c0.5,0,0.8,0.2,1,0.7c0,0.1,0,0.1,0.1,0.1c0,0,0.1,0,0.1,0c0,0,0.1-0.1,0.2-0.1
		c0.5-0.4,1-0.6,1.6-0.6c0.3,0,0.6,0.2,0.8,0.5c0.2,0.3,0.3,0.7,0.3,1.1V159.2z"/>
	<path class="st3" d="M74.3,162.7c0-0.2,0.1-0.3,0.3-0.3c0.1,0,0.1,0,0.2,0s0.2,0,0.2,0c0.1,0,0.2,0,0.2-0.1c0.3-0.6,0.7-1.3,1-2.2
		c0-0.1,0-0.2,0-0.3c0-0.1,0-0.2,0-0.3l-1.3-3.3c-0.1-0.3-0.3-0.5-0.5-0.5c-0.2-0.1-0.3-0.1-0.3-0.2c0-0.1,0.1-0.1,0.2-0.1
		c0.2,0,0.3,0,0.4,0s0.3,0,0.4,0c0.1,0,0.3,0,0.4,0c0.1,0,0.3,0,0.4,0c0.1,0,0.2,0,0.2,0.1c0,0.1-0.1,0.2-0.3,0.2
		c-0.1,0-0.2,0.2-0.2,0.4c0,0.1,0,0.2,0.1,0.3l0.9,2.2c0.1,0.1,0.1,0.1,0.2,0l0.7-2c0.1-0.1,0.1-0.3,0.1-0.4c0-0.2-0.1-0.4-0.2-0.4
		c-0.2-0.1-0.3-0.2-0.3-0.3c0-0.1,0.1-0.1,0.2-0.1c0.1,0,0.2,0,0.3,0s0.3,0,0.5,0c0.1,0,0.3,0,0.4,0c0.1,0,0.2,0,0.3,0
		c0.1,0,0.2,0,0.2,0.1c0,0.1-0.1,0.1-0.3,0.2c-0.1,0-0.2,0.1-0.4,0.3c-0.1,0.1-0.2,0.3-0.3,0.5l-1.5,3.6c0,0-0.1,0.2-0.2,0.4
		c-0.1,0.3-0.3,0.6-0.4,1s-0.3,0.8-0.5,1.1c-0.1,0.3-0.4,0.5-0.7,0.5c-0.1,0-0.3,0-0.4-0.1C74.3,162.9,74.3,162.8,74.3,162.7z"/>
	<path class="st3" d="M82.2,162.4v-5.6c0-0.1,0-0.3-0.1-0.5c-0.1-0.2-0.2-0.3-0.4-0.3c-0.1,0-0.1-0.1-0.1-0.1c0-0.1,0-0.1,0.1-0.1
		c0.3-0.1,0.7-0.2,1.3-0.4l0,0h0c0,0,0.1,0,0.1,0.1c0,0,0,0.1,0,0.3s0,0.3,0,0.4c0,0.1,0,0.1,0,0.1c0.1-0.1,0.4-0.3,0.8-0.5
		c0.4-0.2,0.7-0.3,1-0.3c0.5,0,1,0.2,1.3,0.6c0.3,0.4,0.5,0.9,0.5,1.5c0,0.7-0.2,1.3-0.7,1.8c-0.5,0.5-1.1,0.8-1.8,0.8
		c-0.2,0-0.4,0-0.6-0.1s-0.4-0.2-0.5-0.2c0,0,0,0.2,0,0.6v2.1c0,0.1,0,0.1,0,0.2c0,0,0.1,0.1,0.1,0.1c0.1,0,0.1,0.1,0.2,0.1
		c0,0,0.1,0,0.2,0.1s0.1,0,0.1,0c0.2,0.1,0.3,0.1,0.3,0.2c0,0.1-0.1,0.1-0.2,0.1c-0.1,0-0.3,0-0.5,0c-0.2,0-0.4,0-0.5,0
		c-0.1,0-0.3,0-0.4,0s-0.3,0-0.5,0c-0.2,0-0.2,0-0.2-0.1c0-0.1,0.1-0.1,0.3-0.2c0.2-0.1,0.4-0.2,0.4-0.2
		C82.2,162.5,82.2,162.4,82.2,162.4z M84.3,159.7c0.1,0,0.3,0,0.4-0.1c0.2-0.1,0.3-0.2,0.5-0.3c0.2-0.1,0.3-0.3,0.4-0.6
		c0.1-0.3,0.2-0.6,0.2-0.9c0-0.4-0.1-0.7-0.2-1c-0.1-0.3-0.2-0.5-0.4-0.6c-0.2-0.1-0.3-0.2-0.5-0.3c-0.1,0-0.3-0.1-0.4-0.1
		c-0.4,0-0.7,0.1-1,0.3c-0.2,0.1-0.3,0.4-0.3,0.8c0,0.1,0,0.2,0,0.3c0,0.2,0,0.3,0,0.4c0,0.4,0,0.7,0,1c0,0.4,0.1,0.7,0.3,0.8
		C83.5,159.6,83.8,159.7,84.3,159.7z"/>
	<path class="st3" d="M88.8,157v2.2c0,0.2,0.2,0.4,0.6,0.5c0.2,0.1,0.3,0.1,0.3,0.2c0,0.1-0.1,0.1-0.2,0.1c-0.2,0-0.3,0-0.5,0
		s-0.3,0-0.5,0c-0.1,0-0.3,0-0.4,0s-0.3,0-0.5,0c-0.1,0-0.2,0-0.2-0.1c0-0.1,0.1-0.1,0.3-0.2c0.1,0,0.2-0.1,0.2-0.1
		c0,0,0.1-0.1,0.1-0.1c0-0.1,0.1-0.1,0.1-0.2v-2.4c0-0.5-0.2-0.7-0.5-0.8c-0.1,0-0.1-0.1-0.1-0.1c0-0.1,0-0.1,0.1-0.1
		c0.1,0,0.3-0.1,0.4-0.1s0.2-0.1,0.3-0.2c0.1,0,0.2-0.1,0.3-0.2c0.1-0.1,0.2-0.1,0.2-0.1c0,0,0,0,0,0c0,0,0,0,0,0c0,0,0.1,0,0.1,0.1
		c0,0.2,0,0.5,0,0.8c0,0,0,0,0,0c0,0,0,0,0.1-0.1c0,0,0.1-0.1,0.1-0.1c0,0,0.1-0.1,0.1-0.1c0.4-0.3,0.7-0.5,1-0.5
		c0.2,0,0.3,0,0.4,0.1c0.1,0.1,0.2,0.2,0.2,0.3c0,0.1,0,0.2-0.1,0.4c-0.1,0.1-0.2,0.2-0.3,0.2c-0.1,0-0.2,0-0.3-0.1
		c-0.2-0.1-0.3-0.1-0.3-0.1c-0.2,0-0.4,0.1-0.6,0.2C88.9,156.4,88.8,156.6,88.8,157z"/>
	<path class="st3" d="M93.6,155.3c0.6,0,1.2,0.2,1.6,0.7c0.4,0.4,0.7,1,0.7,1.6c0,0.7-0.2,1.3-0.7,1.8c-0.4,0.5-1.1,0.7-1.9,0.7
		c-0.6,0-1.2-0.2-1.6-0.6c-0.4-0.4-0.6-1-0.6-1.6c0-0.6,0.2-1.2,0.7-1.7S92.9,155.3,93.6,155.3z M93.4,155.7c-0.4,0-0.8,0.1-1,0.4
		c-0.2,0.3-0.4,0.8-0.4,1.5c0,0.6,0.1,1.1,0.4,1.5s0.7,0.7,1.1,0.7c0.6,0,0.9-0.2,1.1-0.6c0.1-0.3,0.2-0.7,0.2-1.3
		c0-0.6-0.1-1.1-0.4-1.5C94.2,155.9,93.8,155.7,93.4,155.7z"/>
	<path class="st3" d="M97.9,156.9v2c0,1.2-0.1,2.1-0.3,2.7c-0.1,0.4-0.4,0.7-0.7,1c-0.3,0.3-0.6,0.5-0.8,0.5c-0.2,0-0.2,0-0.2-0.1
		c0-0.1,0-0.1,0.1-0.2c0.3-0.1,0.5-0.3,0.7-0.7c0.2-0.5,0.3-1.4,0.3-3v-2.3c0-0.5-0.2-0.7-0.5-0.8c-0.1,0-0.1-0.1-0.1-0.1
		c0-0.1,0-0.1,0.1-0.1c0.2-0.1,0.4-0.1,0.6-0.2c0.2-0.1,0.4-0.2,0.5-0.3s0.2-0.1,0.2-0.1c0.1,0,0.1,0,0.1,0.1
		C97.9,155.7,97.9,156.3,97.9,156.9z M96.8,153.6c0-0.2,0.1-0.3,0.2-0.4s0.2-0.2,0.4-0.2c0.2,0,0.3,0.1,0.4,0.2s0.2,0.2,0.2,0.4
		c0,0.2-0.1,0.3-0.2,0.4c-0.1,0.1-0.2,0.2-0.4,0.2c-0.2,0-0.3-0.1-0.4-0.2C96.9,153.9,96.8,153.8,96.8,153.6z"/>
	<path class="st3" d="M101.2,155.3c0.4,0,0.8,0.1,1.1,0.3s0.4,0.5,0.4,0.9c0,0.3-0.1,0.5-0.4,0.5h-2.3c-0.1,0-0.2,0-0.2,0.1
		s-0.1,0.2-0.1,0.3c0,0.5,0.2,1,0.5,1.4c0.3,0.4,0.7,0.6,1.2,0.6c0.2,0,0.4,0,0.6-0.1c0.2-0.1,0.4-0.2,0.5-0.4
		c0.1-0.1,0.1-0.1,0.1-0.1c0.1,0,0.1,0.1,0.1,0.2c-0.1,0.2-0.3,0.5-0.6,0.7c-0.3,0.2-0.7,0.3-1.2,0.3c-0.5,0-1-0.2-1.3-0.7
		c-0.4-0.4-0.5-1-0.5-1.7c0-0.6,0.2-1.2,0.6-1.7S100.5,155.3,101.2,155.3z M101,155.7c-0.3,0-0.6,0.1-0.8,0.3
		c-0.2,0.2-0.4,0.4-0.4,0.6c0,0.1,0.1,0.2,0.2,0.2h0.9c0.3,0,0.6,0,0.8-0.1c0.1,0,0.1-0.1,0.1-0.3c0-0.2-0.1-0.4-0.3-0.5
		C101.4,155.7,101.2,155.7,101,155.7z"/>
	<path class="st3" d="M106.7,156.4c-0.1,0-0.2,0-0.3-0.1c-0.2-0.2-0.4-0.4-0.5-0.4c-0.1-0.1-0.3-0.1-0.6-0.1c-0.4,0-0.7,0.2-0.9,0.5
		c-0.2,0.3-0.3,0.7-0.3,1.2c0,0.6,0.2,1,0.5,1.5c0.3,0.4,0.8,0.6,1.3,0.6c0.2,0,0.4,0,0.5-0.1c0.1-0.1,0.3-0.2,0.4-0.4
		c0,0,0.1-0.1,0.1-0.1c0,0,0.1,0,0.1,0.1c0,0,0,0.1,0,0.1c0,0.2-0.2,0.5-0.6,0.7c-0.4,0.2-0.8,0.4-1.3,0.4c-0.5,0-1-0.2-1.4-0.6
		s-0.5-0.9-0.5-1.5c0-0.7,0.2-1.3,0.7-1.8c0.4-0.5,1-0.8,1.7-0.8c0.6,0,1,0.2,1.3,0.5c0,0.1,0.1,0.1,0.1,0.1c0,0.1-0.1,0.2-0.2,0.3
		C106.8,156.3,106.7,156.4,106.7,156.4z"/>
	<path class="st3" d="M109.3,160.1c-0.4,0-0.6-0.1-0.9-0.3s-0.3-0.6-0.3-1v-2.6c0-0.1,0-0.1-0.1-0.1c-0.1,0-0.2,0-0.3,0
		c0,0,0,0-0.1-0.1c0-0.1-0.1-0.1-0.1-0.1c0,0,0-0.1,0.1-0.1c0.2-0.1,0.3-0.2,0.5-0.3c0.2-0.2,0.3-0.3,0.4-0.5s0.2-0.2,0.2-0.2
		c0.1,0,0.2,0,0.2,0.1l-0.1,0.5c0,0,0,0.1,0.1,0.1c0.1,0,0.1,0,0.2,0h1.3c0.1,0,0.1,0.1,0.1,0.3c0,0.2,0,0.3-0.1,0.3h-1.1
		c-0.2,0-0.3,0-0.4,0c0,0-0.1,0.1-0.1,0.3v2.1c0,0.4,0.1,0.6,0.2,0.8c0.1,0.2,0.3,0.2,0.5,0.2c0.4,0,0.6-0.1,0.8-0.2
		c0,0,0.1,0,0.1,0s0,0.1,0,0.1c0,0-0.1,0.1-0.2,0.2c-0.1,0.1-0.3,0.2-0.5,0.3C109.7,160,109.5,160.1,109.3,160.1z"/>
	<path class="st3" d="M112.6,155.6c-0.2,0-0.4,0.1-0.5,0.2c-0.1,0.1-0.2,0.3-0.2,0.5c0,0.1,0.1,0.3,0.2,0.4c0.1,0.1,0.2,0.3,0.3,0.3
		s0.2,0.2,0.4,0.3c0.2,0.1,0.3,0.2,0.4,0.3c0.1,0.1,0.2,0.2,0.4,0.4s0.2,0.4,0.2,0.7c0,0.9-0.5,1.3-1.6,1.3c-0.3,0-0.5,0-0.8-0.1
		c-0.2-0.1-0.4-0.2-0.4-0.3c-0.1-0.2-0.1-0.4-0.1-0.7c0-0.1,0.1-0.1,0.2-0.1c0.1,0,0.2,0,0.2,0.1c0,0.2,0.2,0.4,0.4,0.5
		c0.2,0.2,0.4,0.3,0.7,0.3c0.3,0,0.5-0.1,0.6-0.2c0.1-0.1,0.2-0.3,0.2-0.6c0-0.2-0.1-0.3-0.2-0.5s-0.3-0.3-0.6-0.5
		c-0.3-0.2-0.6-0.5-0.8-0.7c-0.2-0.2-0.3-0.4-0.3-0.7c0-0.4,0.1-0.7,0.4-0.9c0.2-0.3,0.6-0.4,1.1-0.4c0.4,0,0.7,0.1,0.8,0.3
		c0.1,0.2,0.2,0.4,0.2,0.9c0,0,0,0-0.1,0c-0.1,0-0.1,0-0.2-0.1s-0.1-0.1-0.1-0.2c0-0.2-0.1-0.3-0.2-0.4
		C113,155.7,112.8,155.6,112.6,155.6z"/>
	<path class="st3" d="M73.3,175c0,0.1,0,0.1,0,0.2c0,0,0.1,0.1,0.1,0.1c0.1,0,0.1,0.1,0.1,0.1c0,0,0.1,0,0.2,0.1
		c0.2,0.1,0.3,0.1,0.3,0.2c0,0.1-0.1,0.1-0.2,0.1c-0.2,0-0.3,0-0.5,0c-0.2,0-0.3,0-0.4,0c-0.1,0-0.3,0-0.4,0s-0.3,0-0.5,0
		c-0.1,0-0.2,0-0.2-0.1c0-0.1,0.1-0.1,0.3-0.2c0,0,0,0,0,0c0.2-0.1,0.4-0.2,0.4-0.3c0,0,0-0.1,0-0.1v-2.3c0-0.3-0.1-0.5-0.3-0.7
		c-0.2-0.2-0.4-0.3-0.6-0.3c-0.4,0-0.7,0.1-1,0.3c-0.2,0.2-0.3,0.4-0.3,0.8v2.3c0,0,0,0.1,0,0.1c0,0,0,0.1,0,0.1c0,0,0,0,0,0.1
		c0,0,0,0,0.1,0c0,0,0,0,0.1,0s0,0,0.1,0c0,0,0.1,0,0.1,0s0,0,0.1,0c0,0,0.1,0,0.1,0c0.2,0.1,0.3,0.1,0.3,0.2c0,0.1-0.1,0.1-0.2,0.1
		c-0.2,0-0.3,0-0.5,0c-0.2,0-0.3,0-0.4,0c-0.1,0-0.3,0-0.4,0s-0.3,0-0.5,0c-0.1,0-0.2,0-0.2-0.1c0-0.1,0.1-0.1,0.3-0.2
		c0.2-0.1,0.4-0.2,0.4-0.2c0,0,0-0.1,0-0.2v-2.3c0-0.3-0.1-0.5-0.3-0.7c-0.2-0.2-0.4-0.3-0.6-0.3c-0.4,0-0.7,0.1-1,0.3
		c-0.2,0.1-0.3,0.4-0.3,0.8v2.3c0,0.1,0,0.1,0,0.2c0,0,0.1,0.1,0.1,0.1c0.1,0,0.1,0.1,0.1,0.1c0,0,0.1,0,0.2,0.1
		c0.2,0.1,0.3,0.1,0.3,0.2c0,0.1-0.1,0.1-0.2,0.1c-0.2,0-0.3,0-0.5,0c-0.2,0-0.3,0-0.4,0c-0.1,0-0.3,0-0.4,0s-0.3,0-0.5,0
		c-0.1,0-0.2,0-0.2-0.1c0-0.1,0.1-0.1,0.3-0.2c0.2-0.1,0.4-0.2,0.4-0.2c0-0.1,0-0.1,0-0.2v-2.4c0-0.2,0-0.4-0.1-0.5
		c-0.1-0.1-0.2-0.2-0.3-0.3c-0.1,0-0.1-0.1-0.1-0.1c0-0.1,0-0.1,0.1-0.1c0.1,0,0.2,0,0.3-0.1c0.1,0,0.2-0.1,0.2-0.1s0.1-0.1,0.2-0.1
		c0.1,0,0.1-0.1,0.2-0.1c0,0,0.1-0.1,0.2-0.1c0.1-0.1,0.1-0.1,0.2-0.1c0.1,0,0.1,0,0.1,0.1c0,0,0,0.1,0,0.3s0,0.3,0,0.4
		c0,0.1,0,0.1,0,0.1c0.5-0.5,1.1-0.7,1.8-0.7c0.5,0,0.8,0.2,1,0.7c0,0.1,0,0.1,0.1,0.1c0,0,0.1,0,0.1,0c0,0,0.1-0.1,0.2-0.1
		c0.5-0.4,1-0.6,1.6-0.6c0.3,0,0.6,0.2,0.8,0.5c0.2,0.3,0.3,0.7,0.3,1.1V175z"/>
	<path class="st3" d="M74.3,178.5c0-0.2,0.1-0.3,0.3-0.3c0.1,0,0.1,0,0.2,0s0.2,0,0.2,0c0.1,0,0.2,0,0.2-0.1c0.3-0.6,0.7-1.3,1-2.2
		c0-0.1,0-0.2,0-0.3c0-0.1,0-0.2,0-0.3L75,172c-0.1-0.3-0.3-0.5-0.5-0.5c-0.2-0.1-0.3-0.1-0.3-0.2c0-0.1,0.1-0.1,0.2-0.1
		c0.2,0,0.3,0,0.4,0s0.3,0,0.4,0c0.1,0,0.3,0,0.4,0c0.1,0,0.3,0,0.4,0c0.1,0,0.2,0,0.2,0.1c0,0.1-0.1,0.2-0.3,0.2
		c-0.1,0-0.2,0.2-0.2,0.4c0,0.1,0,0.2,0.1,0.3l0.9,2.2c0.1,0.1,0.1,0.1,0.2,0l0.7-2c0.1-0.1,0.1-0.3,0.1-0.4c0-0.2-0.1-0.4-0.2-0.4
		c-0.2-0.1-0.3-0.2-0.3-0.3c0-0.1,0.1-0.1,0.2-0.1c0.1,0,0.2,0,0.3,0s0.3,0,0.5,0c0.1,0,0.3,0,0.4,0c0.1,0,0.2,0,0.3,0
		c0.1,0,0.2,0,0.2,0.1c0,0.1-0.1,0.1-0.3,0.2c-0.1,0-0.2,0.1-0.4,0.3c-0.1,0.1-0.2,0.3-0.3,0.5l-1.5,3.6c0,0-0.1,0.2-0.2,0.4
		c-0.1,0.3-0.3,0.6-0.4,1s-0.3,0.8-0.5,1.1c-0.1,0.3-0.4,0.5-0.7,0.5c-0.1,0-0.3,0-0.4-0.1C74.3,178.7,74.3,178.6,74.3,178.5z"/>
	<path class="st3" d="M83.8,171.1c0.4,0,0.8,0.1,1.1,0.3s0.4,0.5,0.4,0.9c0,0.3-0.1,0.5-0.4,0.5h-2.3c-0.1,0-0.2,0-0.2,0.1
		c0,0-0.1,0.2-0.1,0.3c0,0.5,0.2,1,0.5,1.4c0.3,0.4,0.7,0.6,1.2,0.6c0.2,0,0.4,0,0.6-0.1s0.4-0.2,0.5-0.4c0.1-0.1,0.1-0.1,0.1-0.1
		c0.1,0,0.1,0.1,0.1,0.2c-0.1,0.2-0.3,0.5-0.6,0.7c-0.3,0.2-0.7,0.3-1.2,0.3c-0.5,0-1-0.2-1.3-0.7c-0.4-0.4-0.5-1-0.5-1.7
		c0-0.6,0.2-1.2,0.6-1.7C82.6,171.3,83.2,171.1,83.8,171.1z M83.6,171.4c-0.3,0-0.6,0.1-0.8,0.3c-0.2,0.2-0.4,0.4-0.4,0.6
		c0,0.1,0.1,0.2,0.2,0.2h0.9c0.3,0,0.6,0,0.8-0.1c0.1,0,0.1-0.1,0.1-0.3c0-0.2-0.1-0.4-0.3-0.5C84.1,171.5,83.9,171.4,83.6,171.4z"
		/>
	<path class="st3" d="M87.9,175.6c0-0.1,0.1-0.2,0.3-0.2c0.2-0.1,0.3-0.2,0.3-0.3c0-0.1,0-0.1-0.1-0.2l-0.6-1c0-0.1-0.1-0.1-0.1,0
		L87,175c0,0.1-0.1,0.1-0.1,0.2c0,0.1,0.1,0.2,0.2,0.2c0.2,0.1,0.3,0.1,0.3,0.2c0,0.1-0.1,0.1-0.3,0.1c0,0-0.1,0-0.3,0
		c-0.1,0-0.3,0-0.3,0c-0.2,0-0.3,0-0.5,0c-0.1,0-0.2,0-0.3,0c-0.1,0-0.2,0-0.2-0.1c0-0.1,0.1-0.2,0.3-0.2c0.2-0.1,0.4-0.3,0.7-0.6
		l0.9-1.2c0.1-0.1,0.1-0.2,0-0.3l-0.9-1.4c-0.2-0.3-0.3-0.4-0.5-0.5c-0.2,0-0.3-0.1-0.3-0.2c0-0.1,0.1-0.1,0.3-0.1
		c0.1,0,0.3,0,0.4,0s0.3,0,0.5,0c0.1,0,0.2,0,0.3,0c0.1,0,0.2,0,0.3,0c0.2,0,0.3,0,0.3,0.1c0,0.1-0.1,0.1-0.2,0.2
		c-0.1,0-0.2,0.1-0.2,0.2c0,0.1,0,0.2,0.1,0.4l0.4,0.7c0,0.1,0.1,0.1,0.1,0.1l0.5-0.8c0.1-0.1,0.1-0.2,0.1-0.2c0-0.1,0-0.1-0.1-0.2
		c-0.2-0.1-0.3-0.1-0.3-0.2c0-0.1,0.1-0.1,0.3-0.1c0,0,0.1,0,0.3,0c0.1,0,0.2,0,0.3,0c0.2,0,0.3,0,0.4,0c0.1,0,0.2,0,0.3,0
		c0.1,0,0.2,0,0.2,0.1c0,0.1-0.1,0.1-0.3,0.2c-0.4,0.1-0.6,0.3-0.8,0.5l-0.7,1c0,0,0,0.1,0,0.1l1.1,1.8c0.2,0.3,0.3,0.4,0.5,0.5
		c0.2,0,0.3,0.1,0.3,0.2c0,0.1-0.1,0.1-0.2,0.1c-0.1,0-0.3,0-0.4,0c-0.1,0-0.3,0-0.5,0c-0.1,0-0.2,0-0.4,0c-0.2,0-0.3,0-0.4,0
		C88,175.7,87.9,175.7,87.9,175.6z"/>
	<path class="st3" d="M91.2,178.2v-5.6c0-0.1,0-0.3-0.1-0.5c-0.1-0.2-0.2-0.3-0.4-0.3c-0.1,0-0.1-0.1-0.1-0.1c0-0.1,0-0.1,0.1-0.1
		c0.3-0.1,0.7-0.2,1.3-0.4l0,0h0c0,0,0.1,0,0.1,0.1c0,0,0,0.1,0,0.3s0,0.3,0,0.4c0,0.1,0,0.1,0,0.1c0.1-0.1,0.4-0.3,0.8-0.5
		c0.4-0.2,0.7-0.3,1-0.3c0.5,0,1,0.2,1.3,0.6c0.3,0.4,0.5,0.9,0.5,1.5c0,0.7-0.2,1.3-0.7,1.8c-0.5,0.5-1.1,0.8-1.8,0.8
		c-0.2,0-0.4,0-0.6-0.1s-0.4-0.2-0.5-0.2c0,0,0,0.2,0,0.6v2.1c0,0.1,0,0.1,0,0.2c0,0,0.1,0.1,0.1,0.1s0.1,0.1,0.2,0.1
		c0,0,0.1,0,0.2,0.1s0.1,0,0.1,0c0.2,0.1,0.3,0.1,0.3,0.2c0,0.1-0.1,0.1-0.2,0.1c-0.1,0-0.3,0-0.5,0s-0.4,0-0.5,0
		c-0.1,0-0.3,0-0.4,0s-0.3,0-0.5,0c-0.2,0-0.2,0-0.2-0.1c0-0.1,0.1-0.1,0.3-0.2c0.2-0.1,0.4-0.2,0.4-0.2
		C91.1,178.3,91.2,178.2,91.2,178.2z M93.3,175.5c0.1,0,0.3,0,0.4-0.1c0.2-0.1,0.3-0.2,0.5-0.3c0.2-0.1,0.3-0.3,0.4-0.6
		c0.1-0.3,0.2-0.6,0.2-0.9c0-0.4-0.1-0.7-0.2-1c-0.1-0.3-0.2-0.5-0.4-0.6c-0.2-0.1-0.3-0.2-0.5-0.3c-0.1,0-0.3-0.1-0.4-0.1
		c-0.4,0-0.7,0.1-1,0.3c-0.2,0.1-0.3,0.4-0.3,0.8c0,0.1,0,0.2,0,0.3c0,0.2,0,0.3,0,0.4c0,0.4,0,0.7,0,1c0,0.4,0.1,0.7,0.3,0.8
		C92.4,175.4,92.8,175.5,93.3,175.5z"/>
	<path class="st3" d="M98.5,171.1c0.4,0,0.8,0.1,1.1,0.3s0.4,0.5,0.4,0.9c0,0.3-0.1,0.5-0.4,0.5h-2.3c-0.1,0-0.2,0-0.2,0.1
		s-0.1,0.2-0.1,0.3c0,0.5,0.2,1,0.5,1.4c0.3,0.4,0.7,0.6,1.2,0.6c0.2,0,0.4,0,0.6-0.1c0.2-0.1,0.4-0.2,0.5-0.4
		c0.1-0.1,0.1-0.1,0.1-0.1c0.1,0,0.1,0.1,0.1,0.2c-0.1,0.2-0.3,0.5-0.6,0.7c-0.3,0.2-0.7,0.3-1.2,0.3c-0.5,0-1-0.2-1.3-0.7
		c-0.4-0.4-0.5-1-0.5-1.7c0-0.6,0.2-1.2,0.6-1.7S97.9,171.1,98.5,171.1z M98.4,171.4c-0.3,0-0.6,0.1-0.8,0.3
		c-0.2,0.2-0.4,0.4-0.4,0.6c0,0.1,0.1,0.2,0.2,0.2h0.9c0.3,0,0.6,0,0.8-0.1c0.1,0,0.1-0.1,0.1-0.3c0-0.2-0.1-0.4-0.3-0.5
		C98.8,171.5,98.6,171.4,98.4,171.4z"/>
	<path class="st3" d="M102.1,172.8v2.2c0,0.2,0.2,0.4,0.6,0.5c0.2,0.1,0.3,0.1,0.3,0.2c0,0.1-0.1,0.1-0.2,0.1c-0.2,0-0.3,0-0.5,0
		s-0.3,0-0.5,0c-0.1,0-0.3,0-0.4,0c-0.2,0-0.3,0-0.5,0c-0.1,0-0.2,0-0.2-0.1c0-0.1,0.1-0.1,0.3-0.2c0.1,0,0.2-0.1,0.2-0.1
		c0,0,0.1-0.1,0.1-0.1c0-0.1,0.1-0.1,0.1-0.2v-2.4c0-0.5-0.2-0.7-0.5-0.8c-0.1,0-0.1-0.1-0.1-0.1c0-0.1,0-0.1,0.1-0.1
		c0.1,0,0.3-0.1,0.4-0.1s0.2-0.1,0.3-0.2c0.1,0,0.2-0.1,0.3-0.2c0.1-0.1,0.2-0.1,0.2-0.1c0,0,0,0,0,0c0,0,0,0,0,0c0,0,0.1,0,0.1,0.1
		c0,0.2,0,0.5,0,0.8c0,0,0,0,0,0c0,0,0,0,0.1-0.1c0,0,0.1-0.1,0.1-0.1c0,0,0.1-0.1,0.1-0.1c0.4-0.3,0.7-0.5,1-0.5
		c0.2,0,0.3,0,0.4,0.1c0.1,0.1,0.2,0.2,0.2,0.3c0,0.1,0,0.2-0.1,0.4s-0.2,0.2-0.3,0.2c-0.1,0-0.2,0-0.3-0.1
		c-0.2-0.1-0.3-0.1-0.3-0.1c-0.2,0-0.4,0.1-0.6,0.2C102.2,172.2,102.1,172.4,102.1,172.8z"/>
	<path class="st3" d="M105.9,170.9C105.9,170.9,105.9,170.9,105.9,170.9c0,0.7,0,1.2,0,1.6v2.6c0,0.1,0,0.1,0,0.2
		c0,0,0.1,0.1,0.1,0.1c0.1,0,0.1,0.1,0.1,0.1c0,0,0.1,0,0.2,0.1c0.2,0.1,0.3,0.1,0.3,0.2c0,0.1-0.1,0.1-0.2,0.1c-0.1,0-0.3,0-0.5,0
		s-0.3,0-0.4,0c-0.1,0-0.3,0-0.4,0s-0.3,0-0.5,0s-0.2,0-0.2-0.1c0-0.1,0.1-0.1,0.3-0.2c0.2-0.1,0.4-0.2,0.4-0.2c0-0.1,0-0.1,0-0.2
		v-2.4c0-0.5-0.2-0.7-0.5-0.8c-0.1,0-0.1-0.1-0.1-0.1c0-0.1,0-0.1,0.1-0.1c0.2-0.1,0.4-0.1,0.6-0.2s0.4-0.2,0.5-0.3
		C105.8,170.9,105.8,170.9,105.9,170.9z M104.8,169.4c0-0.2,0.1-0.3,0.2-0.4c0.1-0.1,0.2-0.2,0.4-0.2c0.2,0,0.3,0.1,0.4,0.2
		c0.1,0.1,0.2,0.2,0.2,0.4c0,0.2-0.1,0.3-0.2,0.4s-0.2,0.2-0.4,0.2c-0.2,0-0.3-0.1-0.4-0.2S104.8,169.6,104.8,169.4z"/>
	<path class="st3" d="M109.3,171.1c0.4,0,0.8,0.1,1.1,0.3s0.4,0.5,0.4,0.9c0,0.3-0.1,0.5-0.4,0.5h-2.3c-0.1,0-0.2,0-0.2,0.1
		s-0.1,0.2-0.1,0.3c0,0.5,0.2,1,0.5,1.4c0.3,0.4,0.7,0.6,1.2,0.6c0.2,0,0.4,0,0.6-0.1c0.2-0.1,0.4-0.2,0.5-0.4
		c0.1-0.1,0.1-0.1,0.1-0.1c0.1,0,0.1,0.1,0.1,0.2c-0.1,0.2-0.3,0.5-0.6,0.7c-0.3,0.2-0.7,0.3-1.2,0.3c-0.5,0-1-0.2-1.3-0.7
		c-0.4-0.4-0.5-1-0.5-1.7c0-0.6,0.2-1.2,0.6-1.7S108.7,171.1,109.3,171.1z M109.2,171.4c-0.3,0-0.6,0.1-0.8,0.3
		c-0.2,0.2-0.4,0.4-0.4,0.6c0,0.1,0.1,0.2,0.2,0.2h0.9c0.3,0,0.6,0,0.8-0.1c0.1,0,0.1-0.1,0.1-0.3c0-0.2-0.1-0.4-0.3-0.5
		C109.6,171.5,109.4,171.4,109.2,171.4z"/>
	<path class="st3" d="M114.2,171.6c-0.4,0-0.8,0.1-1,0.3c-0.2,0.1-0.3,0.4-0.3,0.8v2.3c0,0.1,0,0.1,0,0.2c0,0,0.1,0.1,0.1,0.1
		c0.1,0,0.1,0.1,0.1,0.1c0,0,0.1,0,0.2,0.1c0.2,0.1,0.3,0.1,0.3,0.2c0,0.1-0.1,0.1-0.2,0.1c-0.2,0-0.3,0-0.5,0c-0.2,0-0.3,0-0.4,0
		c-0.1,0-0.3,0-0.4,0c-0.2,0-0.3,0-0.5,0c-0.1,0-0.2,0-0.2-0.1c0-0.1,0.1-0.1,0.3-0.2c0.2-0.1,0.4-0.2,0.4-0.2c0-0.1,0-0.1,0-0.2
		v-2.4c0-0.2,0-0.4-0.1-0.5s-0.2-0.2-0.3-0.3c-0.1,0-0.1-0.1-0.1-0.1c0-0.1,0-0.1,0.1-0.1c0.1,0,0.2,0,0.3-0.1
		c0.1,0,0.2-0.1,0.2-0.1s0.1-0.1,0.2-0.1c0.1,0,0.1-0.1,0.2-0.1c0,0,0.1-0.1,0.2-0.1c0.1-0.1,0.1-0.1,0.2-0.1c0.1,0,0.1,0,0.1,0.1
		c0,0,0,0.1,0,0.3c0,0.2,0,0.3,0,0.4c0,0.1,0,0.1,0,0.1c0.5-0.5,1.1-0.7,1.8-0.7c0.4,0,0.7,0.1,0.9,0.4c0.2,0.3,0.4,0.7,0.4,1.1v2.4
		c0,0.1,0,0.1,0,0.2c0,0,0.1,0.1,0.1,0.1c0.1,0,0.1,0.1,0.1,0.1c0,0,0.1,0,0.2,0.1c0.2,0.1,0.3,0.1,0.3,0.2c0,0.1-0.1,0.1-0.2,0.1
		c-0.2,0-0.3,0-0.5,0c-0.2,0-0.3,0-0.4,0s-0.3,0-0.4,0c-0.2,0-0.3,0-0.5,0c-0.1,0-0.2,0-0.2-0.1c0-0.1,0.1-0.1,0.3-0.2c0,0,0,0,0,0
		c0.2-0.1,0.4-0.2,0.4-0.3c0,0,0-0.1,0-0.1v-2.3c0-0.3-0.1-0.6-0.3-0.8S114.5,171.6,114.2,171.6z"/>
	<path class="st3" d="M120.7,172.2c-0.1,0-0.2,0-0.3-0.1c-0.2-0.2-0.4-0.4-0.5-0.4c-0.1-0.1-0.3-0.1-0.6-0.1c-0.4,0-0.7,0.2-0.9,0.5
		c-0.2,0.3-0.3,0.7-0.3,1.2c0,0.6,0.2,1,0.5,1.5c0.3,0.4,0.8,0.6,1.3,0.6c0.2,0,0.4,0,0.5-0.1c0.1-0.1,0.3-0.2,0.4-0.4
		c0,0,0.1-0.1,0.1-0.1c0,0,0.1,0,0.1,0.1c0,0,0,0.1,0,0.1c0,0.2-0.2,0.5-0.6,0.7c-0.4,0.2-0.8,0.4-1.3,0.4c-0.5,0-1-0.2-1.4-0.6
		s-0.5-0.9-0.5-1.5c0-0.7,0.2-1.3,0.7-1.8c0.4-0.5,1-0.8,1.7-0.8c0.6,0,1,0.2,1.3,0.5c0,0.1,0.1,0.1,0.1,0.1c0,0.1-0.1,0.2-0.2,0.3
		C120.9,172.1,120.8,172.2,120.7,172.2z"/>
	<path class="st3" d="M123.8,171.1c0.4,0,0.8,0.1,1.1,0.3s0.4,0.5,0.4,0.9c0,0.3-0.1,0.5-0.4,0.5h-2.3c-0.1,0-0.2,0-0.2,0.1
		s-0.1,0.2-0.1,0.3c0,0.5,0.2,1,0.5,1.4c0.3,0.4,0.7,0.6,1.2,0.6c0.2,0,0.4,0,0.6-0.1c0.2-0.1,0.4-0.2,0.5-0.4
		c0.1-0.1,0.1-0.1,0.1-0.1c0.1,0,0.1,0.1,0.1,0.2c-0.1,0.2-0.3,0.5-0.6,0.7c-0.3,0.2-0.7,0.3-1.2,0.3c-0.5,0-1-0.2-1.3-0.7
		c-0.4-0.4-0.5-1-0.5-1.7c0-0.6,0.2-1.2,0.6-1.7S123.1,171.1,123.8,171.1z M123.6,171.4c-0.3,0-0.6,0.1-0.8,0.3
		c-0.2,0.2-0.4,0.4-0.4,0.6c0,0.1,0.1,0.2,0.2,0.2h0.9c0.3,0,0.6,0,0.8-0.1c0.1,0,0.1-0.1,0.1-0.3c0-0.2-0.1-0.4-0.3-0.5
		C124,171.5,123.8,171.4,123.6,171.4z"/>
	<path class="st3" d="M73.3,190.8c0,0.1,0,0.1,0,0.2c0,0,0.1,0.1,0.1,0.1c0.1,0,0.1,0.1,0.1,0.1c0,0,0.1,0,0.2,0.1
		c0.2,0.1,0.3,0.1,0.3,0.2c0,0.1-0.1,0.1-0.2,0.1c-0.2,0-0.3,0-0.5,0c-0.2,0-0.3,0-0.4,0c-0.1,0-0.3,0-0.4,0s-0.3,0-0.5,0
		c-0.1,0-0.2,0-0.2-0.1c0-0.1,0.1-0.1,0.3-0.2c0,0,0,0,0,0c0.2-0.1,0.4-0.2,0.4-0.3c0,0,0-0.1,0-0.1v-2.3c0-0.3-0.1-0.5-0.3-0.7
		c-0.2-0.2-0.4-0.3-0.6-0.3c-0.4,0-0.7,0.1-1,0.3c-0.2,0.2-0.3,0.4-0.3,0.8v2.3c0,0,0,0.1,0,0.1c0,0,0,0.1,0,0.1c0,0,0,0,0,0.1
		c0,0,0,0,0.1,0c0,0,0,0,0.1,0s0,0,0.1,0c0,0,0.1,0,0.1,0s0,0,0.1,0c0,0,0.1,0,0.1,0c0.2,0.1,0.3,0.1,0.3,0.2c0,0.1-0.1,0.1-0.2,0.1
		c-0.2,0-0.3,0-0.5,0c-0.2,0-0.3,0-0.4,0c-0.1,0-0.3,0-0.4,0s-0.3,0-0.5,0c-0.1,0-0.2,0-0.2-0.1c0-0.1,0.1-0.1,0.3-0.2
		c0.2-0.1,0.4-0.2,0.4-0.2c0,0,0-0.1,0-0.2v-2.3c0-0.3-0.1-0.5-0.3-0.7c-0.2-0.2-0.4-0.3-0.6-0.3c-0.4,0-0.7,0.1-1,0.3
		c-0.2,0.1-0.3,0.4-0.3,0.8v2.3c0,0.1,0,0.1,0,0.2c0,0,0.1,0.1,0.1,0.1c0.1,0,0.1,0.1,0.1,0.1c0,0,0.1,0,0.2,0.1
		c0.2,0.1,0.3,0.1,0.3,0.2c0,0.1-0.1,0.1-0.2,0.1c-0.2,0-0.3,0-0.5,0c-0.2,0-0.3,0-0.4,0c-0.1,0-0.3,0-0.4,0s-0.3,0-0.5,0
		c-0.1,0-0.2,0-0.2-0.1c0-0.1,0.1-0.1,0.3-0.2c0.2-0.1,0.4-0.2,0.4-0.2c0-0.1,0-0.1,0-0.2v-2.4c0-0.2,0-0.4-0.1-0.5
		c-0.1-0.1-0.2-0.2-0.3-0.3c-0.1,0-0.1-0.1-0.1-0.1c0-0.1,0-0.1,0.1-0.1c0.1,0,0.2,0,0.3-0.1c0.1,0,0.2-0.1,0.2-0.1s0.1-0.1,0.2-0.1
		c0.1,0,0.1-0.1,0.2-0.1c0,0,0.1-0.1,0.2-0.1c0.1-0.1,0.1-0.1,0.2-0.1c0.1,0,0.1,0,0.1,0.1c0,0,0,0.1,0,0.3s0,0.3,0,0.4
		c0,0.1,0,0.1,0,0.1c0.5-0.5,1.1-0.7,1.8-0.7c0.5,0,0.8,0.2,1,0.7c0,0.1,0,0.1,0.1,0.1c0,0,0.1,0,0.1,0c0,0,0.1-0.1,0.2-0.1
		c0.5-0.4,1-0.6,1.6-0.6c0.3,0,0.6,0.2,0.8,0.5c0.2,0.3,0.3,0.7,0.3,1.1V190.8z"/>
	<path class="st3" d="M74.3,194.3c0-0.2,0.1-0.3,0.3-0.3c0.1,0,0.1,0,0.2,0s0.2,0,0.2,0c0.1,0,0.2,0,0.2-0.1c0.3-0.6,0.7-1.3,1-2.2
		c0-0.1,0-0.2,0-0.3c0-0.1,0-0.2,0-0.3l-1.3-3.3c-0.1-0.3-0.3-0.5-0.5-0.5c-0.2-0.1-0.3-0.1-0.3-0.2c0-0.1,0.1-0.1,0.2-0.1
		c0.2,0,0.3,0,0.4,0s0.3,0,0.4,0c0.1,0,0.3,0,0.4,0c0.1,0,0.3,0,0.4,0c0.1,0,0.2,0,0.2,0.1c0,0.1-0.1,0.2-0.3,0.2
		c-0.1,0-0.2,0.2-0.2,0.4c0,0.1,0,0.2,0.1,0.3l0.9,2.2c0.1,0.1,0.1,0.1,0.2,0l0.7-2c0.1-0.1,0.1-0.3,0.1-0.4c0-0.2-0.1-0.4-0.2-0.4
		c-0.2-0.1-0.3-0.2-0.3-0.3c0-0.1,0.1-0.1,0.2-0.1c0.1,0,0.2,0,0.3,0s0.3,0,0.5,0c0.1,0,0.3,0,0.4,0c0.1,0,0.2,0,0.3,0
		c0.1,0,0.2,0,0.2,0.1c0,0.1-0.1,0.1-0.3,0.2c-0.1,0-0.2,0.1-0.4,0.3c-0.1,0.1-0.2,0.3-0.3,0.5l-1.5,3.6c0,0-0.1,0.2-0.2,0.4
		c-0.1,0.3-0.3,0.6-0.4,1s-0.3,0.8-0.5,1.1c-0.1,0.3-0.4,0.5-0.7,0.5c-0.1,0-0.3,0-0.4-0.1C74.3,194.5,74.3,194.4,74.3,194.3z"/>
	<path class="st3" d="M86,190.7c0,0.2,0.2,0.4,0.5,0.5c0.2,0.1,0.3,0.1,0.3,0.2c0,0.1-0.1,0.1-0.2,0.1c-0.2,0-0.3,0-0.5,0
		c-0.1,0-0.3,0-0.4,0c-0.1,0-0.3,0-0.4,0c-0.1,0-0.3,0-0.5,0c-0.1,0-0.2,0-0.2-0.1c0-0.1,0.1-0.1,0.3-0.2c0.3-0.1,0.4-0.3,0.4-0.5
		v-2.3c0-0.3-0.1-0.5-0.3-0.7c-0.2-0.2-0.5-0.3-0.7-0.3c-0.4,0-0.7,0.1-0.9,0.2c-0.1,0.1-0.2,0.2-0.2,0.3s-0.1,0.3-0.1,0.5v2.3
		c0,0.2,0.1,0.4,0.4,0.5c0.2,0.1,0.3,0.1,0.3,0.2c0,0.1-0.1,0.1-0.2,0.1c-0.2,0-0.3,0-0.4,0c-0.1,0-0.3,0-0.4,0c-0.1,0-0.3,0-0.4,0
		s-0.3,0-0.5,0c-0.1,0-0.2,0-0.2-0.1c0-0.1,0.1-0.1,0.3-0.2c0.1,0,0.2-0.1,0.2-0.1c0.1,0,0.1-0.1,0.2-0.1s0.1-0.1,0.1-0.2v-5.6
		c0-0.5-0.2-0.7-0.5-0.8c-0.1,0-0.1-0.1-0.1-0.1c0-0.1,0-0.1,0.1-0.1c0.2,0,0.6-0.2,1.3-0.4l0,0c0,0,0,0,0.1,0.1c0,0,0,0.1,0,0.2
		c0,0.1,0,0.3,0,0.5c0,0.2,0,0.5,0,0.9v1.9c0,0.2,0,0.3,0.1,0.4c0.6-0.5,1.2-0.7,1.7-0.7c0.4,0,0.7,0.1,0.9,0.4
		c0.2,0.3,0.4,0.6,0.4,1.1V190.7z"/>
	<path class="st3" d="M89.8,186.9c0.6,0,1.2,0.2,1.6,0.7c0.4,0.4,0.7,1,0.7,1.6c0,0.7-0.2,1.3-0.7,1.8c-0.4,0.5-1.1,0.7-1.9,0.7
		c-0.6,0-1.2-0.2-1.6-0.6c-0.4-0.4-0.6-1-0.6-1.6c0-0.6,0.2-1.2,0.7-1.7S89.1,186.9,89.8,186.9z M89.6,187.2c-0.4,0-0.8,0.1-1,0.4
		c-0.2,0.3-0.4,0.8-0.4,1.5c0,0.6,0.1,1.1,0.4,1.5s0.7,0.7,1.1,0.7c0.6,0,0.9-0.2,1.1-0.6c0.1-0.3,0.2-0.7,0.2-1.3
		c0-0.6-0.1-1.1-0.4-1.5C90.4,187.4,90.1,187.2,89.6,187.2z"/>
	<path class="st3" d="M93.3,190.3v-5.1c0-0.5-0.2-0.7-0.5-0.8c-0.1,0-0.1-0.1-0.1-0.1c0-0.1,0-0.1,0.1-0.1c0.2,0,0.3-0.1,0.5-0.1
		c0.1-0.1,0.3-0.1,0.5-0.2c0.2-0.1,0.3-0.1,0.3-0.1h0l0,0c0,0,0.1,0,0.1,0.1c0,0,0,0.1,0,0.2c0,0.1,0,0.3,0,0.4c0,0.2,0,0.4,0,0.6
		v2.3c0,0.2,0,0.4,0.1,0.4c0.3-0.2,0.5-0.4,0.8-0.5s0.6-0.2,0.8-0.2c0.6,0,1,0.2,1.4,0.6c0.4,0.4,0.6,0.9,0.6,1.6
		c0,0.7-0.2,1.3-0.6,1.8c-0.4,0.5-1,0.8-1.8,0.8c-0.3,0-0.6-0.1-1-0.2c-0.4-0.1-0.6-0.2-0.6-0.2c-0.1,0-0.1,0-0.2,0.1
		c-0.1,0.1-0.1,0.1-0.1,0.1c0,0-0.1,0-0.1,0c0,0-0.1-0.1-0.1-0.1v-0.1c0,0,0-0.1,0-0.2s0-0.1,0-0.2c0-0.1,0-0.2,0-0.3
		C93.3,190.5,93.3,190.4,93.3,190.3z M95.6,191.3c0.4,0,0.7-0.2,1-0.6s0.4-0.8,0.4-1.4c0-0.5-0.1-0.9-0.4-1.4
		c-0.3-0.4-0.7-0.6-1.1-0.6c-0.2,0-0.4,0-0.6,0.1c-0.2,0.1-0.4,0.2-0.5,0.3c-0.2,0.2-0.2,0.5-0.2,0.9v1.3c0,0.4,0.2,0.7,0.5,0.9
		C94.9,191.2,95.2,191.3,95.6,191.3z"/>
	<path class="st3" d="M99.1,190.3v-5.1c0-0.5-0.2-0.7-0.5-0.8c-0.1,0-0.1-0.1-0.1-0.1c0-0.1,0-0.1,0.1-0.1c0.2,0,0.3-0.1,0.5-0.1
		c0.1-0.1,0.3-0.1,0.5-0.2c0.2-0.1,0.3-0.1,0.3-0.1h0l0,0c0,0,0.1,0,0.1,0.1c0,0,0,0.1,0,0.2c0,0.1,0,0.3,0,0.4c0,0.2,0,0.4,0,0.6
		v2.3c0,0.2,0,0.4,0.1,0.4c0.3-0.2,0.5-0.4,0.8-0.5s0.6-0.2,0.8-0.2c0.6,0,1,0.2,1.4,0.6c0.4,0.4,0.6,0.9,0.6,1.6
		c0,0.7-0.2,1.3-0.6,1.8c-0.4,0.5-1,0.8-1.8,0.8c-0.3,0-0.6-0.1-1-0.2c-0.4-0.1-0.6-0.2-0.6-0.2c-0.1,0-0.1,0-0.2,0.1
		c-0.1,0.1-0.1,0.1-0.1,0.1c0,0-0.1,0-0.1,0c0,0-0.1-0.1-0.1-0.1v-0.1c0,0,0-0.1,0-0.2s0-0.1,0-0.2c0-0.1,0-0.2,0-0.3
		C99.1,190.5,99.1,190.4,99.1,190.3z M101.4,191.3c0.4,0,0.7-0.2,1-0.6s0.4-0.8,0.4-1.4c0-0.5-0.1-0.9-0.4-1.4
		c-0.3-0.4-0.7-0.6-1.1-0.6c-0.2,0-0.4,0-0.6,0.1c-0.2,0.1-0.4,0.2-0.5,0.3c-0.2,0.2-0.2,0.5-0.2,0.9v1.3c0,0.4,0.2,0.7,0.5,0.9
		C100.6,191.2,101,191.3,101.4,191.3z"/>
	<path class="st3" d="M105.8,186.6C105.8,186.6,105.8,186.7,105.8,186.6c0,0.7,0,1.2,0,1.6v2.6c0,0.1,0,0.1,0,0.2
		c0,0,0.1,0.1,0.1,0.1c0.1,0,0.1,0.1,0.1,0.1c0,0,0.1,0,0.2,0.1c0.2,0.1,0.3,0.1,0.3,0.2c0,0.1-0.1,0.1-0.2,0.1c-0.1,0-0.3,0-0.5,0
		s-0.3,0-0.4,0c-0.1,0-0.3,0-0.4,0s-0.3,0-0.5,0s-0.2,0-0.2-0.1c0-0.1,0.1-0.1,0.3-0.2c0.2-0.1,0.4-0.2,0.4-0.2c0-0.1,0-0.1,0-0.2
		v-2.4c0-0.5-0.2-0.7-0.5-0.8c-0.1,0-0.1-0.1-0.1-0.1c0-0.1,0-0.1,0.1-0.1c0.2-0.1,0.4-0.1,0.6-0.2s0.4-0.2,0.5-0.3
		C105.7,186.7,105.8,186.6,105.8,186.6z M104.7,185.2c0-0.2,0.1-0.3,0.2-0.4c0.1-0.1,0.2-0.2,0.4-0.2c0.2,0,0.3,0.1,0.4,0.2
		c0.1,0.1,0.2,0.2,0.2,0.4c0,0.2-0.1,0.3-0.2,0.4s-0.2,0.2-0.4,0.2c-0.2,0-0.3-0.1-0.4-0.2S104.7,185.3,104.7,185.2z"/>
	<path class="st3" d="M109.2,186.9c0.4,0,0.8,0.1,1.1,0.3s0.4,0.5,0.4,0.9c0,0.3-0.1,0.5-0.4,0.5H108c-0.1,0-0.2,0-0.2,0.1
		s-0.1,0.2-0.1,0.3c0,0.5,0.2,1,0.5,1.4c0.3,0.4,0.7,0.6,1.2,0.6c0.2,0,0.4,0,0.6-0.1c0.2-0.1,0.4-0.2,0.5-0.4
		c0.1-0.1,0.1-0.1,0.1-0.1c0.1,0,0.1,0.1,0.1,0.2c-0.1,0.2-0.3,0.5-0.6,0.7c-0.3,0.2-0.7,0.3-1.2,0.3c-0.5,0-1-0.2-1.3-0.7
		c-0.4-0.4-0.5-1-0.5-1.7c0-0.6,0.2-1.2,0.6-1.7S108.6,186.9,109.2,186.9z M109.1,187.2c-0.3,0-0.6,0.1-0.8,0.3
		c-0.2,0.2-0.4,0.4-0.4,0.6c0,0.1,0.1,0.2,0.2,0.2h0.9c0.3,0,0.6,0,0.8-0.1c0.1,0,0.1-0.1,0.1-0.3c0-0.2-0.1-0.4-0.3-0.5
		C109.5,187.3,109.3,187.2,109.1,187.2z"/>
	<path class="st3" d="M113,187.2c-0.2,0-0.4,0.1-0.5,0.2c-0.1,0.1-0.2,0.3-0.2,0.5c0,0.1,0.1,0.3,0.2,0.4c0.1,0.1,0.2,0.3,0.3,0.3
		s0.2,0.2,0.4,0.3c0.2,0.1,0.3,0.2,0.4,0.3c0.1,0.1,0.2,0.2,0.4,0.4s0.2,0.4,0.2,0.7c0,0.9-0.5,1.3-1.6,1.3c-0.3,0-0.5,0-0.8-0.1
		c-0.2-0.1-0.4-0.2-0.4-0.3c-0.1-0.2-0.1-0.4-0.1-0.7c0-0.1,0.1-0.1,0.2-0.1c0.1,0,0.2,0,0.2,0.1c0,0.2,0.2,0.4,0.4,0.5
		c0.2,0.2,0.4,0.3,0.7,0.3c0.3,0,0.5-0.1,0.6-0.2c0.1-0.1,0.2-0.3,0.2-0.6c0-0.2-0.1-0.3-0.2-0.5s-0.3-0.3-0.6-0.5
		c-0.3-0.2-0.6-0.5-0.8-0.7c-0.2-0.2-0.3-0.4-0.3-0.7c0-0.4,0.1-0.7,0.4-0.9c0.2-0.3,0.6-0.4,1.1-0.4c0.4,0,0.7,0.1,0.8,0.3
		c0.1,0.2,0.2,0.4,0.2,0.9c0,0,0,0-0.1,0c-0.1,0-0.1,0-0.2-0.1s-0.1-0.1-0.1-0.2c0-0.2-0.1-0.3-0.2-0.4
		C113.3,187.2,113.2,187.2,113,187.2z"/>
</g>
<g>
	<g>
		<rect x="49.9" y="158.7" class="st4" width="0.9" height="2.3"/>
	</g>
	<g>
		<rect x="48.2" y="154.2" class="st4" width="0.9" height="6.9"/>
	</g>
	<g>
		<rect x="51.5" y="156.7" class="st4" width="0.9" height="4.3"/>
	</g>
	<g>
		<rect x="53.2" y="155.5" class="st3" width="0.9" height="5.6"/>
	</g>
	<g>
		<rect x="54.8" y="157.3" class="st4" width="0.9" height="3.7"/>
	</g>
	<g>
		<rect x="56.3" y="154.9" class="st4" width="0.9" height="6.2"/>
	</g>
</g>
<g>
	<g>
		<rect x="53.6" y="170.6" class="st4" width="3.6" height="0.9"/>
	</g>
	<g>
		<rect x="52.3" y="172.2" class="st4" width="4.9" height="0.9"/>
	</g>
	<g>
		<rect x="51" y="173.8" class="st4" width="6.2" height="0.9"/>
	</g>
	<g>
		<rect x="49.6" y="175.5" class="st4" width="7.6" height="0.9"/>
	</g>
	<g>
		<rect x="48.3" y="177" class="st4" width="8.9" height="0.9"/>
	</g>
	<g>
		<rect x="54.9" y="168.9" class="st3" width="2.3" height="0.9"/>
	</g>
</g>
<g>
	<g>
		
			<rect x="50.4" y="185.6" transform="matrix(-0.9263 -0.3768 0.3768 -0.9263 26.7777 383.3728)" class="st4" width="0.9" height="7"/>
	</g>
	<g>
		<rect x="54.3" y="185.5" class="st4" width="0.9" height="7"/>
	</g>
	<g>
		
			<rect x="44.7" y="189.3" transform="matrix(-0.7139 0.7002 -0.7002 -0.7139 215.4303 291.4001)" class="st3" width="7" height="0.9"/>
	</g>
	<g>
		
			<rect x="49.2" y="188.5" transform="matrix(-0.129 0.9916 -0.9916 -0.129 246.8745 161.0747)" class="st3" width="7" height="0.9"/>
	</g>
	<g>
		<rect x="56.3" y="185.5" class="st4" width="0.9" height="7"/>
	</g>
	<g class="st0">
		<g class="st5">
			<rect x="48.4" y="190" class="st4" width="0.6" height="3"/>
		</g>
		<g class="st5">
			<rect x="49.3" y="190" class="st4" width="0.6" height="3"/>
		</g>
		<g class="st5">
			<rect x="50.9" y="190" class="st4" width="0.6" height="3"/>
		</g>
		<g class="st5">
			<rect x="51.8" y="190" class="st4" width="0.6" height="3"/>
		</g>
		<g class="st5">
			<rect x="53.4" y="190" class="st4" width="0.6" height="3"/>
		</g>
		<g class="st5">
			<rect x="54.3" y="190" class="st4" width="0.6" height="3"/>
		</g>
	</g>
</g>
<g>
	<path class="st4" d="M36.8,145.6v0.5h-4.3v-7.8h0.6v7.3H36.8z"/>
	<path class="st4" d="M44.3,145.6l0,0.5h-4.7v-7.8h4.7v0.5h-4.1v3.1h3.4v0.5h-3.4v3.2H44.3z"/>
	<path class="st4" d="M53.5,146.1H53c-0.1,0-0.1,0-0.1,0c0,0-0.1-0.1-0.1-0.1l-0.9-2.3h-3.8l-0.9,2.3c0,0,0,0.1-0.1,0.1
		s-0.1,0-0.1,0h-0.4l3.2-7.8h0.6L53.5,146.1z M51.7,143.3l-1.6-3.9c-0.1-0.1-0.1-0.3-0.2-0.5c0,0.1,0,0.2-0.1,0.2
		c0,0.1-0.1,0.2-0.1,0.2l-1.6,3.9H51.7z"/>
	<path class="st4" d="M61.7,146.1h-0.5c-0.1,0-0.1,0-0.2,0c0,0-0.1-0.1-0.1-0.1l-2.5-3.2c0,0-0.1-0.1-0.1-0.1c0,0-0.1-0.1-0.1-0.1
		s-0.1,0-0.1,0c-0.1,0-0.1,0-0.2,0h-1v3.5h-0.6v-7.8h2c0.9,0,1.6,0.2,2,0.5c0.4,0.3,0.7,0.9,0.7,1.5c0,0.3-0.1,0.6-0.2,0.8
		c-0.1,0.2-0.3,0.5-0.4,0.6c-0.2,0.2-0.4,0.3-0.7,0.5c-0.3,0.1-0.6,0.2-0.9,0.2c0.1,0.1,0.2,0.1,0.2,0.2L61.7,146.1z M58.2,142.2
		c0.3,0,0.7,0,0.9-0.1c0.3-0.1,0.5-0.2,0.7-0.4c0.2-0.2,0.3-0.3,0.4-0.6c0.1-0.2,0.1-0.5,0.1-0.7c0-0.6-0.2-1-0.5-1.2
		s-0.9-0.4-1.6-0.4h-1.4v3.4H58.2z"/>
	<path class="st4" d="M70.5,138.3v7.8h-0.3c0,0-0.1,0-0.1,0c0,0-0.1,0-0.1-0.1l-5.1-6.8c0,0.1,0,0.2,0,0.3v6.6h-0.5v-7.8h0.3
		c0.1,0,0.1,0,0.1,0c0,0,0.1,0,0.1,0.1l5,6.7c0-0.1,0-0.2,0-0.3v-6.5H70.5z"/>
	<path class="st4" d="M84.4,146.1H84c-0.1,0-0.1,0-0.1,0s-0.1-0.1-0.1-0.1l-0.9-2.3h-3.8l-0.9,2.3c0,0,0,0.1-0.1,0.1s-0.1,0-0.1,0
		h-0.4l3.2-7.8h0.6L84.4,146.1z M82.7,143.3l-1.6-3.9c-0.1-0.1-0.1-0.3-0.2-0.5c0,0.1,0,0.2-0.1,0.2c0,0.1-0.1,0.2-0.1,0.2l-1.6,3.9
		H82.7z"/>
	<path class="st4" d="M89.5,138.3c0.4,0,0.8,0,1.2,0.1s0.6,0.2,0.8,0.4s0.4,0.4,0.5,0.6c0.1,0.2,0.2,0.5,0.2,0.8
		c0,0.2,0,0.4-0.1,0.6c-0.1,0.2-0.2,0.4-0.3,0.5s-0.3,0.3-0.5,0.4s-0.4,0.2-0.7,0.3c0.6,0.1,1.1,0.3,1.4,0.6s0.5,0.7,0.5,1.3
		c0,0.3-0.1,0.6-0.2,0.9c-0.1,0.3-0.3,0.5-0.5,0.7s-0.5,0.3-0.8,0.4c-0.3,0.1-0.7,0.1-1.1,0.1h-2.5v-7.8H89.5z M87.8,138.8v3.2h1.7
		c0.4,0,0.7,0,0.9-0.1s0.5-0.2,0.6-0.4s0.3-0.3,0.4-0.5s0.1-0.4,0.1-0.6c0-0.5-0.2-0.9-0.5-1.2c-0.3-0.3-0.8-0.4-1.5-0.4H87.8z
		 M89.8,145.7c0.7,0,1.2-0.1,1.5-0.4c0.3-0.3,0.5-0.7,0.5-1.2c0-0.2,0-0.5-0.1-0.7c-0.1-0.2-0.2-0.4-0.4-0.5s-0.4-0.2-0.6-0.3
		c-0.3-0.1-0.5-0.1-0.9-0.1h-2v3.3H89.8z"/>
	<path class="st4" d="M102.7,142.2c0,0.6-0.1,1.1-0.3,1.6c-0.2,0.5-0.4,0.9-0.8,1.3s-0.7,0.6-1.2,0.8c-0.5,0.2-1,0.3-1.5,0.3
		s-1.1-0.1-1.5-0.3c-0.5-0.2-0.8-0.5-1.2-0.8s-0.6-0.8-0.8-1.3s-0.3-1-0.3-1.6c0-0.6,0.1-1.1,0.3-1.6c0.2-0.5,0.4-0.9,0.8-1.3
		c0.3-0.3,0.7-0.6,1.2-0.8c0.5-0.2,1-0.3,1.5-0.3s1.1,0.1,1.5,0.3c0.5,0.2,0.8,0.5,1.2,0.8c0.3,0.3,0.6,0.8,0.8,1.3
		C102.6,141.1,102.7,141.6,102.7,142.2z M102.1,142.2c0-0.5-0.1-1-0.2-1.5c-0.2-0.4-0.4-0.8-0.6-1.1c-0.3-0.3-0.6-0.5-1-0.7
		c-0.4-0.2-0.8-0.2-1.3-0.2c-0.5,0-0.9,0.1-1.3,0.2c-0.4,0.2-0.7,0.4-1,0.7c-0.3,0.3-0.5,0.7-0.6,1.1c-0.2,0.4-0.2,0.9-0.2,1.5
		c0,0.5,0.1,1,0.2,1.5c0.2,0.4,0.4,0.8,0.6,1.1c0.3,0.3,0.6,0.5,1,0.7c0.4,0.2,0.8,0.2,1.3,0.2c0.5,0,0.9-0.1,1.3-0.2
		c0.4-0.2,0.7-0.4,1-0.7c0.3-0.3,0.5-0.7,0.6-1.1C102,143.2,102.1,142.8,102.1,142.2z"/>
	<path class="st4" d="M108.8,145.7c0.4,0,0.7-0.1,1-0.2s0.5-0.3,0.8-0.5c0.2-0.2,0.4-0.5,0.5-0.8c0.1-0.3,0.2-0.7,0.2-1v-4.8h0.6
		v4.8c0,0.4-0.1,0.8-0.2,1.2s-0.3,0.7-0.6,1c-0.3,0.3-0.6,0.5-0.9,0.7c-0.4,0.2-0.8,0.2-1.2,0.2c-0.5,0-0.9-0.1-1.2-0.2
		c-0.4-0.2-0.7-0.4-0.9-0.7c-0.3-0.3-0.5-0.6-0.6-1s-0.2-0.8-0.2-1.2v-4.8h0.6v4.8c0,0.4,0.1,0.7,0.2,1s0.3,0.6,0.5,0.8
		c0.2,0.2,0.5,0.4,0.7,0.5C108.1,145.6,108.5,145.7,108.8,145.7z"/>
	<path class="st4" d="M120.6,138.8h-2.7v7.3h-0.6v-7.3h-2.8v-0.5h6.1V138.8z"/>
</g>
<g>
	<g>
		<rect x="50" y="68.1" class="st3" width="1.6" height="0.9"/>
	</g>
	<g>
		<rect x="48.5" y="66.5" class="st4" width="4.7" height="0.9"/>
	</g>
	<g>
		<rect x="51.4" y="69.8" class="st4" width="3.7" height="0.9"/>
	</g>
	<g>
		<rect x="53.3" y="73" class="st4" width="3.8" height="0.9"/>
	</g>
	<g>
		<rect x="53.9" y="66.5" class="st4" width="3.2" height="0.9"/>
	</g>
	<g>
		<rect x="55.3" y="71.4" class="st4" width="1.4" height="0.9"/>
	</g>
	<g>
		<rect x="52.2" y="68.1" class="st4" width="3.9" height="0.9"/>
	</g>
	<g>
		<rect x="51.4" y="71.4" class="st4" width="3.2" height="0.9"/>
	</g>
	<g>
		<rect x="50" y="73" class="st4" width="2.7" height="0.9"/>
	</g>
	<g>
		<rect x="48.5" y="74.7" class="st4" width="3.2" height="0.9"/>
	</g>
	<g>
		<rect x="52.4" y="74.7" class="st3" width="3.1" height="0.9"/>
	</g>
</g>
<g>
	<g>
		<rect x="47.6" y="116.7" transform="matrix(0.9415 -0.337 0.337 0.9415 -36.4987 24.115)" class="st4" width="7.3" height="0.9"/>
	</g>
	<g>
		
			<rect x="51.7" y="119.3" transform="matrix(0.5849 0.8111 -0.8111 0.5849 119.9337 5.1595)" class="st4" width="6.4" height="0.9"/>
	</g>
	<g>
		
			<rect x="50.9" y="119.2" transform="matrix(0.7984 0.6021 -0.6021 0.7984 82.6999 -7.7849)" class="st4" width="4.2" height="0.9"/>
	</g>
	<g>
		
			<rect x="48.4" y="120.1" transform="matrix(0.8866 0.4626 -0.4626 0.8866 61.6684 -10.3852)" class="st4" width="7.3" height="0.9"/>
	</g>
	<g>
		<rect x="48.4" y="121.7" class="st4" width="4.9" height="0.9"/>
	</g>
	<g>
		
			<rect x="51.2" y="114.6" transform="matrix(0.9945 0.1046 -0.1046 0.9945 12.3263 -5.0374)" class="st3" width="5.9" height="0.9"/>
	</g>
</g>
<g>
	<g>
		<rect x="47.8" y="83.3" class="st4" width="0.9" height="7"/>
	</g>
	<g>
		<rect x="50.6" y="83.3" class="st4" width="0.9" height="7"/>
	</g>
	<g>
		<rect x="53.5" y="83.3" class="st4" width="0.9" height="7"/>
	</g>
	<g>
		<rect x="56.3" y="83.3" class="st4" width="0.9" height="7"/>
	</g>
	<g>
		<rect x="49.2" y="83.3" class="st3" width="0.9" height="4.2"/>
	</g>
	<g>
		<rect x="52" y="83.3" class="st3" width="0.9" height="4.2"/>
	</g>
	<g>
		<rect x="54.9" y="83.3" class="st3" width="0.9" height="4.2"/>
	</g>
</g>
<g>
	<g>
		<rect x="50" y="100.1" class="st4" width="7.3" height="0.9"/>
	</g>
	<g>
		<rect x="52.1" y="98.5" class="st4" width="5.2" height="0.9"/>
	</g>
	<g>
		<rect x="50" y="101.8" class="st4" width="7.3" height="0.9"/>
	</g>
	<g>
		<rect x="52.1" y="103.4" class="st4" width="5.2" height="0.9"/>
	</g>
	<g>
		<rect x="50" y="105" class="st4" width="7.3" height="0.9"/>
	</g>
	<g>
		<rect x="50" y="106.6" class="st4" width="7.3" height="0.9"/>
	</g>
	<g>
		<rect x="48.4" y="97.8" class="st3" width="0.9" height="1.6"/>
	</g>
</g>
<g>
	<path class="st3" d="M86.1,32.9c0-0.3,0-0.4-0.2-0.5l-0.1,0c0,0,0-0.1,0-0.1c0.2-0.1,0.6-0.3,0.8-0.4c0,0,0.1,0,0.1,0.1v0.5
		c0,0,0,0.1,0,0.1c0.3-0.2,0.6-0.5,0.9-0.5c0.2,0,0.4,0.1,0.4,0.3c0,0.3-0.2,0.4-0.3,0.4c-0.1,0-0.1,0-0.2-0.1
		c-0.1-0.1-0.2-0.1-0.4-0.1c-0.1,0-0.2,0.1-0.3,0.2c-0.1,0.1-0.1,0.3-0.1,0.6v1.1c0,0.6,0,0.7,0.3,0.7l0.3,0c0.1,0,0,0.2,0,0.2
		c-0.4,0-0.6,0-0.9,0c-0.3,0-0.5,0-0.7,0c-0.1,0-0.1-0.2,0-0.2l0.2,0c0.3,0,0.3-0.1,0.3-0.7V32.9z"/>
	<path class="st3" d="M90,33.1c-0.2,0-0.2,0-0.2,0.2c0,0.8,0.5,1.5,1.3,1.5c0.3,0,0.5-0.1,0.7-0.4c0.1,0,0.1,0,0.1,0.1
		c-0.3,0.5-0.8,0.7-1.3,0.7c-0.5,0-0.9-0.2-1.2-0.5c-0.2-0.3-0.3-0.7-0.3-1c0-1,0.6-1.8,1.6-1.8c0.7,0,1.1,0.5,1.1,1
		c0,0.1,0,0.2,0,0.2c0,0-0.1,0.1-0.5,0.1H90z M90.5,32.9c0.6,0,0.8,0,0.8-0.1c0,0,0,0,0-0.2c0-0.2-0.2-0.5-0.6-0.5
		c-0.5,0-0.9,0.4-0.9,0.7c0,0,0,0,0.1,0H90.5z M90.5,31.6c-0.1,0-0.1,0-0.1-0.1l0.7-1.3c0-0.1,0.1-0.2,0.2-0.2c0.1,0,0.2,0,0.2,0.1
		c0.1,0.1,0.1,0.1,0.1,0.2c0,0,0,0.1-0.1,0.2L90.5,31.6z"/>
	<path class="st3" d="M95.4,32.1c0.1,0.2,0.1,0.4,0.1,0.6c0,0.1-0.2,0.1-0.2,0c-0.1-0.4-0.4-0.6-0.7-0.6c-0.3,0-0.5,0.2-0.5,0.5
		c0,0.3,0.3,0.5,0.6,0.7c0.4,0.2,0.8,0.5,0.8,1.1c0,0.6-0.6,0.9-1.2,0.9c-0.4,0-0.7-0.1-0.9-0.2c-0.1-0.2-0.1-0.5-0.1-0.8
		c0,0,0.1-0.1,0.2,0c0.1,0.4,0.4,0.8,0.8,0.8c0.3,0,0.5-0.2,0.5-0.5c0-0.4-0.3-0.6-0.6-0.7c-0.5-0.3-0.8-0.5-0.8-1
		c0-0.6,0.5-0.9,1.1-0.9C95.1,31.9,95.4,32,95.4,32.1z"/>
	<path class="st3" d="M98.2,34c0,0.6,0.1,0.9,0.7,0.9c0.2,0,0.5-0.1,0.6-0.2c0.1-0.1,0.2-0.2,0.2-0.5v-1.3c0-0.5-0.1-0.5-0.3-0.6
		l-0.1,0c-0.1,0-0.1-0.1,0-0.2c0.3,0,0.8-0.1,0.9-0.1c0,0,0.1,0,0.1,0.1c0,0.2,0,0.4,0,0.7V34c0,0.6,0,0.9,0.2,0.9
		c0.1,0,0.2,0,0.3,0c0,0,0.1,0.2,0,0.2c-0.3,0.1-0.8,0.1-1,0.3c0,0-0.1,0-0.1-0.1V35c0-0.1,0-0.1-0.1-0.1c-0.2,0.2-0.6,0.4-1.1,0.4
		c-0.7,0-1-0.4-1-1V33c0-0.5,0-0.6-0.2-0.7l-0.1,0c0,0,0-0.2,0-0.2c0.4,0,0.7-0.1,0.9-0.1c0,0,0.1,0,0.1,0.1c0,0.1,0,0.3,0,0.7V34z"
		/>
	<path class="st3" d="M107.2,33.1c0-0.5-0.2-0.8-0.7-0.8c-0.3,0-0.6,0.1-0.7,0.3c-0.1,0.1-0.1,0.2-0.1,0.5v1.2c0,0.6,0,0.7,0.3,0.7
		l0.2,0c0.1,0,0,0.2,0,0.2c-0.2,0-0.5,0-0.8,0c-0.3,0-0.5,0-0.7,0c-0.1,0-0.1-0.2,0-0.2l0.1,0c0.3,0,0.3-0.1,0.3-0.7v-1.2
		c0-0.5-0.2-0.8-0.7-0.8c-0.3,0-0.6,0.1-0.7,0.3c-0.1,0.1-0.1,0.2-0.1,0.5v1.2c0,0.6,0,0.6,0.3,0.7l0.1,0c0.1,0,0,0.2,0,0.2
		c-0.2,0-0.4,0-0.7,0c-0.3,0-0.5,0-0.8,0c-0.1,0-0.1-0.2,0-0.2l0.2,0c0.3,0,0.3-0.1,0.3-0.7v-1.4c0-0.3,0-0.4-0.2-0.5l-0.1,0
		c0,0,0-0.1,0-0.1c0.2-0.1,0.6-0.3,0.8-0.4c0,0,0.1,0,0.1,0.1c0,0.2,0,0.3,0,0.4c0,0,0,0.1,0.1,0.1c0.3-0.2,0.7-0.4,1.1-0.4
		c0.4,0,0.6,0.1,0.8,0.5c0.1,0,0.1,0,0.2-0.1c0.3-0.2,0.7-0.4,1.1-0.4c0.6,0,1,0.4,1,1v1.4c0,0.6,0,0.7,0.3,0.7l0.2,0
		c0.1,0,0,0.2,0,0.2c-0.3,0-0.5,0-0.8,0c-0.3,0-0.5,0-0.7,0c-0.1,0-0.1-0.2,0-0.2l0.1,0c0.3,0,0.3-0.1,0.3-0.7V33.1z"/>
	<path class="st3" d="M110.6,33.1c-0.2,0-0.2,0-0.2,0.2c0,0.8,0.5,1.5,1.3,1.5c0.3,0,0.5-0.1,0.7-0.4c0.1,0,0.1,0,0.1,0.1
		c-0.3,0.5-0.8,0.7-1.3,0.7c-0.5,0-0.9-0.2-1.2-0.5c-0.2-0.3-0.3-0.7-0.3-1c0-1,0.6-1.8,1.6-1.8c0.7,0,1.1,0.5,1.1,1
		c0,0.1,0,0.2,0,0.2c0,0-0.1,0.1-0.5,0.1H110.6z M111.1,32.9c0.6,0,0.8,0,0.8-0.1c0,0,0,0,0-0.2c0-0.2-0.2-0.5-0.6-0.5
		c-0.5,0-0.9,0.4-0.9,0.7c0,0,0,0,0.1,0H111.1z M111.2,31.6c-0.1,0-0.1,0-0.1-0.1l0.7-1.3c0-0.1,0.1-0.2,0.2-0.2
		c0.1,0,0.2,0,0.2,0.1c0.1,0.1,0.1,0.1,0.1,0.2c0,0,0,0.1-0.1,0.2L111.2,31.6z"/>
</g>
<g>
	<path class="st3" d="M138.6,32.1c0.1,0.1,0.1,0.2,0.1,0.3c0,0.1-0.1,0.3-0.2,0.3c0,0-0.1,0-0.1-0.1c-0.2-0.2-0.5-0.4-0.8-0.4
		c-0.6,0-1.1,0.4-1.1,1.3c0,0.6,0.4,1.4,1.3,1.4c0.5,0,0.7-0.2,0.9-0.5c0.1,0,0.1,0,0.1,0.1c-0.3,0.6-0.9,0.8-1.3,0.8
		c-0.4,0-0.8-0.1-1.1-0.4c-0.3-0.3-0.5-0.7-0.5-1.2c0-0.9,0.6-1.8,1.9-1.8C138.1,31.9,138.4,32,138.6,32.1z"/>
	<path class="st3" d="M143.6,33.6c0,1-0.7,1.7-1.7,1.7c-0.9,0-1.6-0.6-1.6-1.6c0-1,0.8-1.7,1.7-1.7
		C142.9,31.9,143.6,32.6,143.6,33.6z M141.9,32.2c-0.5,0-0.9,0.5-0.9,1.4c0,0.7,0.3,1.5,1,1.5c0.7,0,0.9-0.7,0.9-1.4
		C142.9,33,142.7,32.2,141.9,32.2z"/>
	<path class="st3" d="M145.8,32.9c0-0.3,0-0.4-0.2-0.5l-0.1,0c0,0,0-0.1,0-0.1c0.2-0.1,0.6-0.3,0.8-0.4c0,0,0.1,0,0.1,0.1
		c0,0.2,0,0.3,0,0.4c0,0,0,0.1,0.1,0.1c0.3-0.2,0.7-0.4,1.1-0.4c0.7,0,0.9,0.5,0.9,1v1.4c0,0.6,0,0.7,0.3,0.7l0.2,0
		c0.1,0,0,0.2,0,0.2c-0.2,0-0.5,0-0.8,0c-0.3,0-0.5,0-0.7,0c-0.1,0-0.1-0.2,0-0.2l0.2,0c0.3,0,0.3-0.1,0.3-0.7v-1.2
		c0-0.5-0.2-0.8-0.8-0.8c-0.3,0-0.6,0.1-0.7,0.3c-0.1,0.1-0.1,0.2-0.1,0.5v1.2c0,0.6,0,0.6,0.3,0.7l0.1,0c0.1,0,0,0.2,0,0.2
		c-0.2,0-0.4,0-0.7,0c-0.3,0-0.5,0-0.8,0c-0.1,0-0.1-0.2,0-0.2l0.2,0c0.3,0,0.3-0.1,0.3-0.7V32.9z"/>
	<path class="st3" d="M151.8,32.4c-0.1,0-0.1,0-0.1,0.2v1.5c0,0.5,0.1,0.9,0.6,0.9c0.1,0,0.2,0,0.2,0c0.1,0,0.2-0.1,0.2-0.1
		c0.1,0,0.1,0.1,0.1,0.1c-0.1,0.2-0.4,0.4-0.8,0.4c-0.7,0-0.8-0.4-0.8-0.9v-1.8c0-0.2,0-0.2-0.2-0.2h-0.2c0,0-0.1-0.1,0-0.2
		c0.2-0.1,0.4-0.2,0.5-0.2c0.1-0.1,0.3-0.3,0.3-0.5c0,0,0.1,0,0.2,0v0.4c0,0.1,0,0.2,0.1,0.2h0.9c0.1,0.1,0.1,0.3,0,0.3H151.8z"/>
	<path class="st3" d="M155.8,33.5c0.1,0,0.1-0.1,0.1-0.2l0-0.4c0-0.3-0.1-0.7-0.6-0.7c-0.2,0-0.5,0.1-0.5,0.4c0,0.1,0,0.2-0.1,0.3
		c-0.1,0.1-0.3,0.2-0.5,0.2c-0.1,0-0.1,0-0.1-0.1c0-0.4,0.9-1,1.5-1c0.6,0,0.9,0.3,0.8,0.9l0,1.4c0,0.4,0.1,0.7,0.4,0.7
		c0.1,0,0.2,0,0.2,0c0,0,0.1-0.1,0.1-0.1c0,0,0.1,0,0.1,0.1c0,0-0.3,0.4-0.7,0.4c-0.2,0-0.4-0.1-0.5-0.2c0,0-0.1-0.1-0.1-0.1
		c-0.1,0-0.2,0.1-0.3,0.2c-0.2,0.1-0.4,0.2-0.6,0.2c-0.2,0-0.4-0.1-0.6-0.2c-0.2-0.1-0.2-0.3-0.2-0.6c0-0.3,0.2-0.5,0.7-0.7
		L155.8,33.5z M155.3,34.9c0.2,0,0.4-0.1,0.5-0.2c0.1-0.1,0.1-0.2,0.1-0.4l0-0.5c0-0.1,0-0.1-0.1-0.1s-0.2,0-0.3,0.1
		c-0.5,0.2-0.7,0.3-0.7,0.6C154.8,34.6,154.9,34.9,155.3,34.9z"/>
	<path class="st3" d="M161.2,32.1c0.1,0.1,0.1,0.2,0.1,0.3c0,0.1-0.1,0.3-0.2,0.3c0,0-0.1,0-0.1-0.1c-0.2-0.2-0.5-0.4-0.8-0.4
		c-0.6,0-1.1,0.4-1.1,1.3c0,0.6,0.4,1.4,1.3,1.4c0.5,0,0.7-0.2,0.9-0.5c0.1,0,0.1,0,0.1,0.1c-0.3,0.6-0.9,0.8-1.3,0.8
		c-0.4,0-0.8-0.1-1.1-0.4c-0.3-0.3-0.5-0.7-0.5-1.2c0-0.9,0.6-1.8,1.9-1.8C160.7,31.9,161,32,161.2,32.1z"/>
	<path class="st3" d="M164,32.4c-0.1,0-0.1,0-0.1,0.2v1.5c0,0.5,0.1,0.9,0.6,0.9c0.1,0,0.2,0,0.2,0c0.1,0,0.2-0.1,0.2-0.1
		c0.1,0,0.1,0.1,0.1,0.1c-0.1,0.2-0.4,0.4-0.8,0.4c-0.7,0-0.8-0.4-0.8-0.9v-1.8c0-0.2,0-0.2-0.2-0.2h-0.2c0,0-0.1-0.1,0-0.2
		c0.2-0.1,0.4-0.2,0.5-0.2c0.1-0.1,0.3-0.3,0.3-0.5c0,0,0.1,0,0.2,0v0.4c0,0.1,0,0.2,0.1,0.2h0.9c0.1,0.1,0.1,0.3,0,0.3H164z"/>
</g>
<g>
	<g>
		<g>
			<path class="st4" d="M25.8,16c-1.3-0.6-2.9-0.6-4.1-0.1c-0.8,0.3-1.3,0.8-1.5,1.5c-0.4,0.9-0.3,1.6,0.3,2.9
				c0.2,0.4,0.6,1.3,0.7,2.1c0,0.2,0,0.3,0,0.5c-0.2-0.1-0.4-0.3-0.6-0.4C20,22.2,19.2,22,18.5,22c-1.2,0-2.4,0.6-3,1.2
				c-0.2,0.2-0.7,0.8-0.6,1.6c0,0.4,0.2,0.9,0.9,1.3c0.7,0.5,1.6,0.7,2.9,0.7h0c1.1,0,2.2-0.4,2.8-1.1c0.2-0.3,0.3-0.4,0.4-0.7
				c0.3-0.5,0.5-1.8,0.4-2.8c-0.1-1-0.4-1.7-0.6-2.2c0,0,0-0.1,0-0.1c-0.1-0.2,0.1-0.4,0.2-0.5c0.8-0.6,1.9-0.4,2.6-0.2
				c0.5,0.2,0.7-0.3,0.7-0.3c0.1-0.3,0-0.6-0.3-0.7c-0.1,0-0.1-0.1-0.2-0.1c-1.2-0.3-2.3-0.3-3.1,0.1c-0.3,0.2-0.4-0.1-0.2-0.6
				c0.2-0.4,0.6-0.7,0.9-0.8c0.9-0.4,2.1-0.3,3.2,0.1c0.3,0.1,0.6,0,0.7-0.3C26.2,16.4,26.1,16.1,25.8,16z M20.7,25
				c-0.4,0.4-1.2,0.8-2,0.8h0c-1,0-1.7-0.2-2.2-0.5C16.2,25,16,24.9,16,24.7c0-0.2,0.1-0.5,0.3-0.7c0.3-0.3,1.1-0.9,2-0.9
				c0,0,0.1,0,0.1,0c0.8,0,2.3,0.3,2.4,1.3C20.9,24.6,20.8,24.8,20.7,25z"/>
		</g>
	</g>
	<g>
		<path class="st3" d="M25.8,16c-1.3-0.6-2.9-0.6-4.1-0.1c-0.2,0.1-0.4,0.2-0.6,0.4c-0.1,0.3-0.3,0.8-0.4,1.5c0,0-0.1,1.2,0.3,2.2
			c0,0,0,0,0,0.1c0.1,0.2,0.5,1.4,0.6,2.2c0.2,1,0.1,2.3,0,3.2c0.1-0.1,0.1-0.2,0.2-0.3c0.3-0.5,0.5-1.8,0.4-2.8
			c-0.1-1-0.4-1.7-0.6-2.2c0,0,0-0.1,0-0.1c-0.1-0.2,0.1-0.4,0.2-0.5c0.8-0.6,1.9-0.4,2.6-0.2c0.5,0.2,0.7-0.3,0.7-0.3
			c0.1-0.3,0-0.6-0.3-0.7c-0.1,0-0.1-0.1-0.2-0.1c-1.2-0.3-2.3-0.3-3.1,0.1c-0.3,0.2-0.4-0.1-0.2-0.6c0.2-0.4,0.6-0.7,0.9-0.8
			c0.9-0.4,2.1-0.3,3.2,0.1c0.3,0.1,0.6,0,0.7-0.3C26.2,16.4,26.1,16.1,25.8,16z"/>
	</g>
</g>
<g>
	<g>
		<rect x="99.6" y="215" class="st3" width="8.1" height="0.9"/>
	</g>
	<g>
		<rect x="99.6" y="220.2" class="st4" width="8.1" height="0.9"/>
	</g>
	<g>
		<rect x="99.6" y="215" class="st4" width="0.9" height="5.4"/>
	</g>
	<g>
		<rect x="106.8" y="215" class="st4" width="0.9" height="5.4"/>
	</g>
	<g>
		
			<rect x="102.5" y="216.8" transform="matrix(0.7071 -0.7071 0.7071 0.7071 -122.79 138.0232)" class="st3" width="5.4" height="0.9"/>
	</g>
	<g>
		
			<rect x="99.4" y="216.8" transform="matrix(-0.7071 -0.7071 0.7071 -0.7071 20.594 442.9946)" class="st3" width="5.4" height="0.9"/>
	</g>
	<g>
		<polygon class="st3" points="107.7,215 106.8,215 106.8,215 106.8,216.3 107.7,215.4 		"/>
	</g>
	<g>
		<polygon class="st3" points="99.6,215 99.6,215.4 100.5,216.3 100.5,215 		"/>
	</g>
</g>
<g>
	<g>
		<path class="st3" d="M127.2,214c0.2,0,0.4,0,0.6,0c0,0,0.1,0,0.1,0c0.7,0.1,1.3,0.3,1.8,0.7c1,0.7,1.6,1.6,1.8,2.8
			c0,0.1,0,0.2,0,0.3c0,0.2,0,0.4,0,0.6c0,0,0,0,0,0c0,0.4-0.1,0.7-0.3,1.1c-0.7,1.9-2.7,2.9-4.6,2.5c-2.1-0.5-3.5-2.6-3.1-4.7
			c0.3-1.7,1.7-3,3.4-3.2C127,214,127.1,214.1,127.2,214z M126.9,219.6c-0.2,0-0.3,0-0.5-0.1c-0.4-0.1-0.8-0.3-1-0.7
			c-0.1-0.2-0.2-0.4-0.2-0.7c0-0.4,0-0.8,0.3-1.2c0,0,0-0.1,0-0.1c-0.1-0.2-0.1-0.5,0-0.7c0.1-0.2,0.1-0.2,0.3-0.2
			c0.3,0.1,0.5,0.2,0.7,0.3c0,0,0.1,0,0.1,0c0.6-0.2,1.1-0.2,1.7,0c0,0,0.1,0,0.1,0c0.2-0.1,0.3-0.2,0.5-0.3c0.1,0,0.2-0.1,0.4-0.1
			c0,0,0.1,0,0.1,0c0.1,0.3,0.1,0.5,0.1,0.8c0,0.1,0,0.1,0,0.2c0.1,0.1,0.2,0.3,0.2,0.5c0.1,0.3,0.1,0.5,0,0.8
			c-0.1,0.5-0.4,0.9-0.9,1.1c-0.2,0.1-0.4,0.1-0.7,0.2c0.2,0.2,0.2,0.4,0.2,0.7c0,0.3,0,0.6,0,0.9c0,0,0,0.1,0.1,0.2
			c0,0,0.1,0.1,0.2,0.1c0.2,0.1,2-0.9,2.4-2.8c0.2-0.8,0-1.5,0-1.6c-0.5-1.9-2.4-3-4.3-2.5c-1.8,0.5-2.9,2.2-2.6,4
			c0.1,0.6,0.4,1.2,0.5,1.4c0.3,0.6,0.7,0.8,1.2,1.2c0.1,0.1,0.4,0.3,0.6,0.2c0.1-0.1,0.2-0.2,0.2-0.2c0,0,0-0.1,0-0.1
			c0-0.2,0-0.4,0-0.6c-0.1,0-0.2,0-0.3,0c-0.4,0-0.8-0.1-1-0.6c-0.1-0.2-0.2-0.4-0.4-0.5c-0.1,0-0.1-0.1-0.1-0.1
			c0-0.1,0.1-0.1,0.2-0.1c0.2,0,0.4,0.2,0.5,0.3c0,0.1,0.1,0.1,0.2,0.2c0.2,0.2,0.6,0.2,0.9,0.1c0,0,0,0,0,0c0,0,0,0,0,0
			C126.7,220,126.8,219.9,126.9,219.6z"/>
	</g>
	<g>
		<g>
			<path class="st4" d="M127.6,222.4c-2.4,0-4.4-2-4.4-4.4s2-4.4,4.4-4.4s4.4,2,4.4,4.4S130,222.4,127.6,222.4z M127.6,214.6
				c-1.9,0-3.5,1.6-3.5,3.5s1.6,3.5,3.5,3.5s3.5-1.6,3.5-3.5S129.5,214.6,127.6,214.6z"/>
		</g>
	</g>
</g>
<g>
	<g>
		<rect x="32" y="209.8" class="st3" width="135.2" height="0.5"/>
	</g>
</g>
</svg>
